<?xml version="1.0" encoding="utf-8"?>
<!-- Generator: Adobe Illustrator 19.2.1, SVG Export Plug-In . SVG Version: 6.00 Build 0)  -->
<svg version="1.1" id="Layer_1" xmlns="http://www.w3.org/2000/svg" xmlns:xlink="http://www.w3.org/1999/xlink" x="0px" y="0px"
	 viewBox="0 0 411.1 124.5" style="enable-background:new 0 0 411.1 124.5;" xml:space="preserve">
<style type="text/css">
	.st0{fill:#FFFFFF;}
</style>
<g>
	<path class="st0" d="M2,65.4V20.8h2.3l27.5,24.8V20.8h5v44.6h-2.3L7,40.7v24.8H2z"/>
	<path class="st0" d="M51.5,65.4V20.8h9.9v44.6H51.5z"/>
	<path class="st0" d="M91.2,40.7h14.9v14.9c0,3.3-1.1,5.8-3.2,7.4c-2.1,1.7-4.4,2.5-6.7,2.5h-9.9c-2.7,0-5-1-7-2.9
		c-1.9-1.9-2.9-4.3-2.9-7V30.7c0-2.7,1-5,2.9-6.9s4.3-3,7-3h9.9c6.2,0,9.5,3.3,9.9,9.9h-5c-0.4-3.3-2-4.9-4.9-4.9h-5
		c-1.4,0-2.5,0.5-3.5,1.5s-1.5,2.1-1.5,3.5v24.8c0,1.4,0.5,2.5,1.5,3.5s2.1,1.4,3.5,1.4c3.2-0.2,4.8-1.8,5-4.9v-9.9h-5V40.7z"/>
	<path class="st0" d="M116,65.4V20.8h9.9v19.8h9.9V20.8h9.9v44.6h-9.9V45.6h-9.9v19.8H116z"/>
	<path class="st0" d="M160.5,65.4V25.8h-9.9v-5h29.7v5h-9.9v39.6H160.5z"/>
	<path class="st0" d="M190.3,65.4V20.8h9.9v44.6H190.3z"/>
	<path class="st0" d="M215.1,65.4V20.8h2.3l27.5,24.8V20.8h5v44.6h-2.3L220,40.7v24.8H215.1z"/>
	<path class="st0" d="M274.5,40.7h14.9v14.9c0,3.3-1.1,5.8-3.2,7.4c-2.1,1.7-4.4,2.5-6.7,2.5h-9.9c-2.7,0-5-1-7-2.9
		c-1.9-1.9-2.9-4.3-2.9-7V30.7c0-2.7,1-5,2.9-6.9s4.3-3,7-3h9.9c6.2,0,9.5,3.3,9.9,9.9h-5c-0.4-3.3-2-4.9-4.9-4.9h-5
		c-1.4,0-2.5,0.5-3.5,1.5s-1.5,2.1-1.5,3.5v24.8c0,1.4,0.5,2.5,1.5,3.5s2.1,1.4,3.5,1.4c3.2-0.2,4.8-1.8,5-4.9v-9.9h-5V40.7z"/>
	<path class="st0" d="M299.3,65.4V30.7c0-2.7,1-5,2.9-7c1.9-1.9,4.3-2.9,7-2.9h9.9c2.7,0,5,1,7,2.9c1.9,2,2.9,4.3,2.9,7v34.7h-9.9
		V45.6h-9.9v19.8H299.3z M309.2,40.7h9.9v-9.9c0-1.3-0.5-2.5-1.5-3.5c-1-1-2.1-1.5-3.5-1.5c-1.4,0-2.5,0.5-3.5,1.5s-1.5,2.1-1.5,3.5
		V40.7z"/>
	<path class="st0" d="M338.9,65.4V20.8h9.9v39.6h14.9v5H338.9z"/>
	<path class="st0" d="M373.6,65.4V20.8h24.8v5h-14.9v14.9h9.9v4.9h-9.9v14.9h14.9v5H373.6z"/>
	<path class="st0" d="M106.1,120.7V76.1H126c2.7,0,5,1,7,2.9c1.9,2,2.9,4.3,2.9,7v5c0,2.7-1,5-2.9,7c-1.9,1.9-4.3,2.9-7,2.9H116
		v19.8H106.1z M116,96h5c1.3,0,2.5-0.5,3.5-1.5c1-1,1.5-2.1,1.5-3.5v-5c0-1.3-0.5-2.5-1.5-3.5c-1-1-2.1-1.5-3.5-1.5h-5V96z"/>
	<path class="st0" d="M145.8,120.7V76.1h19.8c2.7,0,5,1,7,2.9c1.9,2,2.9,4.3,2.9,7v2.7c0,2.2-0.8,4.3-2.3,6.4
		c-1.5,2.1-4.1,3.1-7.6,3.1h4.9c1.4,0,2.5,0.5,3.5,1.5c1,1,1.5,2.1,1.5,3.5v17.6h-9.9v-14.9c0-1.4-0.5-2.5-1.5-3.5
		c-1-1-2.1-1.5-3.5-1.5h-5v19.8H145.8z M155.7,96h5c1.3,0,2.5-0.5,3.5-1.5c1-1,1.5-2.1,1.5-3.5v-5c0-1.3-0.5-2.5-1.5-3.5
		c-1-1-2.1-1.5-3.5-1.5h-5V96z"/>
	<path class="st0" d="M195.3,76.1h9.9c2.7,0,5,1,7,2.9c1.9,2,2.9,4.3,2.9,7v24.8c0,2.7-1,5-2.9,7c-1.9,2-4.3,2.9-7,2.9h-9.9
		c-2.7,0-5-1-7-2.9c-1.9-1.9-2.9-4.3-2.9-7V86c0-2.7,1-5,2.9-7C190.2,77.1,192.6,76.1,195.3,76.1z M195.3,86v24.8
		c0,1.3,0.5,2.5,1.5,3.5c1,1,2.1,1.5,3.5,1.5s2.6-0.5,3.5-1.5c1-1,1.5-2.1,1.5-3.5V86c0-1.3-0.5-2.5-1.5-3.5c-1-1-2.1-1.5-3.5-1.5
		c-1.4,0-2.5,0.5-3.5,1.5S195.3,84.7,195.3,86z"/>
	<path class="st0" d="M229.9,120.7V81.1H220v-5h29.7v5h-9.9v39.6H229.9z"/>
	<path class="st0" d="M264.7,76.1h9.9c2.7,0,5,1,7,2.9c1.9,2,2.9,4.3,2.9,7v24.8c0,2.7-1,5-2.9,7c-1.9,2-4.3,2.9-7,2.9h-9.9
		c-2.7,0-5-1-7-2.9c-1.9-1.9-2.9-4.3-2.9-7V86c0-2.7,1-5,2.9-7C259.6,77.1,261.9,76.1,264.7,76.1z M264.7,86v24.8
		c0,1.3,0.5,2.5,1.5,3.5c1,1,2.1,1.5,3.5,1.5s2.6-0.5,3.5-1.5c1-1,1.5-2.1,1.5-3.5V86c0-1.3-0.5-2.5-1.5-3.5c-1-1-2.1-1.5-3.5-1.5
		c-1.4,0-2.5,0.5-3.5,1.5S264.7,84.7,264.7,86z"/>
	<path class="st0" d="M324.1,110.9c-0.4,6.6-3.7,9.9-9.9,9.9h-9.9c-2.7,0-5-1-7-2.9c-1.9-1.9-2.9-4.3-2.9-7V86c0-2.7,1-5,2.9-6.9
		s4.3-3,7-3h9.9c6.2,0,9.5,3.3,9.9,9.9h-5c-0.4-3.3-2-4.9-4.9-4.9h-5c-1.4,0-2.5,0.5-3.5,1.5s-1.5,2.1-1.5,3.5v24.8
		c0,1.3,0.5,2.5,1.5,3.5c1,1,2.1,1.5,3.5,1.5h5c2.9,0,4.6-1.6,4.9-4.9H324.1z"/>
	<path class="st0" d="M343.9,76.1h9.9c2.7,0,5,1,7,2.9c1.9,2,2.9,4.3,2.9,7v24.8c0,2.7-1,5-2.9,7c-1.9,2-4.3,2.9-7,2.9h-9.9
		c-2.7,0-5-1-7-2.9c-1.9-1.9-2.9-4.3-2.9-7V86c0-2.7,1-5,2.9-7C338.9,77.1,341.2,76.1,343.9,76.1z M343.9,86v24.8
		c0,1.3,0.5,2.5,1.5,3.5c1,1,2.1,1.5,3.5,1.5s2.6-0.5,3.5-1.5c1-1,1.5-2.1,1.5-3.5V86c0-1.3-0.5-2.5-1.5-3.5c-1-1-2.1-1.5-3.5-1.5
		c-1.4,0-2.5,0.5-3.5,1.5S343.9,84.7,343.9,86z"/>
	<path class="st0" d="M373.6,120.7V76.1h9.9v39.6h14.9v5H373.6z"/>
</g>
<g>
	<path class="st0" d="M5.6,17.6V3.7H2.1V2h10.4v1.7H9.1v13.9H5.6z"/>
	<path class="st0" d="M14.3,17.6V2h3.5v7h3.5V2h3.5v15.6h-3.5v-7h-3.5v7H14.3z"/>
	<path class="st0" d="M28.2,17.6V2h8.7v1.7h-5.2V9h3.5v1.7h-3.5v5.2h5.2v1.7H28.2z"/>
</g>
</svg>
