<?xml version="1.0" encoding="utf-8"?>
<!-- Generator: Adobe Illustrator 19.2.1, SVG Export Plug-In . SVG Version: 6.00 Build 0)  -->
<svg version="1.1" id="Layer_1" xmlns="http://www.w3.org/2000/svg" xmlns:xlink="http://www.w3.org/1999/xlink" x="0px" y="0px"
	 viewBox="0 0 357.9 100.7" style="enable-background:new 0 0 357.9 100.7;" xml:space="preserve">
<style type="text/css">
	.st0{opacity:0.9;}
	.st1{fill:#FFFFFF;}
	.st2{fill:#161414;}
	.st3{fill:#FCFCFC;}
	.st4{fill:#1D1C1A;}
</style>
<g class="st0">
	<g>
		<path class="st1" d="M20.1,83.6c-1.3,0-2.6-0.2-4-0.5l-0.2-0.1L15.7,83c-9-4.5-12.6-12.1-10.5-22.5l-1.8-5.3l3.2-8.3l0.4-1.2
			l1.3-3.4l0.5-1.6l4.5-5.9l0.7-0.7l2.4-6.1l3.8-1.4l0.9,1.2c0.1,0.1,0.2,0.2,0.6,0.2c0.5,0,1.5-0.2,3.6-1.4l0.5-0.3h2.3l0.7-1.3
			l1.6,0.5C41.8,29.5,48,38.1,48.8,51.2l0,0.3l-0.1,0.3c-3.2,14.7-12.2,25.3-26.7,31.6l-0.3,0.1l-0.3,0C21,83.6,20.6,83.6,20.1,83.6
			z M22.4,53c-0.1,1.6,0,3.5,0.5,5.6l0.1,0.4l-0.1,0.4c-0.4,2.4-0.2,4.7,0.6,7.1c4-3.6,7.1-8.4,9-14.3c-0.9-4.8-2.8-6.6-4.2-7.3
			c-0.7,1.2-1.7,2.4-2.8,3.5l-2,3.3L22.4,53z"/>
		<path class="st2" d="M29.8,27.5C40.4,31.1,46,39,46.8,51.4c-3.1,14.1-11.6,24.2-25.6,30.2c-0.4,0-0.8,0.1-1.2,0.1
			c-1.1,0-2.3-0.2-3.5-0.5C8.3,77,5.2,70.1,7.2,60.3l-1.7-5.1l3-7.7l0.4-1.3l1.3-3.4l0.4-1.3l4.3-5.5l0.9-0.9l2.2-5.6l1.6-0.6
			c0.5,0.7,1.3,1,2.2,1c1.2,0,2.7-0.5,4.6-1.6h1.3h1.3C29.2,28.3,29.5,28,29.8,27.5 M22.6,69.7c5.5-4.1,9.5-9.9,11.9-17.4
			c-0.9-5.7-3.3-9-7.3-9.8c-0.7,1.5-1.8,3.1-3.4,4.7l-2.1,3.4l-1.3,1.7c-0.3,1.9-0.1,4.2,0.4,6.8C20.3,62.5,20.9,66.1,22.6,69.7
			 M27.9,22.7l-1,1.7h-0.6h-1.1l-0.9,0.6c-1,0.6-1.7,0.9-2.1,1L21,24.2l-2.7,1l-1.6,0.6l-1.7,0.6l-0.7,1.7l-1.9,4.8l-0.3,0.3
			l-0.2,0.2l-0.2,0.2l-4.3,5.5l-0.4,0.5l-0.2,0.6l-0.4,1.2l-1.2,3.4l0,0l0,0l-0.4,1.2l-2.9,7.6l-0.5,1.3l0.5,1.4l1.4,4.1
			c-2,11,2.1,19.4,11.7,24.2l0.4,0.2l0.4,0.1c1.5,0.4,3.1,0.6,4.5,0.6c0.5,0,1.1,0,1.6-0.1l0.6-0.1l0.6-0.2
			c15.1-6.6,24.5-17.7,27.9-33l0.1-0.5l0-0.6c-0.9-13.8-7.7-23.3-19.7-27.4L27.9,22.7L27.9,22.7z M27,49.6c0.6-0.6,1.2-1.3,1.7-1.9
			c0.6,0.8,1.3,2.1,1.7,4.2c-1.4,4.1-3.3,7.5-5.7,10.4c0-0.9,0-1.7,0.1-2.6l0.1-0.7l-0.1-0.7c-0.4-1.7-0.5-3.3-0.5-4.5l0.6-0.8
			l0.1-0.1l0.1-0.2L27,49.6L27,49.6z"/>
	</g>
	<g>
		<path class="st1" d="M62.1,83.6c-1.6,0-3.2-0.8-4.7-2.5l-2.4,1.1l0.1-3.3c0.1-1.2-0.1-2.5-0.4-3.9l-0.1-0.5l0.1-0.5
			c0.3-1.2,0.3-2.7,0-4.3l-0.1-0.4l0.1-0.4c0.3-2.1,0.5-4.7,0.4-7.7l0-12c-0.1-1,0-2.1,0.1-3.3c-4.3-0.4-7.4-2.9-8.8-7.4l-0.2-0.7
			l0.2-0.6c2.3-6.2,7.1-10.3,14.2-12.1l0.1,0l0.1,0c0.9-0.1,1.8-0.2,2.6-0.2c5.4,0,10.5,1.9,15.2,5.8l0.7,0.6l0,0.9
			c0,5.4-2.4,9.1-7.2,10.7c0,2.9-0.6,6-1.6,9.2v0.8c0.2,2.7,0,5.9-0.8,9.7l-0.3,2.2v3l-0.4,1.1l0.4,2.5v3.7l-0.1,0.3
			C68.7,77.7,66.5,83.6,62.1,83.6C62.1,83.6,62.1,83.6,62.1,83.6z"/>
		<path class="st2" d="M63.6,27.3c4.9,0,9.6,1.8,14,5.3c0,5-2.4,8.1-7.2,9.2c0.2,3.2-0.4,6.7-1.6,10.4v1.2c0.2,2.5,0,5.6-0.8,9.2
			l-0.4,2.4v2.8l-0.4,1.2l0.4,2.8v3.2c-1.7,4.4-3.5,6.5-5.5,6.5c-1.3,0-2.7-1-4.2-2.9l-0.8,0.4c0.1-1.4-0.1-2.9-0.4-4.4
			c0.4-1.5,0.4-3.3,0-5.2c0.4-2.2,0.5-4.9,0.4-8v-12c-0.1-1.5,0-3.2,0.4-5.2c-0.4,0-0.8,0.1-1.2,0.1c-4,0-6.7-2-8-6
			c2.1-5.6,6.3-9.2,12.8-10.8C62,27.4,62.8,27.3,63.6,27.3 M63.6,23.3c-0.9,0-1.9,0.1-2.9,0.2l-0.3,0l-0.3,0.1
			c-7.8,2-13,6.4-15.6,13.3l-0.5,1.3l0.4,1.3C46,44.1,49,47,53.2,48c0,0.6,0,1.1,0,1.6v11.9v0.1l0,0.1c0.1,2.9-0.1,5.3-0.4,7.3
			l-0.1,0.7l0.1,0.7c0.3,1.3,0.3,2.5,0,3.4l-0.2,0.9l0.2,0.9c0.3,1.1,0.4,2.3,0.3,3.3l-0.3,6.7l4.1-2c1.6,1.4,3.3,2,5.1,2
			c5.7,0,8.3-6.9,9.2-9.1l0.3-0.7v-0.7v-3.2v-0.3l0-0.3l-0.3-1.8l0.1-0.3l0.2-0.6v-0.7v-2.5l0.3-2c0.8-3.9,1.1-7.2,0.9-10.1v-0.4
			c0.9-2.8,1.4-5.6,1.6-8.2c4.7-2.2,7.3-6.4,7.2-12.1l0-1.9l-1.5-1.2C75,25.4,69.5,23.3,63.6,23.3L63.6,23.3z"/>
	</g>
	<g>
		<path class="st1" d="M103.6,82.6c-1.6-3.6-2.3-7.7-2.1-12.5c-0.1-1.5-0.6-3.3-1.4-5.4l0-0.1c-2.3-0.4-5.2-1.1-8.5-2.1l-0.2-0.1
			l-0.3-0.1l-0.8,4.7L90,68.9l-0.3,0.5v1.1l-3.9,8.2l-0.6,1.6l-0.6,0.4c-0.9,0.6-2,1.1-3.4,1.7l-2.2,0.9l-1.2-5.7l-0.4-2.2l0-0.1
			L77.1,75l-0.1-0.6l-0.4-7.5l0.1-0.4c0.7-2.1,1.3-4.9,1.8-8.4l0.4-2.5c0.1-1.3,0.3-2.7,0.7-4.2c-0.1-1,0.1-2.1,0.4-3.1v-1l0.1-0.2
			c0.3-1.1,0.5-2.5,0.7-4.2l0-0.2l0.1-0.2c0.1-0.3,0.3-0.9,0.3-2.4l0-0.2l0.8-3v-1.2l0.1-0.3c0.4-1.2,0.6-2.7,0.7-4.4l0.1-1.1
			l0.9-0.5c1.1-0.6,2.1-1.6,3.2-2.9l0.6-0.8h1.6c0.2,0,0.4,0,0.6,0c1.9,0,3.7,0.8,5.4,2.5l0.5,0.5l0.1,0.7c0.3,2.6,0,5.5-0.8,8.6
			L94.6,40v1.4l-0.4,0.8c0,0.8-0.2,1.7-0.4,2.8c-0.1,1.1-0.3,2.4-0.7,3.7l2.5,1l2.3,1h1.2l0.9,0.4l2.3,0.3l0.9,0.1
			c0.9-3.6,1.3-7.8,1-12.4l0-0.4l0.4-1.2v-1.5l-0.1-0.2l-1.7-2.2l0.3-1c1.6-4.7,4.1-7,7.4-7c2,0,4,0.9,6.3,2.7l0.8,0.6v12.3
			c0,0.9-0.1,2-0.4,3.2v2.1c0,0.9-0.1,2-0.4,3.2v1.2l-0.4,1.4c0.1,0.5,0.2,1,0.5,1.6l0.2,0.4v5l-1.6,4.6l0,0.1c-0.5,1-0.8,2.4-1,3.9
			l0,0.2l-0.5,1.6l-0.7,1.1l-0.3,0.8l-0.4,1.5l-0.5,1.4l-0.8,1.3c-0.3,0.6-0.6,1.5-0.9,2.6l-0.1,0.4l-5.3,6.6L103.6,82.6z"/>
		<path class="st2" d="M89.8,27.4c1.4,0,2.7,0.6,4,1.9c0.3,2.4,0,5-0.8,7.9l-0.4,2.6V41l-0.4,0.8c0,0.8-0.1,1.8-0.4,3
			c-0.1,1.1-0.3,2.4-0.8,3.8v1.5l3.8,1.5l2.6,1.1h1.1l0.8,0.4l2.6,0.4l2.6,0.4c1.4-4.2,1.9-9.1,1.5-14.7l0.4-1.1v-2.3l-0.4-0.8
			l-1.1-1.5c1.3-3.8,3.1-5.7,5.5-5.7c1.5,0,3.2,0.8,5.1,2.3v7.5v1.1v1.5v1.1c0,0.8-0.1,1.8-0.4,3v1.1v1.1c0,0.8-0.1,1.8-0.4,3v1.1
			l-0.4,1.5c0.1,0.9,0.3,1.8,0.8,2.6v3v1.1l-1.5,4.1c-0.6,1.2-0.9,2.8-1.1,4.6l-0.4,1.1l-0.7,1.1l-0.4,1.1l-0.4,1.5l-0.4,1.1
			l-0.8,1.1c-0.4,0.7-0.7,1.7-1.1,3l-3,3.8c-1.5-3.3-2.1-7.2-1.9-11.7c-0.1-1.7-0.6-3.7-1.5-6.1v-1.1c-2.5-0.3-5.8-1-9.8-2.3
			l-0.7-0.4l-1.1-0.4l-0.7-0.4l-1.1,7.2l-0.4,1.5l-0.4,0.7v1.1L84,78l-0.4,1.1c-0.8,0.5-1.8,1-3,1.5l-0.7-3.4l-0.4-1.9
			c0-0.4-0.1-0.8-0.4-1.1l-0.4-7.2c0.7-2.2,1.4-5.1,1.9-8.7l0.4-2.6c0-1.3,0.3-2.7,0.8-4.2c-0.1-1,0-2,0.4-3v-1.1
			c0.3-1.2,0.6-2.7,0.7-4.5c0.2-0.7,0.4-1.7,0.4-3l0.8-3v-1.1c0.4-1.3,0.7-3,0.8-4.9c1.3-0.7,2.5-1.9,3.8-3.4h0.8
			C89.4,27.4,89.6,27.4,89.8,27.4 M89.8,23.4L89.8,23.4c-0.2,0-0.5,0-0.7,0h-0.6h-1.9L85.3,25c-0.9,1.1-1.8,1.9-2.6,2.4l-1.9,1.1
			l-0.1,2.2c-0.1,1.6-0.3,2.9-0.6,3.9L80,35.2v0.6v0.6l-0.6,2.5l-0.1,0.5l0,0.5c0,1.3-0.2,1.8-0.2,1.8l-0.2,0.4l0,0.5
			c-0.2,1.6-0.4,2.9-0.6,3.9l-0.1,0.5v0.5v0.5c-0.3,1.1-0.4,2.1-0.4,3.2c-0.4,1.5-0.7,2.9-0.7,4.3l-0.4,2.4c-0.5,3.4-1.1,6.1-1.7,8
			l-0.2,0.7l0,0.8l0.4,7.2l0.1,1.2l0.4,0.5l0,0l0.4,1.9l0,0l0,0l0.7,3.4l1,4.6l4.4-1.7c1.5-0.6,2.8-1.2,3.8-1.9l1.1-0.8l0.4-1.3
			l0.3-0.9l3.7-7.7l0.4-0.8v-0.9v-0.2l0.1-0.3l0.1-0.5l0.4-1.5l0-0.2l0-0.2l0.4-2.3c2.2,0.6,4.2,1.1,5.9,1.4
			c0.5,1.4,0.8,2.7,0.9,3.7c-0.2,5,0.5,9.4,2.2,13.2l2.7,6l4.1-5.1l3-3.8l0.5-0.6l0.2-0.8c0.3-1.1,0.6-1.8,0.7-2.1l0.6-0.9l0.3-0.4
			l0.2-0.5l0.4-1.1l0.1-0.2l0-0.2l0.3-1.4l0.2-0.5l0.5-0.7l0.3-0.4l0.2-0.5l0.4-1.1l0.1-0.4l0-0.4c0.1-1.4,0.4-2.5,0.8-3.3l0.1-0.2
			l0.1-0.2l1.5-4.1l0.2-0.7v-0.7V58v-3v-1l-0.5-0.9c-0.1-0.2-0.2-0.4-0.2-0.6l0.2-0.7l0.1-0.5v-0.5v-0.7c0.3-1.3,0.4-2.4,0.4-3.4
			v-1.1v-0.7c0.3-1.3,0.4-2.4,0.4-3.4v-1.1v-1.5v-1.1v-7.5v-1.9l-1.5-1.2c-2.7-2.1-5.1-3.1-7.6-3.1c-2.9,0-6.9,1.5-9.3,8.4l-0.7,2
			l1.3,1.7l0.7,0.9v0.5l-0.2,0.5l-0.3,0.8l0.1,0.8c0.2,3.7,0.1,7-0.5,10l-1.1-0.1l-0.2-0.1l-0.8-0.4h-0.9h-0.3l-1.9-0.8l-0.1,0
			l-0.1,0l-0.8-0.3c0.2-0.8,0.3-1.5,0.3-2.2c0.2-0.9,0.3-1.8,0.3-2.5l0.4-0.8V41v-0.8l0.3-2.1c0.9-3.3,1.1-6.4,0.8-9.2l-0.2-1.4
			l-1-1C94.5,24.4,92.2,23.4,89.8,23.4L89.8,23.4z"/>
	</g>
	<g>
		<path class="st1" d="M137.7,83.9c-3.7,0-7.7-0.7-11.8-2.1h-0.7c-0.8,0.1-1.5,0.2-2.3,0.2c-2,0-4-0.4-6-1.1l-1.2-0.4l-0.2-1.2
			c-0.4-2.8-0.2-6.4,0.4-10.5l0.4-2.8l1.1-6.2c-0.9-2.1-1.3-4.6-1.1-7.5l0-0.7l0.4-0.5c1.5-1.8,2.4-4.2,2.7-7.3c0.2-2-0.3-3.9-1.4-6
			l-0.4-0.8l0.3-0.8c0.5-1.2,1.2-2.4,2.2-3.6l0.3-0.7l0.1-0.2c0.7-0.9,1.4-2.3,2.2-4l0.1-0.2l1.5-2.2h1.1c1,0,2.1,0.1,3.4,0.4h1.1
			l3.3,0.4l0.3,0.2l0.7-0.2h4.4l2.8-0.9l0.6,0.2c4.2,1.5,6.7,3.5,7.5,6.1c0.7,2.1,0.2,4.4-1.4,6.8l-0.5,0.8l-1,0.1
			c-2.4,0.1-5.3,0.7-8.8,1.5l-0.2,0.1h-3.2l-1.1,0.3l-0.3,6.1l2,0.4l4.2,0.8h0.6l2.4-1l0.7,0.3c3.4,1.2,7.8,3.3,7.8,6.8
			c0,2.8-2.8,5.1-9,7.4l-0.5,0.2l-0.6-0.1c-0.7-0.2-1.5-0.2-2.5-0.2c-1,0-2,0.1-3.2,0.3l-0.1,0h-2.9l-0.8,0.4h-0.2l-0.4,1.3
			l-0.7,2.9v1.4c1.3,0.3,2.8,0.7,4.4,1.2l4.1,0.5l0.5,1c0.8,1.8,2.2,3.4,4.1,4.8l0.9,0.6l0,1.1c-0.1,1.8-0.7,3.8-1.9,5.7l-0.5,0.9
			l-1,0.1C139.5,83.9,138.6,83.9,137.7,83.9z"/>
		<path class="st2" d="M141.4,27.3c6.3,2.3,8.1,5.6,5.2,10c-2.5,0.2-5.5,0.7-9.2,1.6h-3.2l-1.6,0.4l-1.2,0.4l-0.4,7.2l-0.4,0.8v1.2
			l4,0.8l4.4,0.8h1.2l2-0.8c9.1,3.3,8.7,6.8-1.2,10.4c-0.9-0.2-1.8-0.3-2.9-0.3c-1.1,0-2.2,0.1-3.5,0.3h-3.2l-0.8,0.4h-1.2l-0.8,2.8
			l-0.8,3.2v1.2l-0.4,0.8v1.2c1.7,0.3,3.9,0.8,6.3,1.6l3.2,0.4c0.9,2.1,2.5,4,4.8,5.6c-0.1,1.5-0.6,3.1-1.6,4.8
			c-0.8,0.1-1.7,0.1-2.5,0.1c-3.6,0-7.4-0.7-11.4-2.1H125c-0.7,0.1-1.4,0.2-2.2,0.2c-1.8,0-3.6-0.3-5.4-1c-0.4-2.7-0.2-6,0.4-10
			l0.4-2.8l1.2-6.8c-1-1.9-1.4-4.3-1.2-7.2c1.7-2.1,2.8-4.9,3.2-8.3c0.2-2.4-0.3-4.8-1.6-7.2c0.4-1.1,1.1-2.1,2-3.2l0.4-0.8
			c0.8-1.1,1.6-2.5,2.4-4.4l0.8-1.2c0.9,0,1.9,0.1,3.2,0.4h1.2l2.8,0.4l0.8,0.4l1.2-0.4h1.2h3.2L141.4,27.3 M141.4,23.1l-1.3,0.4
			l-1.8,0.6h-2.5h-1.2h-0.7l-0.3,0.1l-0.5-0.1l-2.8-0.4l-0.3,0h-0.3H129c-1.4-0.3-2.5-0.4-3.6-0.4h-2.2l-1.2,1.8l-0.8,1.2l-0.2,0.3
			l-0.1,0.3c-0.7,1.6-1.3,2.8-1.9,3.6l-0.2,0.3l-0.2,0.3l-0.2,0.3c-1,1.3-1.8,2.6-2.4,4l-0.6,1.7l0.8,1.6c0.9,1.7,1.3,3.3,1.2,4.9
			c-0.3,2.6-1.1,4.7-2.3,6.2l-0.8,1l-0.1,1.3c-0.2,3,0.2,5.6,1,7.9l-1,5.6l0,0.1l0,0.1l-0.4,2.8c-0.7,4.4-0.8,8-0.4,11.1l0.3,2.4
			l2.3,0.8c2.2,0.8,4.5,1.2,6.7,1.2c0.8,0,1.6-0.1,2.5-0.2h0.3c4.2,1.4,8.3,2.1,12.1,2.1c1,0,1.9,0,2.9-0.1l2-0.2l1-1.7
			c1.3-2.3,2.1-4.5,2.1-6.7l0.1-2.2l-1.8-1.3c-1.6-1.2-2.8-2.5-3.4-3.9l-0.9-2.1l-2.3-0.3l-2.8-0.3c-1-0.3-1.9-0.6-2.7-0.8l0.6-2.2
			l0.1-0.2h2h0.3l0.3,0c1.1-0.2,2-0.2,2.9-0.2c0.8,0,1.5,0.1,2,0.2l1.1,0.2l1.1-0.4c4.8-1.7,10.4-4.4,10.4-9.2
			c0-5.3-6.6-7.7-9.1-8.6l-1.5-0.5l-1.4,0.6l-1.3,0.5h0l-4-0.8l-0.2,0l0.2-2.7h2.1h0.5l0.5-0.1c3.4-0.8,6.2-1.3,8.4-1.5l2-0.1
			l1.1-1.6c2.5-3.7,2.2-6.7,1.6-8.6c-1.1-3.2-3.9-5.6-8.8-7.4L141.4,23.1L141.4,23.1z"/>
	</g>
	<g>
		<path class="st1" d="M189.4,94.1l-5.8-3.8l-0.9-0.3l-1.6-0.6l-0.7-0.8l-0.8-0.3l-2.8-2l-1.4-0.4l-1.7-1l-0.1-0.1
			c-1.1-0.8-2.5-1.5-4.2-2.2l-0.3-0.1l-1.6-1.3l-1.9-1.1l-2.1-1l-1.5-1.7l-1.7-0.9l-0.1-0.2c-0.3,1-0.5,2-0.7,3.2l0,0.2l-0.6,1.3
			l-0.2,0.2c-0.4,0.5-0.8,1.2-1.2,2l-0.4,0.9l-0.9,0.3c-0.7,0.2-1.4,0.3-2.1,0.3c-1.2,0-2.3-0.3-3.5-0.8l-0.9-0.4l-0.1-0.6l-0.9-0.6
			l0-1.1c0.1-2.3-0.1-5.2-0.3-8.7l0-0.1v-5.5l-0.2-0.7c-0.9-1.5-1.4-3.3-1.6-5.5l-0.1-0.7l0.4-0.6c1.1-1.6,1.9-3.7,2.5-6.3
			c-1.7-10.8-1-18.3,2.3-22.8c1.9-2.6,4.6-4.2,7.9-4.8l0.1,0l0.7,0c6.8,0,13.6,2.5,20.3,7.3l0.5,0.3l0.2,0.6
			c4,10.5-0.8,19.4-14.5,26.5l0.1,0.2c1,2,2.7,3.9,4.8,5.4l2.1,1.6l0.6,0.3l1,0.5l0.3,0.3c1.3,1.6,3.1,2.9,5.3,3.9l0.1,0l1.1,0.6
			l0.6,0.7l1.9,0.7l2.3,1.8l1.7,1l0.3,0.4c0.6,0.8,1.4,1.6,2.6,2.2l0.5,0.3l0.3,0.5c0.4,0.8,1.1,1.5,2,2.3l0.9,0.7l1.4,0.8l0.1,0.5
			l0.6,0.4l0.1,0.4l0.8,0.6v4.5l-2.8,4.5L189.4,94.1z M162.9,41.8c0.6-0.4,1-0.7,1.2-0.9c-0.2-0.1-0.5-0.3-1-0.5L162.9,41.8z"/>
		<path class="st2" d="M160.6,27.5c6.4,0,12.8,2.3,19.1,6.9c3.9,10-1.5,18.4-16.1,25.3l1.8,1.6c1.2,2.3,3,4.3,5.3,6.1L173,69
			l0.7,0.4l0.7,0.4c1.5,1.9,3.5,3.4,6.1,4.5l0.7,0.4l0.7,0.8l2.1,0.8l2.1,1.6l0.7,0.4l0.7,0.4c0.7,1.1,1.8,2,3.2,2.8
			c0.5,1,1.4,1.9,2.5,2.8l1.1,0.8l0.7,0.4c0.1,0.3,0.3,0.5,0.7,0.8c0.1,0.3,0.3,0.5,0.7,0.8v2.8l-1.8,2.8l-4.6-0.8l-5.7-3.7
			l-1.1-0.4l-1.1-0.4l-0.7-0.8l-1.1-0.4l-2.8-2l-1.4-0.4l-1.4-0.8c-1.2-0.9-2.8-1.7-4.6-2.4l-1.4-1.2l-2.1-1.2l-1.8-0.8l-1.4-1.6
			l-1.4-0.8l-1.8-3.7c-1.1,1.9-2,4.5-2.5,7.7l-0.4,0.8c-0.5,0.7-1,1.5-1.4,2.4c-0.5,0.1-1.1,0.2-1.6,0.2c-0.9,0-1.8-0.2-2.7-0.6
			c-0.1-0.3-0.3-0.5-0.7-0.8c0.1-2.4-0.1-5.4-0.4-9v-5.7l-0.4-1.2c-0.8-1.2-1.3-2.9-1.4-4.9c1.3-1.9,2.2-4.4,2.8-7.3
			c-2.6-15.8,0.3-24.3,8.6-25.7C160.3,27.5,160.5,27.5,160.6,27.5 M160.5,45.3c7.4-3.3,7.7-5.8,1.1-7.5l-1.1,6.4V45.3 M160.6,23.5
			c-0.2,0-0.4,0-0.5,0l-0.3,0l-0.3,0c-3.9,0.6-7,2.5-9.3,5.6c-3.6,5-4.5,12.8-2.8,23.9c-0.5,2.1-1.2,3.9-2.1,5.2l-0.8,1.2l0.1,1.4
			c0.2,2.4,0.8,4.5,1.7,6.2l0.1,0.2v5.2v0.2l0,0.2c0.3,3.4,0.4,6.3,0.3,8.5l-0.1,2.2l1.1,0.7l0.2,0.8l1.9,0.8c1.4,0.6,2.9,1,4.3,1
			c0.9,0,1.8-0.1,2.7-0.4l1.8-0.5l0.8-1.7c0.3-0.6,0.6-1.2,0.9-1.6l0.3-0.4l0.2-0.5l0.4-0.8l0.2-0.4l0.1-0.3l0.2,0.2l0.6,0.6
			l0.8,0.4l1.6,0.8l1.7,0.9l1.1,1l0.5,0.4l0.6,0.2c1.5,0.6,2.8,1.2,3.7,1.9l0.2,0.1l0.2,0.1l1.4,0.8l0.4,0.3l0.5,0.1l0.8,0.2
			l2.3,1.6l0.4,0.3l0.5,0.2l0.1,0l0,0l0.7,0.8l0.9,0.4l1.1,0.4l0.1,0l0.1,0l0.6,0.2l5.3,3.4l0.7,0.4l0.8,0.1L194,97l2.7,0.5l1.4-2.3
			l1.8-2.8l0.6-1v-1.2v-2.8v-2.1l-1-0.7l-0.1-0.5l-0.6-0.4l-0.1-0.5l-1.5-0.9l-0.5-0.3l-0.8-0.6c-0.7-0.6-1.2-1.1-1.5-1.7l-0.5-1
			l-1-0.6c-0.9-0.5-1.5-1-1.9-1.6l-0.5-0.8l-0.8-0.5l-0.7-0.4l-0.5-0.3l-1.9-1.5l-0.5-0.4l-0.6-0.2l-1.2-0.4l0,0l-0.5-0.5l-0.6-0.3
			l-0.7-0.4l-0.1-0.1l-0.2-0.1c-1.9-0.9-3.5-2-4.6-3.4l-0.5-0.6l-0.7-0.4l-0.6-0.3l-0.4-0.2l-1.9-1.5l0,0l0,0
			c-1.3-1-2.4-2.1-3.3-3.3c9.9-5.7,18.7-14.7,13.5-28l-0.4-1.1l-1-0.7C175.1,26.1,167.9,23.5,160.6,23.5L160.6,23.5z"/>
	</g>
	<g>
		<path class="st1" d="M211.1,83.5c-2.7,0-5.7-0.2-8.6-0.6l-3.2-0.4l1.8-2.7c1-1.4,2.5-2.8,4.4-4l0.3-0.2l0.3-0.1
			c1.9-0.5,4.2-1.4,6.8-2.9l0.6-0.3l0.1-0.1l0.7-0.2c1.9-0.4,4-1.3,6.2-2.8l0.2-0.2l0.3-0.1c3.9-1.2,7.7-3.5,11.1-6.8
			c-0.1-0.5-0.4-0.9-0.8-1.3c-13.3-2.7-21-8.6-22.8-17.5l-0.1-0.3l0-0.3c1-10.3,8.2-16.2,21.3-17.5l0.1,0l0.1,0
			c4.6,0.1,7.3,1.3,8.5,3.6c1.2,2.4,0.3,5.5-2.7,9.5l-0.7,1l-1.2-0.2c-0.9-0.1-1.8-0.2-2.7-0.2c-3.5,0-6.3,1.2-8.6,3.6
			c0.4,0.4,0.8,0.8,1.3,1.2c10.7,2.3,17.2,6,20.1,11.3c2.1,3.8,2.1,8.3,0.1,13.4l-0.1,0.3l-0.2,0.2
			C235.9,78.7,224.9,83.5,211.1,83.5z"/>
		<path class="st2" d="M229.9,27.4c7.6,0.2,9,3.5,4.2,10c-1-0.2-2-0.2-3-0.2c-4.6,0-8.4,1.9-11.2,5.6c0.7,1.1,1.7,2.1,3.1,3.1
			c17.2,3.6,23.6,11,19.1,22.2c-7.4,9-17.8,13.6-31.1,13.6c-2.7,0-5.5-0.2-8.4-0.6c0.8-1.2,2.1-2.4,3.8-3.4c2.1-0.5,4.6-1.5,7.3-3.1
			c0,0,0.1,0,0.1,0c0.2,0,0.4-0.1,0.7-0.4c2.2-0.5,4.5-1.5,6.9-3.1c4.6-1.4,8.8-4.1,12.6-8c-0.1-1.4-0.7-2.7-1.9-3.8
			c-12.9-2.5-20.1-7.9-21.8-16.1C211.3,33.8,217.8,28.6,229.9,27.4 M229.7,23.4l-0.2,0c-17.7,1.8-22.3,11.5-23.1,19.3l-0.1,0.6
			l0.1,0.6c1.9,9.3,9.4,15.5,22.3,18.6c-2.7,2.2-5.5,3.8-8.4,4.7l-0.5,0.2l-0.5,0.3c-2,1.3-3.9,2.1-5.5,2.5l-0.7,0.1l0,0l0,0
			l-0.6,0.1l-0.3,0.4l-0.2,0.1c-2.4,1.3-4.5,2.2-6.3,2.7l-0.6,0.2l-0.6,0.3c-2.2,1.4-3.9,2.9-5,4.6l-3.7,5.4l6.5,0.8
			c3.1,0.4,6.1,0.6,8.9,0.6c14.5,0,26-5.1,34.1-15l0.4-0.5l0.2-0.6c2.2-5.7,2.2-10.8-0.2-15.1c-3-5.5-9.4-9.5-19.6-11.9
			c1.5-0.9,3.1-1.3,5-1.3c0.7,0,1.5,0.1,2.4,0.2l2.4,0.4l1.4-1.9c1.3-1.7,5.2-6.9,2.9-11.6c-2.2-4.5-8.2-4.7-10.2-4.7L229.7,23.4
			L229.7,23.4z"/>
	</g>
	<g>
		<path class="st1" d="M259.4,82l-8-2.1l-1.4-0.5l-0.8-0.4l-1-0.3l-4.7-1.7l-2.6-2l0-1c0.2-4.7,2.5-8.3,6.9-10.7l2.7-1.5l0.2,3.1
			c0,0.5,0.1,1.4,2.7,1.4c0.7,0,1.6-0.1,2.6-0.2c0.2-1.5,0.4-3.4,0.5-5.4l0-0.4l0.4-0.8l0.4-3.8l0.4-1.2l0.8-6.7l0.8-2.3
			c0.1-1.6,0.4-3.3,0.8-5.3c-1.6,0.3-3.3,0.8-5.1,1.6l-0.4,0.2h-3.2l-0.3-1.6c-0.2-1.2-0.7-2.5-1.4-3.8l-0.2-0.4l0-0.5
			c-0.1-3.8,1.3-7,4.2-9.7l0.8-0.8l1.1,0.3c1.9,0.5,4,0.8,6.4,0.8c0.6,0,1.3,0,1.9-0.1l0.3,0l1.6,0.4h3.8l0.9,0.5
			c0.4,0.1,0.8,0.1,1.3,0.1c0.6,0,1.2,0,1.8-0.1l0.3,0l4.8,0.9l1.9,0.6l0.4,0.5c1,1.2,1.9,2.7,2.9,4.6l0.2,0.4l0,0.4
			c0.2,2.3-0.4,4.3-1.8,5.8c-1.8,1.9-4.8,2.9-9,3.1l-1,6.5l-0.3,0.6v0.9l-0.4,1.7l-0.4,4.3l-0.4,1.5v1.6l-0.5,1.4l-0.3,1.3v1.1
			l-0.4,2v1.6l-0.2,1c1.5,2.4,3.9,4.6,7.1,6.4l1.3,0.7l-0.3,1.4c-0.3,1.2-0.7,2.5-1.3,3.9l-0.3,0.8l-0.8,0.3c-1.7,0.6-3.7,1-5.9,1
			c-0.6,0-1.2,0-1.8-0.1l-2.5,0.4l-5.7,0.7L259.4,82z"/>
		<path class="st2" d="M255.1,27.4c2,0.6,4.4,0.8,7,0.8c0.7,0,1.3,0,2-0.1l1.6,0.4h1.2h1.2h1.2L270,29c0.6,0.1,1.2,0.1,1.9,0.1
			c0.7,0,1.3,0,2.1-0.1l4.3,0.8l1.2,0.4c0.9,1.1,1.8,2.5,2.7,4.3c0.3,4.5-2.9,6.7-9.7,6.7c-0.3,0-0.6,0-0.9,0l-1.2,7.8l-0.4,0.8v1.2
			l-0.4,1.6l-0.4,4.3l-0.4,1.6V60l-0.4,1.2l-0.4,1.6v1.2l-0.4,2v1.6l-0.4,1.6c1.7,3,4.4,5.6,8.2,7.8c-0.2,1.1-0.6,2.3-1.2,3.5
			c-1.5,0.6-3.2,0.8-5.2,0.8c-0.6,0-1.2,0-1.8-0.1l-2.7,0.4l-3.1,0.4c0.1-0.6-0.1-1.1-0.4-1.6l-9-2.3l-1.2-0.4l-0.8-0.4l-1.2-0.4
			l-4.3-1.6l-1.6-1.2c0.1-4,2.1-7,5.9-9c0.2,2.2,1.7,3.3,4.7,3.3c1.2,0,2.6-0.2,4.3-0.5c0.4-1.9,0.7-4.2,0.8-7L259,60l0.4-3.9
			l0.4-1.2l0.8-6.7l0.8-2.3c0.1-1.9,0.5-4.1,1.2-6.7V38c-2.5,0-5.2,0.7-8.2,2h-1.2c-0.3-1.4-0.8-2.8-1.6-4.3
			C251.5,32.5,252.7,29.8,255.1,27.4 M254,23l-1.6,1.5c-3.3,3.1-5,7-4.8,11.3l0,0.9l0.4,0.8c0.6,1.1,1,2.2,1.2,3.2l0.6,3.2h3.3h1.2
			h0.8l0.8-0.3c0.6-0.3,1.1-0.5,1.7-0.7c-0.1,0.7-0.2,1.5-0.2,2.1l-0.6,1.8l-0.1,0.4l0,0.4l-0.7,6.2l-0.3,0.8l-0.2,0.5l0,0.5
			l-0.3,3.2L255,59l-0.4,0.7l0,0.8c-0.1,1.4-0.2,2.6-0.3,3.7c-0.3,0-0.5,0-0.8,0c-0.3,0-0.6,0-0.8,0l-0.4-5.7l-5.4,2.9
			c-5,2.7-7.8,7-8,12.4l-0.1,2.1l1.7,1.3l1.6,1.2l0.5,0.4l0.6,0.2l4.3,1.6l0.1,0l0.1,0l0.9,0.3l0.6,0.3l0.2,0.1l0.2,0.1l1.2,0.4
			l0.2,0.1l0.2,0l6.2,1.6l-0.3,3l5-0.6l3.1-0.4l0.1,0l0.1,0l2.3-0.3c0.6,0,1.1,0.1,1.7,0.1c2.5,0,4.7-0.4,6.6-1.1l1.6-0.6l0.7-1.5
			c0.7-1.5,1.1-2.9,1.4-4.3l0.6-2.8l-2.5-1.5c-2.6-1.5-4.6-3.2-6-5.1l0.1-0.4v-0.5v-1.1l0.3-1.6l0.1-0.4v-0.4v-0.7l0.2-0.9l0.3-1
			l0.2-0.6V60v-1l0.3-1.1l0.1-0.3l0-0.3l0.4-4l0.3-1.3l0.1-0.5v-0.5v-0.2l0.3-0.5l0.1-0.7l0.7-4.5c3.9-0.3,6.8-1.5,8.7-3.6
			c1.2-1.3,2.6-3.6,2.4-7.3l-0.1-0.8l-0.4-0.7c-1.1-2.1-2.1-3.7-3.2-5l-0.7-0.9l-1.1-0.4l-1.2-0.4l-0.3-0.1l-0.3,0l-4.3-0.8L274,25
			l-0.6,0.1c-0.5,0.1-1.1,0.1-1.5,0.1c-0.2,0-0.5,0-0.7,0L271,25l-0.8-0.4h-0.9H268h-1.2h-0.7l-1.1-0.3l-0.6-0.1l-0.6,0
			c-0.6,0-1.2,0-1.8,0c-2.2,0-4.2-0.2-5.9-0.7L254,23L254,23z"/>
	</g>
	<g>
		<path class="st1" d="M282.4,83.6l-0.4-0.2c-0.9-0.5-2-1.2-3.2-2.3l-0.6-0.5l-0.1-0.7c-0.4-2.5-0.4-5.5,0-8.9l0.1-0.5l0.3-0.4
			c0.7-0.9,1.6-1.7,2.8-2.4c0-2.3,0.4-4.8,1.1-7.5c0.1-1.4,0.3-3.2,0.7-5.4l0.7-6.5l0.4-7l0.3-4l-1.1-0.5l0.1-1.3
			c0.1-2.9,0.9-5.9,2.4-8.8l0.5-1l1.1-0.1c0.6-0.1,1.3-0.1,2-0.1c2.6,0,5.7,0.5,9.2,1.4l0.3,0.1l0.2,0.1l2.1-0.7l0.8,1.4
			c0.6,1,1.4,1.9,2.6,2.7l0.3,0.2l0.2,0.3c1.1,1.6,2.6,3.1,4.5,4.5l0.3,0.2l2.4,3.2c0.4,0.6,1.2,1.3,2.2,2.2l0.3,0.3l0.2,0.4
			c0.6,1.3,1.5,2.7,2.6,4.2l0.2,0.3l0.4,1.2l1,1.2l0,0.3l0.1,0.1l0.1,0.5c0.8,3,1,6.3,0.4,9.9C317.7,74,309.3,81.4,295,81.6
			c-0.8,0.2-1.8,0.5-2.9,1l-0.5,0.2l-0.5,0c-0.2,0-0.4,0-0.6,0c-0.9,0-1.8,0.1-2.8,0.4l-0.2,0.1h-2l-1.1,0.4H282.4z M295.2,63.8
			c2,1.8,3.8,2.8,5.4,2.8c2.1,0,4.1-1.6,6.1-4.7c0.7-8.8-2.3-14.8-9.2-18.1l-0.2,4.2l-0.3,0.8v2.4l-0.4,1.3c0,1.6-0.3,3.6-0.7,5.7
			v1.3l-0.1,0.3C295.5,60.8,295.3,62.2,295.2,63.8z"/>
		<path class="st2" d="M289.3,27.5c2.5,0,5.4,0.4,8.7,1.3l0.7,0.4l1.4-0.4c0.7,1.3,1.8,2.4,3.2,3.3c1.2,1.8,2.9,3.5,5.1,5l2.2,2.9
			c0.5,0.7,1.4,1.5,2.5,2.5c0.7,1.4,1.6,3,2.9,4.6l0.4,1.2l0.7,0.8c0,0.3,0.1,0.6,0.4,0.9c0.7,2.7,0.9,5.8,0.4,9.1
			c-2,13.5-9.7,20.3-23.1,20.4c-1.1,0.2-2.3,0.6-3.6,1.3c-0.2,0-0.5,0-0.7,0c-1.1,0-2.2,0.1-3.3,0.4h-1.1h-1.1l-1.1,0.4h-1.1
			c-0.8-0.4-1.7-1.1-2.9-2.1c-0.4-2.3-0.4-5.1,0-8.3c0.7-1,1.8-1.8,3.2-2.5c-0.2-2.5,0.2-5.3,1.1-8.3c0-1.4,0.3-3.2,0.7-5.4l0.7-6.7
			l0.4-7.1l0.4-4.6c-0.3-0.6-0.6-1-1.1-1.3c0.1-2.6,0.8-5.2,2.2-7.9C288.1,27.5,288.7,27.5,289.3,27.5 M300.6,68.5
			c2.9,0,5.6-2,8.1-6c1-11-3.3-18.3-13-21.6l-0.4,6.7l-0.4,0.8v1.3v1.2l-0.4,1.3c0,1.6-0.2,3.6-0.7,5.8v1.2
			c-0.4,1.5-0.7,3.3-0.7,5.4C295.8,67.2,298.3,68.5,300.6,68.5 M289.3,23.5c-0.7,0-1.5,0-2.2,0.1l-2.2,0.2l-1,1.9
			c-1.7,3.2-2.6,6.4-2.6,9.7l-0.1,2.6l1,0.5l-0.2,2.5l0,0l0,0l-0.4,7l-0.7,6.4c-0.4,2.1-0.7,3.9-0.8,5.4c-0.7,2.3-1,4.6-1.1,6.7
			c-0.9,0.7-1.7,1.5-2.4,2.3l-0.7,0.9l-0.1,1.1c-0.4,3.6-0.4,6.7,0,9.5l0.2,1.4l1.1,0.9c1.4,1.2,2.5,2,3.6,2.6l0.9,0.5h1h1.1h0.7
			l0.7-0.3l0.4-0.2h0.4h1.1h0.5l0.5-0.1c0.8-0.2,1.5-0.3,2.3-0.3c0.2,0,0.3,0,0.5,0l1.1,0.1l1-0.5c1-0.5,1.7-0.7,2.2-0.8
			c15.2-0.2,24.4-8.5,26.7-23.8c0.6-3.9,0.4-7.5-0.5-10.8l-0.1-0.4l0.1-0.7l-1.2-1.4l-0.2-0.2l-0.1-0.4l-0.2-0.7l-0.4-0.6
			c-1.1-1.4-1.9-2.7-2.4-3.8l-0.4-0.8l-0.7-0.6c-1.2-1-1.7-1.6-1.9-1.9l-2.1-2.9l-0.4-0.5l-0.5-0.4c-1.7-1.2-3.1-2.5-4-3.9l-0.5-0.7
			l-0.7-0.4c-0.9-0.6-1.5-1.2-1.9-2l-1.6-2.8l-3,0.9l-0.1,0C295.4,24,292.1,23.5,289.3,23.5L289.3,23.5z M299,49.2L299,49.2l0.3-0.7
			l0-0.7l0-0.6c4.1,3,5.8,7.6,5.4,14c-1,1.5-2.6,3.3-4.2,3.3c-0.9,0-2.1-0.6-3.3-1.6c0.1-1,0.2-1.9,0.5-2.6l0.2-0.5v-0.6v-0.8
			c0.4-2.1,0.7-4,0.7-5.7l0.2-0.8l0.1-0.5v-0.5v-1.2V49.2L299,49.2z"/>
	</g>
	<g>
		<path class="st1" d="M340.1,83.9c-3.7,0-7.7-0.7-11.8-2.1h-0.7c-0.8,0.1-1.5,0.2-2.3,0.2c-2,0-4-0.4-6-1.1l-1.2-0.4l-0.2-1.2
			c-0.4-2.8-0.2-6.4,0.4-10.5l0.4-2.8l1.1-6.2c-0.9-2.1-1.3-4.6-1.1-7.5l0-0.7l0.4-0.5c1.5-1.8,2.4-4.2,2.7-7.3c0.2-2-0.3-3.9-1.4-6
			l-0.4-0.8l0.3-0.8c0.5-1.2,1.2-2.4,2.2-3.6l0.3-0.7l0.1-0.2c0.7-0.9,1.4-2.3,2.2-4l0.1-0.2l1.5-2.2h1.1c1,0,2.1,0.1,3.4,0.4h1.1
			l3.3,0.4l0.3,0.2l0.7-0.2h4.4l2.8-0.9l0.6,0.2c4.2,1.5,6.7,3.5,7.5,6.1c0.7,2.1,0.2,4.4-1.4,6.8l-0.5,0.8l-1,0.1
			c-2.4,0.1-5.3,0.7-8.8,1.5l-0.2,0.1h-3.2l-1.1,0.3l-0.3,6.1l2,0.4l4.2,0.8h0.6l2.4-1l0.7,0.3c3.4,1.2,7.8,3.3,7.8,6.8
			c0,2.8-2.8,5.1-9,7.4l-0.5,0.2l-0.6-0.1c-0.7-0.2-1.5-0.2-2.5-0.2c-1,0-2,0.1-3.2,0.3l-0.1,0h-2.9l-0.8,0.4h-0.2l-0.4,1.3
			l-0.7,2.9v1.4c1.3,0.3,2.8,0.7,4.4,1.2l4.1,0.5l0.5,1c0.8,1.8,2.2,3.4,4.1,4.8l0.9,0.6l0,1.1c-0.1,1.8-0.7,3.8-1.9,5.7l-0.5,0.9
			l-1,0.1C341.9,83.9,341,83.9,340.1,83.9z"/>
		<path class="st2" d="M343.8,27.3c6.3,2.3,8.1,5.6,5.2,10c-2.5,0.2-5.5,0.7-9.2,1.6h-3.2l-1.6,0.4l-1.2,0.4l-0.4,7.2l-0.4,0.8v1.2
			l4,0.8l4.4,0.8h1.2l2-0.8c9.1,3.3,8.7,6.8-1.2,10.4c-0.9-0.2-1.8-0.3-2.9-0.3c-1.1,0-2.2,0.1-3.5,0.3h-3.2l-0.8,0.4h-1.2l-0.8,2.8
			l-0.8,3.2v1.2l-0.4,0.8v1.2c1.7,0.3,3.9,0.8,6.3,1.6l3.2,0.4c0.9,2.1,2.5,4,4.8,5.6c-0.1,1.5-0.6,3.1-1.6,4.8
			c-0.8,0.1-1.7,0.1-2.5,0.1c-3.6,0-7.4-0.7-11.4-2.1h-1.2c-0.7,0.1-1.4,0.2-2.2,0.2c-1.8,0-3.6-0.3-5.4-1c-0.4-2.7-0.2-6,0.4-10
			l0.4-2.8l1.2-6.8c-1-1.9-1.4-4.3-1.2-7.2c1.7-2.1,2.8-4.9,3.2-8.3c0.2-2.4-0.3-4.8-1.6-7.2c0.4-1.1,1.1-2.1,2-3.2l0.4-0.8
			c0.8-1.1,1.6-2.5,2.4-4.4l0.8-1.2c0.9,0,1.9,0.1,3.2,0.4h1.2l2.8,0.4l0.8,0.4l1.2-0.4h1.2h3.2L343.8,27.3 M343.9,23.1l-1.3,0.4
			l-1.8,0.6h-2.5H337h-0.7l-0.3,0.1l-0.5-0.1l-2.8-0.4l-0.3,0h-0.3h-0.8c-1.4-0.3-2.5-0.4-3.6-0.4h-2.2l-1.2,1.8l-0.8,1.2l-0.2,0.3
			l-0.1,0.3c-0.7,1.6-1.3,2.8-1.9,3.6l-0.2,0.3l-0.2,0.3l-0.2,0.3c-1,1.3-1.8,2.6-2.4,3.9l-0.6,1.7l0.8,1.6c0.9,1.7,1.3,3.3,1.2,4.9
			c-0.3,2.6-1.1,4.7-2.3,6.2l-0.8,1l-0.1,1.3c-0.2,3,0.2,5.6,1,7.9l-1,5.6l0,0.1l0,0.1l-0.4,2.8c-0.7,4.4-0.8,8-0.4,11.1l0.3,2.4
			l2.3,0.8c2.2,0.8,4.5,1.2,6.7,1.2c0.8,0,1.6-0.1,2.5-0.2h0.3c4.2,1.4,8.3,2.1,12.1,2.1c1,0,1.9,0,2.9-0.1l2-0.2l1-1.7
			c1.3-2.3,2.1-4.5,2.1-6.7l0.1-2.2l-1.8-1.3c-1.6-1.2-2.8-2.5-3.4-3.9l-0.9-2.1l-2.3-0.3l-2.8-0.3c-1-0.3-1.9-0.6-2.7-0.8l0.6-2.2
			l0.1-0.2h2h0.3l0.3,0c1.1-0.2,2-0.2,2.9-0.2c0.8,0,1.5,0.1,2,0.2l1.1,0.2l1.1-0.4c4.8-1.7,10.4-4.4,10.4-9.2
			c0-5.3-6.6-7.7-9.1-8.6l-1.5-0.5l-1.4,0.6l-1.3,0.5h0l-4-0.8l-0.2,0l0.2-2.7h2.1h0.5l0.5-0.1c3.4-0.8,6.2-1.3,8.4-1.5l2-0.1
			l1.1-1.6c2.5-3.7,2.2-6.7,1.6-8.6c-1.1-3.2-3.9-5.6-8.8-7.4L343.9,23.1L343.9,23.1z"/>
	</g>
</g>
<g>
	<g>
		<g>
			<path class="st3" d="M9,22.7l0.1-1.6c0.1-1.7,0.2-3.6,0.2-5.7c0-0.9,0-1.9,0-3c-0.6,0.1-3.6,0.5-3.6,0.5l-0.3-1.3
				c0-0.1,0-0.1-0.4-2.4L4.6,7.6l1.5-0.2C8.8,7,12.3,6.1,16.6,5l1.5-0.4l0.4,1.5c0.1,0.4,0.1,1,0.1,1.8c0,0.7,0.1,1,0.1,1.1l0.4,1.4
				l-1.4,0.5c-1,0.3-2,0.6-3.1,0.8l-0.1,5c0,1.5,0.1,2.9,0.2,4.2l0.2,1.6h-1.7c-0.1,0-0.4,0-1,0.1c-0.7,0.1-1.2,0.2-1.6,0.2H9z"/>
			<path class="st4" d="M17,6.4c0.1,0.3,0.1,0.8,0.1,1.4c0,0.7,0.1,1.2,0.1,1.5c-1.2,0.4-2.6,0.7-4.1,1L13,16.5c0,1.6,0.1,3,0.2,4.3
				c-0.3,0-0.7,0.1-1.3,0.2c-0.6,0.1-1,0.2-1.3,0.2c0.1-1.8,0.2-3.7,0.2-5.8c0-1.4,0-3-0.1-4.7c-0.7,0.1-2,0.3-3.9,0.5
				c0,0-0.1-0.8-0.4-2.3C9.1,8.4,12.6,7.6,17,6.4 M19.2,2.7l-3,0.8C12,4.7,8.5,5.5,5.9,5.9l-3,0.5l0.5,3c0.4,2.4,0.4,2.4,0.5,2.6
				l0.7,2.6l2.6-0.3c0.2,0,0.4-0.1,0.6-0.1c0,0.5,0,0.9,0,1.3c0,2-0.1,3.9-0.1,5.6l-0.2,3.2h3.2c0.5,0,1.1-0.1,1.8-0.2
				c0.5-0.1,0.7-0.1,0.7-0.1h3.3l-0.3-3.3C16,19.4,16,18,16,16.6l0.1-3.7c0.8-0.2,1.5-0.4,2.1-0.6l2.7-0.9l-0.8-2.7c0,0,0,0,0,0
				c0,0,0-0.2,0-0.7c0-0.9-0.1-1.6-0.2-2.1L19.2,2.7L19.2,2.7z"/>
		</g>
		<g>
			<path class="st3" d="M26.4,22l0.1-1.6c0-0.4,0.1-1,0.1-1.7c-0.9,0.1-1.9,0.2-3.2,0.4c0,0.3,0.1,0.6,0.1,0.9l0.2,1.7H22
				c-0.1,0-0.4,0-1,0.1C20.3,22,19.8,22,19.4,22h-1.6l0.1-1.6c0.1-1.7,0.2-3.5,0.2-5.5c0-1.7-0.1-4.2-0.2-7.6l-0.1-1.6h1.6
				c0.1,0,0.3,0,1-0.2c0.7-0.2,1.2-0.2,1.6-0.2h1.5V7c0,1,0,2.4-0.1,4.4c0,0.9-0.1,1.7-0.1,2.4c1-0.2,2.1-0.4,3.4-0.7l-0.2-7.2H28
				c0.1,0,0.4,0,1.2-0.2C30,5.5,30.6,5.5,31,5.5h1.5V7c0,1,0,2.5-0.1,4.5c-0.1,2-0.1,3.4-0.1,4.4c0,1.6,0.1,3,0.2,4.2l0.2,1.7H31
				c-0.1,0-0.5,0-1.3,0.1C29,22,28.4,22,28,22H26.4z"/>
			<path class="st4" d="M31,7c0,1,0,2.5-0.1,4.4c-0.1,2-0.1,3.4-0.1,4.4c0,1.6,0.1,3.1,0.2,4.4c-0.3,0-0.8,0.1-1.5,0.2
				c-0.7,0.1-1.2,0.2-1.5,0.2c0.1-0.8,0.1-2,0.2-3.6c-1.1,0.2-3.2,0.5-6.4,0.8c0,0.9,0.1,1.7,0.2,2.4c-0.3,0-0.7,0.1-1.3,0.2
				c-0.6,0.1-1,0.2-1.3,0.2c0.1-1.7,0.2-3.6,0.2-5.6c0-1.7-0.1-4.2-0.2-7.6c0.3,0,0.7-0.1,1.3-0.2C21.3,7,21.7,7,22,7
				c0,1,0,2.4-0.1,4.3c-0.1,1.9-0.1,3.3-0.1,4.3c1.5-0.3,3.7-0.7,6.4-1.4L28,7.4c0.3,0,0.8-0.1,1.5-0.2C30.2,7,30.7,7,31,7 M34,4h-3
				c-0.5,0-1.2,0.1-2.1,0.3C28.3,4.4,28,4.4,28,4.4h-3V4h-3c-0.5,0-1.2,0.1-2,0.3c-0.5,0.1-0.7,0.1-0.7,0.1h-3.1l0.1,3.1
				c0.1,3.3,0.2,5.9,0.2,7.5c0,1.9-0.1,3.7-0.2,5.4l-0.2,3.2h3.2c0.5,0,1.1-0.1,1.8-0.2c0.6-0.1,0.8-0.1,0.8-0.1h2.8l0,0.3H28
				c0.5,0,1.1-0.1,2-0.2c0.7-0.1,1-0.1,1-0.1h3.4L34,19.9c-0.1-1.2-0.2-2.5-0.2-4c0-0.9,0-2.4,0.1-4.3C34,9.5,34,8,34,7V4L34,4z
				 M24.9,11.9c0-0.2,0-0.3,0-0.5C25,9.4,25,8,25,7V6.7l0,0.7l0.1,4.4C25.1,11.9,25,11.9,24.9,11.9L24.9,11.9z"/>
		</g>
		<g>
			<path class="st3" d="M37.2,22.8c-1.7,0-4.3-0.7-5-4.9l0,0L31.3,13l1-0.2c0-0.4,0.3-2.4,0.3-2.4c0-0.1-0.1-0.6-0.4-1.9l-0.3-1.5
				l1.5-0.3c3-0.5,6.5-1.3,10.4-2.4l1.5-0.4l0.4,1.5c0.1,0.4,0.1,1,0.2,1.7c0,0.7,0.1,1,0.1,1.1l0.4,1.4L45,10.1
				c-0.3,0.1-0.5,0.2-0.9,0.3l0.2,0.8c0.1,0.4,0.1,0.9,0.2,1.7c0,0.7,0.1,1,0.1,1l0.1,0.3l0.7-0.4l0.5,1.7c0,0.1,0.1,0.3,0.5,0.9
				c0.4,0.6,0.6,1.1,0.7,1.5l0.4,1.2l-1.1,0.6C42.3,21.8,39.3,22.8,37.2,22.8z M37.1,17.2c0,0.1,0,0.2,0,0.3
				c0.3-0.1,0.7-0.2,1.6-0.5C38.1,17,37.6,17.1,37.1,17.2z"/>
			<path class="st4" d="M44.3,5.7c0.1,0.3,0.1,0.8,0.1,1.4c0,0.7,0.1,1.2,0.2,1.5c-1.7,0.6-4.3,1.1-8,1.5c-0.3,1.5-0.5,2.6-0.6,3.4
				c0.8-0.2,3.2-0.9,6.9-2.1c0.1,0.3,0.1,0.7,0.1,1.4c0,0.6,0,1.1,0.1,1.4c-1.7,0.6-4.2,1.2-7.5,1.7c0,0.4-0.1,0.8-0.1,1.1
				c0,1.3,0.4,2,1.3,2c0.9,0,3.5-1,7.7-3.1c0.1,0.3,0.3,0.7,0.6,1.2c0.3,0.5,0.5,0.9,0.6,1.2c-3.8,2-6.6,3-8.5,3
				c-2.4,0-3.6-1.7-3.6-5.1l-0.2,0l-0.4-2l0.7-0.1c0-0.3,0.1-1.2,0.3-2.7l0.1-0.8c0-0.2-0.1-1-0.4-2.3C36.7,7.6,40.3,6.8,44.3,5.7
				 M46.5,2l-3,0.8c-3.9,1.1-7.4,1.9-10.3,2.4l-3.1,0.5l0.7,3.1c0.2,0.9,0.3,1.4,0.3,1.6L31,10.9c0,0.2-0.1,0.4-0.1,0.6l-1.4,0.3
				l0.5,2.9l0.4,2l0.5,2.9l0.1,0c1.3,4.3,4.9,4.6,6.1,4.6c2.4,0,5.5-1,9.8-3.3l2.2-1.2l-0.8-2.4c-0.2-0.5-0.4-1.1-0.9-1.8
				c-0.3-0.4-0.3-0.6-0.3-0.6l-1-3.4L46,11.7c0-0.1,0-0.3,0-0.4l2.3-0.8l-0.8-2.7c0,0,0,0,0,0c0,0,0-0.2,0-0.7
				c0-0.9-0.1-1.5-0.2-2.1L46.5,2L46.5,2z"/>
		</g>
	</g>
</g>
</svg>
