<?xml version="1.0" encoding="utf-8"?>
<!-- Generator: Adobe Illustrator 19.2.1, SVG Export Plug-In . SVG Version: 6.00 Build 0)  -->
<svg version="1.1" id="Layer_1" xmlns="http://www.w3.org/2000/svg" xmlns:xlink="http://www.w3.org/1999/xlink" x="0px" y="0px"
	 viewBox="0 0 483.1 161.7" style="enable-background:new 0 0 483.1 161.7;" xml:space="preserve">
<style type="text/css">
	.st0{fill:#E2E2E1;stroke:#231F20;stroke-miterlimit:10;}
	.st1{fill:#E2E2E1;}
	.st2{fill:none;stroke:#232323;stroke-width:17;}
	.st3{fill:#FFFFFF;}
</style>
<g>
	<g>
		<path class="st0" d="M52.7,83.5l-0.5,0l-1,0.7l-1.8,1.4l-1.7,1.1l-1.7,1.1l-1.7,0.8l-2.6,1l-2.6,0.7l-3.9,0l-3.8-0.5l-3.2-1.2
			l-3-1.4L23,86l-1.8-1.6l-2.1-2.6l-1.3-2.9l-1.1-2.9l-1.7-5.7l-0.5-2.9l-0.2-2.9l0-2.9l0.3-2.9l0.6-3.1l0.8-3.1l1-3l2.3-4.9
			l1.2-1.6l1.4-1.5l1.3-1.3l1.7-1.7l1.8-1.1l2.7-1.4l2.7-0.8l3-0.8l3,0l3.5,0.5l3.7,1.2l2.2,1.2l2.1,1.5l2.1,2.2l1.3,1l1.3,0
			l1.8,0.3l1.9,1.3l1.9,1.9l0.8,2l-0.1,2.5l0.2,2.4l0.7,4.9l1.3,9.8l2.3,10l0,1.6l-0.7,1.5l-0.8,1.4l0.3,1.4l0.6,1.9l0.5,2l-0.1,1.4
			l-1.1,1.4l-1.5,1.1l-1.9,0.6l-2.1-0.1l-1.6-0.3L55.3,90l-1-1.6l-1.1-3.8L52.7,83.5z M28.7,66.4l-0.1,1.3l0.4,4.5l0.5,2l0.9,2
			l1,1.7l1.4,1.3l1.8,0.6l2.1-0.1l2.5-0.8l2.5-1.2l2.1-1.7l1.1-1.5l1-1.5L47,71l0.7-2.1l0.7-3.4l0.3-3.3l-0.4-5.1L48,54.8l-0.6-2.4
			l-0.9-1.9L45.3,49l-1.4-0.7l-1.7,0l-3.1,1l-1.9,1l-1.8,1.3l-1.9,2l-2.9,5.3l-0.6,2.5l-0.8,5.2l-0.2,0L28.7,66.4z"/>
		<path class="st0" d="M91.4,89.2l-0.9,0.5l-1,0.1l-1.8-0.3L86.6,89L86,88.1L85.9,87l-0.6-1l-1-0.7l-1.1-0.6L82,83.6l-1.3-2.1
			l-4.9-29.7l-0.7-0.6l-1,0l-3.8,0.3l-3.7,0.1l-1.4,0l-1.4-0.8l-1.5-1.3l-0.9-1.6L61,46.2l-1.1-2.3l-0.2-2.1l0.3-1.1l0.7-0.9
			l1.1-0.4l40.4-5.6l1.2,0.6l0.8,1l0.7,0.8l1,0.2l1.3,0.5l1,0.8l0.6,1.3l0.4,2.1l-0.3,2.1l-0.6,1.6l-1,1.1l-1.2,0.3l-11.6,1.6
			l-0.5,0.8l-0.3,1l-1.3,29.9l0.5,1.4l1,1.3l0.4,1.1l-0.3,1l-1,0.7l-1.1,0.7l-0.5,1l-0.1,1.2L91.4,89.2z"/>
		<path class="st0" d="M141.5,85.6l-0.9,0.5l-1,0.1l-1.8-0.3l-1.1-0.5l-0.5-0.9l-0.1-1.1l-0.6-1l-1-0.7l-1.1-0.6l-1.1-1.2l-1.3-2.1
			l-5-29.7l-0.7-0.6l-1,0l-3.8,0.3l-3.7,0.1l-1.4,0l-1.4-0.8l-1.5-1.3l-0.9-1.6l-0.4-1.6l-1.1-2.3l-0.2-2.1l0.3-1.1l0.7-0.9l1.1-0.3
			l40.4-5.6l1.2,0.6l0.8,1l0.7,0.8l1,0.2l1.3,0.5l1,0.8l0.6,1.3l0.4,2.1l-0.3,2.1l-0.6,1.6l-0.9,1.1l-1.2,0.3l-11.6,1.6l-0.5,0.8
			l-0.3,1l-1.3,29.9l0.5,1.4l1,1.3l0.4,1.1l-0.3,1l-1,0.7l-1.1,0.7l-0.6,1l-0.1,1.2L141.5,85.6z"/>
		<path class="st0" d="M193.2,72.1l-0.4,0l-0.9,0.6l-1.6,1.2l-1.5,1l-1.5,0.9l-1.5,0.7l-2.3,0.9l-2.2,0.6l-3.4,0l-3.3-0.4l-2.8-1
			l-2.6-1.2l-1.9-1.2l-1.6-1.4l-1.8-2.2l-1.1-2.5l-0.9-2.5l-1.5-4.9l-0.5-2.5l-0.2-2.5l0-2.6l0.2-2.5l0.5-2.7l0.7-2.7l0.8-2.6l2-4.3
			l1-1.4l1.2-1.3l1.2-1.1l1.5-1.5l1.6-1l2.3-1.2l2.4-0.7l2.6-0.7l2.6,0l3.1,0.5l3.2,1.1l1.9,1l1.8,1.4l1.9,2l1.2,0.9l1.1,0l1.6,0.2
			l1.7,1.2l1.6,1.7l0.7,1.7l-0.1,2.2l0.1,2.1l0.6,4.3l1.1,8.5l2,8.7l0,1.4l-0.6,1.3l-0.7,1.2l0.3,1.3l0.5,1.6l0.5,1.7l-0.1,1.2
			l-0.9,1.2l-1.3,1L200,79l-1.9-0.1l-1.4-0.2l-1.2-1l-0.9-1.4l-0.9-3.3L193.2,72.1z M172.3,57.2l-0.1,1.2l0.4,3.9l0.4,1.7l0.7,1.8
			l0.9,1.5l1.2,1.1l1.6,0.6l1.8-0.1l2.2-0.7l2.2-1.1l1.8-1.5l0.9-1.3l0.9-1.3l1-1.8l0.6-1.8l0.6-2.9l0.3-2.8l-0.3-4.4l-0.4-2.1
			l-0.5-2.1l-0.8-1.7l-1.1-1.2l-1.2-0.6l-1.5,0l-2.7,0.9l-1.7,0.9l-1.6,1.1l-1.7,1.8l-2.5,4.6l-0.5,2.2l-0.7,4.5l-0.1,0L172.3,57.2z
			"/>
		<path class="st0" d="M236.8,36.1l-1,0.2l-1-0.1l-4.9-2l-1.9-0.3l-2.1,0.3l-2.2,1.2l-2.3,1.8l-1.8,2.3l-0.8,1.7l-1.3,3.6l-0.4,1.9
			l-0.4,3.6l0.3,3.2l0.8,3.3l0.6,1.6l0.8,1.7l1,1.5l1.3,1.4l1.7,1.4l1.8,1.1l2.3,0.9l2.2-0.1l2.2-1.2l1.9-1.7l1.7-1.7l1.5-2.2l0.6-2
			l0.5-2l0.6-1.1l1.2-0.9l1.2-0.2l1.5,0.3l1,0.7L244,55l0.1,1.3l-0.3,2.2l-0.3,2.2l-1.2,2.5l-1.9,2.4l-2.2,2.4l-2.2,1.8l-2.3,1.5
			l-3.8,2.2l-1.9,0.8l-1.8,0.6l-2.5,0.3l-2.6-0.1l-2.5-0.8l-2.6-1.1l-3.4-2l-1.6-1.1l-1.5-1.2l-1.3-1.3l-1-1.2l-1.4-2.9l-1-2.8
			l-0.8-2.8l-0.6-2.9l-0.2-2.8l0-2.8l0.4-2.7l0.5-2.7l0.8-2.7l1.1-2.8l0.7-1.4l0.9-1.3l1.7-2.2l2.1-2.2l1.3-1.1l1.3-1l2.6-1.7
			l5.4-2.9l2.2-0.6l3.5,0.4l2.5,1l2.6,1.4l1.8,1.2l1.8,1.5l1.1,1.4l0.2,1.4l-0.4,2L236.8,36.1z"/>
		<path class="st0" d="M261.3,41.5l0.9-0.3l0.8-0.6l19.5-16.1l1.4,0l1.2-0.2l1.1-1l1.1-0.8l1.3,0l1.2,0.8l1.2,1.3l0.5,1.4l0.1,1.2
			l-0.5,1l-1,0.7l-1.3,0.9l-1.3,1l-5.3,4.9l-5.5,5.5l-0.8,1l-0.1,1l0.6,0.8l4,4.8l3.4,4.7l1.1,1.4l1.1,1.2l1,0.7l1.1,0.1l1.2-0.6
			l1.4-0.2l1.4,0.6l1.5,1l0.9,1.3l0.4,1.4l0.1,3.8l-0.5,1.8l-0.9,1.7l-0.9,1.5l-1.1,1.4l-1.5,1.4l-1.5,0.6l-2,0l-2-0.7l-1.5-1
			l-0.9-1.4l-0.5-1.8l-0.8-1.8l-1.6-2.3l-1.4-1.2l-1.6-1.2l-5-2.6l-2.4-1.2l-2.5-0.9l-1.8-0.5l-1.3,0.2l-1.1,0.9l-0.9,1.3l-0.3,1.5
			l0.2,2.5l0.2,2.5l0.1,1.6l-0.3,1.2l-0.9,0.9l-1,0.9l-1,1.1l-1.3,0.5l-1.3,0.2l-1.3,0.7l-1.6,0.3l-1-0.1l-1-0.7l-0.7-1l-0.7-1.8
			L247.3,55l-1.4-14.3l0-6.5l0.2-6.5l0.4-1.2l1-1l1.2-0.4l2.2,0l1-0.1l1.3-1.4l0.6-0.4l0.7-0.9l0.9-1l1.1-0.3l1.3,0.4l1.4,0.9
			l1.1,1.3l0.5,1.6l0.4,3.5l0.2,3.6l-0.1,3.6l-0.6,4.6L261.3,41.5z"/>
		<path class="st0" d="M42.2,104.6l0.6-0.2l0.8-0.7l1.2-1.1l1.3-1l1.7-1l1.7-0.8l2.6-0.5l2.5-0.1l2.7,0.4l2.6,0.8l2,1.3l1.9,2.2
			l0.9,2l0.9,1.8l1.4,2.3l1.1,3.3l0.5,3.2l0.5,6.6l0.1,6.6l-0.7,14.6l-0.6,0.9l-1,0.7l-2.6,1.5l-1.4,0.2l-1.3-0.5l-1-1.1l-0.5-0.8
			l-1-0.5l-1.1-0.5l-0.8-0.9l-0.4-1.3l-1.2-14.4l-0.9-15.6l-0.3-0.6l-0.8-0.4l-0.9,0.2l-1,0.5l-2.3,2.1l-1.6,2.1l-0.9,1.8l-0.6,1.8
			L46,131.9l-0.1,12.4l-0.7,2.1l-0.8,1.1l-1.2,0.8l-2.3,1l-1.8,0.3l-1.5-0.2l-1-0.6l-0.8-1l-0.2-1.1l-0.1-13.3l0.1-16.2l-1-2.5
			l-0.5-0.9l-0.8-0.4l-1,0.3l-1,1l-1.5,2l-1,1.6l-0.9,1.5l-1.2,3l-1.3,5.3l-1.1,5.3l-0.6,5.3l-0.3,5.3l-0.3,1.2l-1,1l-1.7,1.4
			l-2.1,0.9l-3.2,0.2l-1.4-0.2l-1.2-0.7l-0.6-1.2l-0.7-1.7l-0.5-2.7l0.9-5.7l1.9-17.2l0.8-2.6l1.1-2.6l2.5-5.1l1.6-2.1l2.1-2l2-1.6
			L26,102l2.3-0.8L32,101l3.7,0.3l2.3,0.8l1.4,0.8l1.2,0.9L42.2,104.6z"/>
		<path class="st0" d="M104.7,139.3l-0.4,0l-0.9,0.6l-1.6,1.2l-1.5,1l-1.5,0.9l-1.5,0.7l-2.3,0.9l-2.2,0.6l-3.4,0l-3.3-0.4l-2.8-1
			l-2.6-1.2l-1.9-1.2l-1.6-1.4l-1.8-2.2l-1.1-2.5l-0.9-2.5l-1.5-4.9l-0.5-2.5l-0.2-2.5l0-2.6l0.2-2.5l0.5-2.7l0.7-2.7l0.9-2.6l2-4.3
			l1-1.4l1.2-1.3l1.2-1.1l1.5-1.5l1.6-1l2.3-1.2l2.4-0.7l2.6-0.7l2.6,0L95,97l3.2,1.1l1.9,1l1.8,1.3l1.9,2l1.2,0.9l1.1,0l1.6,0.2
			l1.7,1.2l1.6,1.7l0.7,1.7l-0.1,2.2l0.1,2.1l0.6,4.3l1.1,8.5l2,8.7l0,1.4l-0.6,1.3l-0.7,1.2l0.3,1.3l0.5,1.6l0.5,1.7l-0.1,1.2
			l-0.9,1.2l-1.3,1l-1.6,0.5l-1.9-0.1l-1.4-0.2l-1.2-1l-0.9-1.4l-0.9-3.3L104.7,139.3z M83.8,124.3l-0.1,1.2l0.4,3.9l0.4,1.7
			l0.7,1.8l0.9,1.5l1.2,1.1l1.6,0.6l1.9-0.1l2.2-0.7l2.2-1.1l1.8-1.5l0.9-1.3l0.9-1.3l1-1.8l0.6-1.8l0.6-2.9l0.3-2.8l-0.3-4.4
			l-0.4-2.1l-0.5-2.1l-0.8-1.7l-1.1-1.2l-1.2-0.6l-1.5,0l-2.7,0.9l-1.7,0.9l-1.6,1.1l-1.7,1.8l-2.5,4.6l-0.5,2.2l-0.7,4.5l-0.1,0
			L83.8,124.3z"/>
		<path class="st0" d="M151.3,126.7l0,0.6l0.8,0.8l5.2,5.8l2.5,2.9l2.3,2.9l0.9,1.8l0,1.8l-0.2,1.3l-0.7,1.1l-1.1,0.8l-1.7,0.7
			l-1.3,0l-1.2-0.6l-0.6-1.1l-0.4-1.1l-1-0.9l-1.5-1.3l-1-1.4l-2.9-2.3l-2.7-2.4l-2.3-1.7l-2.2-1.4l-2.6-1.2l-3.9-0.3l-2.1,0.1
			l-0.9,0.3l-0.6,0.6l-0.1,1l0,3.2l-0.1,3.3l-0.1,1l-0.6,0.9l-0.9,0.4l-0.9,0.4l-0.8,1l-1.1,1l-1.3,0.4l-1.9-0.1l-1.6-0.6l-1.2-1.1
			l-0.7-1.5l-6.1-39.4l0.2-1.4l1-1.2l1.4-0.8l4.2-2.3l4.3-1.8l4.2-1.5l9.9-2.5l2.7-0.5l2.9-0.1l2.1,0.1l2.2,0.4l2.1,0.7l2.3,0.8
			l2.6,1.1l1.5,1.2l1.5,1.4l1.8,2.2l1.5,2.2l1.2,2.9l0.8,3l0.1,2.8l-0.3,2.9l-0.6,1.7l-0.7,1.9l-0.9,1.6l-1.1,1.6l-1.2,1.2l-1.3,1.2
			l-1.8,1.4L156,124l-1.8,1l-1.8,0.9L151.3,126.7z M129.8,105.2l0,1.2l0.9,3.3l0.7,3.4l0.2,3.4l0.2,3.3l0.2,0.9l0.4,0.5l0.9,0
			l4.9-0.3l2.2-1l3.6-2.7l3.7-2.5l1.5-1.9l0.7-1.6l0.5-1.5l0.3-2.9l-0.3-1.5l-0.6-1.2l-1.2-1l-1.7-0.6l-2.7,0.2l-14,2.1L129.8,105.2
			z"/>
		<path class="st0" d="M201.4,132.4l-0.4,0l-0.8,0.6l-1.6,1.2l-1.5,1l-1.5,0.9l-1.5,0.7l-2.3,0.9l-2.2,0.6l-3.4,0l-3.3-0.4l-2.8-1
			l-2.6-1.2l-1.9-1.2l-1.6-1.4l-1.8-2.2l-1.1-2.5l-0.9-2.5l-1.5-4.9l-0.5-2.5l-0.2-2.5l0-2.6l0.2-2.5l0.5-2.7l0.7-2.7l0.9-2.6l2-4.3
			l1-1.4l1.2-1.3l1.2-1.1l1.5-1.5l1.6-1l2.3-1.2l2.4-0.7l2.6-0.7l2.6,0l3.1,0.5l3.2,1.1l1.9,1l1.8,1.4l1.9,2l1.2,0.9l1.1,0l1.6,0.2
			l1.7,1.2l1.6,1.7l0.7,1.7l-0.1,2.2l0.1,2.1l0.6,4.3l1.1,8.5l2,8.7l0,1.4l-0.6,1.3l-0.7,1.2l0.3,1.3l0.5,1.6l0.5,1.7l-0.1,1.2
			l-0.9,1.2l-1.3,1l-1.6,0.5l-1.9-0.1l-1.4-0.2l-1.2-1l-0.9-1.4l-0.9-3.3L201.4,132.4z M180.4,117.4l-0.1,1.2l0.4,4l0.4,1.7l0.7,1.8
			l0.9,1.5l1.2,1.1l1.6,0.6l1.8-0.1l2.2-0.7l2.2-1.1l1.8-1.5l0.9-1.3l0.9-1.3l1-1.8l0.6-1.8l0.6-2.9l0.3-2.8l-0.3-4.4l-0.4-2.1
			l-0.5-2.1l-0.8-1.7l-1.1-1.2l-1.2-0.6l-1.5,0l-2.7,0.9l-1.7,0.9l-1.6,1.1l-1.7,1.8l-2.5,4.6l-0.5,2.2l-0.7,4.5l-0.1,0L180.4,117.4
			z"/>
		<path class="st0" d="M245.7,86.9l1.3-1.3l1.8-0.9l2.8-0.8l2.9-0.4l2.2,0.1l1.4,0.7l1.2,1.1l1.3,2.3l0.6,1.7l0.5,1.8l0.7,3.7
			l0.1,4.8l-0.2,4.8l-1.2,9.7l-0.4,1.8l-0.7,1.8l-0.8,1.8l-1,1.9l-1.7,2.3l-4.7,4.3l-2.3,2l-2.2,1.8l-1.8,1.2l-2,1l-1.9,0.8
			l-1.9,0.7l-3,0.7l-2.9,0.2l-2.6-0.2l-2.6-0.7l-2.2-0.9l-2.3-1.8l-2.6-2.6l-2.6-3l-1.7-2.2l-1.1-2.2l-1.1-3.2l-0.6-3.2l-0.2-2.4
			l-0.1-2.4l0-2.4l0.5-2.4l0.8-3l1.4-2.9l0.6-1.7l0.6-1.7l1.1-1.6l1.5-1.1l2.9-1.3l3-1.1l1.9-0.3l1.6,0.6l2,1.4l1.1,1.6l0.7,2.7
			l-2.7,7.8l-1,3.8l-0.7,4l-0.2,3l0.3,3.1l0.5,1.3l1.3,1.3l1.3,0.9l1.4,0.8l2.1,0.9l2.1,0.5l1.5,0l1.4-0.8l1.4-1.2l1.8-2l1.4-2
			l1-1.8l0.8-1.7l0.7-1.7l0.6-1.7l0.5-1.9l0.3-1.9l-0.1-3.8l-0.7-3.2l-1.1-3.1l-2.8-6.2l-0.1-1.9l0.5-2L245.7,86.9z"/>
		<path class="st0" d="M270.2,127.9l-0.4-1.4l-0.7-14.2l-1.4-15.9l-0.8-1.5l-0.8-1.4l0-1.4l0.4-1.9l0.2-1.9l0.8-1.3l1.2-1l2.1-1
			l2.2-1.3l1.5-0.6l2.7,0.2l2.8-0.1l5.5-0.7l3.1,0.5l14.7,7.8l1.2,1l1.1,1.1l1.1,2l0.9,3.8l0.8,3.9l1,7.8l-0.2,2.6l-0.6,2.6
			l-1.1,2.2l-1.3,1.3l-1.4,1.6l-1.7,1.9l-1.1,1.4l-1.3,1.4l-1.5,1.3l-1.5,0.8l-8.9,2.5l-9,1.9l-3.4-0.2l-1.9-0.9l-1.4-1l-1.4-0.9
			L270.2,127.9z M281.6,123.5l1.6,0.5l2.2-0.4l4.3-2l2.1-1.2l2.1-1.2l1.3-1l1.4-1.2l2.6-2.8l1.6-2.2l0.9-2l0.7-2.1l-0.2-3.3
			l-0.7-1.8l-0.8-1.6l-1.2-2l-1.2-1.8l-1.8-1.8l-3-2.1l-2-0.8l-4,0l-2.7,0.5l-2.7,0.7l-1.1,0.4l-0.6,0.9l-0.2,1.1l0.9,26.4
			L281.6,123.5z"/>
		<path class="st0" d="M330.5,108.7l-0.2,0.6l0.3,0.9l0.6,1.4l1.6,2.1l2,1.5l2.4,1l2.4,0.9l3,0.6l3.1,0.2l1.4-0.2l1.4-0.9l1.4-1.7
			l0.8-1.2l1.1-0.8l1.3-0.4l1.7,0.5l1.1,0.7l0.7,1.1l0,1.1l0.3,1.5l0.4,1.4l-0.4,1.4l-0.7,1.4l-1.2,0.9l-4.5,3.1l-2.4,1.6l-2.3,1.4
			l-2.3,1.1l-2.3,0.6l-3.8,0.1l-1.8-0.2l-1.8-0.3l-2.5-0.7l-2.4-1.1l-2.2-1.5l-2.1-1.7l-3.9-3.4l-1.7-1.8l-1.2-1.9l-1.1-1.8l-0.9-2
			l-0.8-1.8l-0.5-1.9l-0.3-2.7l0.2-2.7l0.6-3.1l0.7-2.9l1-3l1.2-3l1.3-3.3l0.9-1.6l1-1.6l1.3-1.7l3.6-3.7l2.5-1.9l2.6-1.6l2.7-1.1
			l2.1-0.6l2.1-0.4l2.2-0.2l2.1,0.1l2.2,0.4l2.1,1.1l1.4,0.7l1.6,0.9l2.1,2l1.2,2.1l0.6,1.7l0.5,1.7l0.7,3.5l0,3.2l-0.5,3.3
			l-0.5,1.6l-0.8,1.6l-0.9,1.4l-1,1.3l-2.3,2l-5.4,2.9l-1.8,0.7l-1.7,0.6l-4.1,0.3l-2.1,0.1l-2-0.3L330.5,108.7z M331.1,99.6
			l1.3,0.4l2.9-0.2l2-0.7l2.1-0.9l1.7-1.2l1.5-1.9l0.9-2.2l0.8-2.1l0.3-1.8l-0.4-1.2l-0.8-1l-1.2-0.5l-1.7,0l-2.3,0.8l-2.1,1.5
			l-1.3,1.3l-2.5,4.4l-1.2,2.9l-0.3,1L331.1,99.6z"/>
		<path class="st0" d="M396.2,109.2l0,0.6l0.8,0.8l5.2,5.8l2.5,2.9l2.3,2.9l0.9,1.8l0,1.8l-0.2,1.3l-0.7,1.1l-1.1,0.8l-1.7,0.7
			l-1.3,0l-1.2-0.6l-0.6-1.1l-0.4-1.1l-1-0.9l-1.5-1.3l-1-1.4l-2.9-2.3l-2.7-2.4l-2.3-1.7l-2.2-1.4l-2.6-1.2l-3.9-0.3l-2.1,0.1
			l-0.9,0.3l-0.6,0.6l-0.1,1l0,3.2l-0.1,3.3l-0.1,0.9l-0.6,0.9l-0.9,0.4l-0.9,0.4l-0.8,1l-1.1,1l-1.3,0.4l-1.9-0.1l-1.6-0.6
			l-1.2-1.1l-0.7-1.5l-6.1-39.4l0.2-1.4l1-1.2l1.4-0.8l4.2-2.3l4.3-1.8l4.2-1.5l9.9-2.5l2.7-0.5l2.9-0.1l2.1,0.1l2.2,0.4l2.1,0.7
			l2.3,0.8l2.6,1.1l1.5,1.2l1.5,1.4l1.8,2.2l1.5,2.2l1.2,2.9l0.8,3l0.1,2.8l-0.3,2.9l-0.6,1.7l-0.7,1.9l-0.9,1.6l-1.1,1.6l-1.2,1.2
			l-1.3,1.2l-1.8,1.4l-1.8,1.1l-1.8,1l-1.8,0.9L396.2,109.2z M374.7,87.6l-0.1,1.2l0.9,3.3l0.7,3.4l0.2,3.4l0.2,3.3l0.2,0.9l0.4,0.5
			l0.9,0l4.8-0.3l2.2-1l3.6-2.7l3.7-2.5l1.5-1.9l0.7-1.6l0.5-1.5l0.3-2.9l-0.3-1.5l-0.6-1.2l-1.2-1l-1.7-0.6l-2.7,0.2l-14,2.1
			L374.7,87.6z"/>
		<path class="st0" d="M446.4,82.1l0.9,0.6l1,0.2l1.9-0.1l3.3,0.5l2.7,1.3l2.8,1.6l1.9,0.9l2.8,0.6l1.7,0.9l1.5,1.4l1.1,2l1.5,4.3
			l0.5,2.1l0.2,2.2l0.2,2.1l-0.9,2l-1.2,1.9l-1.4,1.9l-3,3.8l-2.2,2.2l-2.4,2L457,118l-2,1.2l-4.1,2l-3.6,1.2l-3.5,0.8l-3.6,0.5
			l-3.6,0.3l-6.1-0.1l-3-0.3l-3-0.5l-3.2-1.1l-1.5-0.6l-1.4-0.8l-2.5-1.6l-1.1-1.5l-1-1.8l-0.6-1.8l-0.9-3.5l-0.3-5l0.6-1.7l1-1.4
			l0.8-1.3l0.9-1.2l1.3-0.7l1.4-0.2l1.2,0.5l1,0.9l1.3,1.9l0.9,2.5l0.8,2.5l0.9,3l0.8,1.2l1.3,0.8l1.9,0.9l1.9,0.5l8.2,0.1l8.2-0.3
			l2.6-0.4l2.7-0.6l1.8-1.1l1.1-1.4l1.1-2.5l0.3-2l0.2-2l-0.2-2.3l-1-2.1l-1.1-1.3l-1.2-0.7l-1.5-0.4l-2.2-0.4l-2.2-0.2l-4.5,0
			l-8.8,0.4l-1.9-0.3l-1.9-0.6l-3.8-1.5l-2.4-1.2l-1.9-1.6l-1.3-2.2l-0.6-2.5l0.4-2l1.4-2l2-2.6l2.3-2.3l1.3-1l1.3-0.8l2.9-1.4
			l3.8-1.8l3.8-1.4l3.8-1.1l5.8-1.2l2.4-1l12.7-1.2l1.2,0.2l1,0.7l0.6,1l0.5,1.6l-0.3,3.3l-0.5,1.3l-1,1.2l-1.5,0.6l-1.6,0.1
			l-1.2,0.1l-1.2,0.7l-1.3,0.7l-1.4,0.1l-3.4,0.2l-3.3,1.1l-2.8,1.5L446.4,82.1z"/>
		<g>
			<path class="st1" d="M318.6,20.3l0.1-0.4l0.3-0.4l0.6-0.4l0.8-0.7l0.8-0.6l0.8-0.6l0.8-0.5l1.3-0.5l1.2-0.4l1.3-0.3l1.3-0.2
				l1-0.1l1,0l1,0.1l1,0.2l0.8,0.3l0.8,0.3l1.6,0.8l1,0.6l0.7,0.7l0.7,1l0.7,1l1.3,2.1l0.5,0.9l0.3,0.9l0.1,1.7l-0.2,1.8l-0.2,0.8
				l-0.2,0.9l-0.3,0.9l-0.4,0.9l-0.5,0.9l-0.7,0.8l-0.7,0.8l-0.8,0.7l-1.5,1.3l-0.8,0.6l-0.8,0.5l-1.6,0.8l-0.8,0.3l-0.8,0.3
				l-1.6,0.4l-1.4,0.1l-1.4,0l-2.8-0.3l-1.3-0.3l-1.3-0.5l-0.7-0.3l-0.7-0.5l-0.7-0.7l-0.6-0.7l-0.6-0.9l-0.4-1l-0.4-1.3l-0.3-1.3
				l-0.2-1.4l-0.1-1.3l0.1-1l0.2-1.1l0.2-1.1l0.3-1.1l0.2-0.7l0.3-0.7l0.4-0.7l0.4-0.7L318.6,20.3z M333.4,22.1l-1.2-0.4l-1.2-0.3
				l-1.1,0.1l-1,0.5l-1,0.6l-1.2,0.8l-0.6,0.4l-0.6,0.5l-0.8,1l-0.7,0.9l-0.4,0.6l-0.4,0.6l-0.5,1.2l-0.2,1l0.2,1l0.7,1.2l0.5,0.6
				l0.7,0.4l1.2,0.4l1.2-0.1l1-0.3l1-0.3l1-0.5l1-0.6l1-0.6l1-0.7l0.5-0.5l0.5-0.7l0.5-1.2l0.3-0.9l0.2-0.9l-0.2-1.5l-0.3-0.7
				l-0.3-0.8l-0.5-0.6L333.4,22.1z"/>
			<path class="st1" d="M352.6,23.4l0.4,0.1l2.6-0.2l1.1-0.2l1.1-0.3l0.6-0.2l0.6,0.1l0.5,0.4l0.3,0.4l0.5,0.2l0.5,0.1l0.7,0.3
				l0.5,0.5l0.2,0.6l-0.1,0.6l-0.4,0.6l-0.5,0.5l-0.6,0.2l-1.5,0l-1.4,0.3l-1.1,0.3l-1.1,0.4l-1.1,0.5l-1.1,0.6l-0.5,0.3l-0.3,0.5
				l-0.1,0.5l0,2l0.2,2.6l-0.2,0.6l-0.4,0.8l-0.2,0.5l-0.5,0.3l-0.8,0.5l-0.6,0.2l-0.6-0.1l-0.4-0.3l-0.3-0.5l-1.1-4.9l-0.8-4.9
				l-1.2-9.8l0-0.7l0.4-0.7l0.4-0.5l0.7-0.3l7-1.5l3.6-0.7l3.6-0.3l0.7,0l0.6,0.3l0.4,0.5l0.3,0.9l0,0.9L363,16l-0.5,0.6l-0.6,0.2
				l-1.2,0l-1.2,0.1l-1.2,0.1l-1.1,0.3l-2.3,0.6l-1.1,0.4l-1.1,0.4l-0.5,0.3l-0.2,0.4l0,0.5l0.4,3L352.6,23.4z"/>
			<path class="st1" d="M317.4,69.3l-0.4,0.2l-0.4,0l-0.8-0.1l-0.5-0.2l-0.2-0.4l-0.1-0.5l-0.3-0.4l-0.5-0.3l-0.5-0.3l-0.5-0.5
				l-0.6-1l-2.2-13.5l-0.3-0.2h-0.4l-1.7,0.1l-1.7,0l-0.6,0l-0.7-0.4l-0.7-0.6l-0.4-0.7l-0.2-0.7l-0.5-1.1l-0.1-1l0.2-0.5l0.3-0.4
				l0.5-0.2l18.4-2.5l0.6,0.3l0.3,0.4l0.3,0.3l0.5,0.1l0.6,0.2l0.5,0.4l0.3,0.6l0.2,1l-0.1,1l-0.3,0.7l-0.4,0.5l-0.5,0.1l-5.3,0.7
				l-0.2,0.4l-0.1,0.4L318,64.9l0.2,0.6l0.5,0.6l0.2,0.5l-0.1,0.5l-0.4,0.3l-0.5,0.3l-0.2,0.4l-0.1,0.5L317.4,69.3z"/>
			<path class="st1" d="M339.4,53.4l0.3,0.1l0.4-0.1l8.2-1.6l0.2-0.3l0.1-0.5l0.2-2.6l0.1-2.7l0.2-0.8l0.5-0.7l0.9-0.8l0.9-0.9
				l0.6-0.5l0.6-0.2l0.9,0.1l0.7,0.4l0.5,0.6l0.2,0.7l-2.3,14.9l-0.5,5.5l-0.3,0.4l-0.5,0.3l-1,0.3l-0.9,0l-0.9-0.1l-0.6-0.2
				l-0.4-0.4l-0.2-0.6l-0.1-0.9l0.4-1.1l0.2-0.9l0-0.9l0-2.2l-0.2-0.3l-0.3-0.1l-0.4,0l-1.6,0.1l-1.6,0.3l-3.2,0.8l-0.6,0.1
				l-0.4,0.2l-0.2,0.4l0,0.5l-0.3,1.6l0,1.2l-0.1,1.2l-0.5,2.4l-0.2,0.6l-0.6,0.6l-0.7,0.5l-0.8,0.2l-0.8-0.1l-1-0.3l-0.6-0.4
				l-0.4-0.5l-0.1-0.6L333,55.8l-0.2-10.4l0.2-0.6l0.5-0.5l0.6-0.5l0.5-0.6l0.6-0.7l0.7-0.3l0.9,0l1.2,0.3l0.6,0.4l0.4,0.5l0.1,0.6
				l0.2,1.1l0.1,1.1l0.2,2.2l-0.1,2.2l-0.2,2.2L339.4,53.4z"/>
			<path class="st1" d="M368.2,54.7l-0.1,0.3l0.2,0.4l0.3,0.6l0.7,1l0.9,0.7l1.1,0.5l1.1,0.4l1.4,0.3l1.4,0.1l0.7-0.1l0.6-0.4
				l0.6-0.8l0.4-0.5l0.5-0.4l0.6-0.2l0.8,0.2l0.5,0.3l0.3,0.5l0,0.5l0.1,0.7l0.2,0.6l-0.2,0.6l-0.3,0.6l-0.5,0.4l-2,1.4l-1.1,0.7
				l-1.1,0.7l-1.1,0.5l-1,0.3l-1.7,0l-0.8-0.1l-0.8-0.1l-1.2-0.3l-1.1-0.5l-1-0.7l-1-0.8l-1.8-1.5l-0.8-0.8l-0.5-0.8l-0.5-0.8
				l-0.4-0.9l-0.3-0.8l-0.2-0.9l-0.1-1.2l0.1-1.2l0.3-1.4l0.3-1.3l0.5-1.4l0.5-1.4l0.6-1.5l0.4-0.7l0.5-0.7l0.6-0.8l1.6-1.7l1.1-0.9
				l1.2-0.7l1.2-0.5l1-0.3l1-0.2l1-0.1l1,0.1l1,0.2l1,0.5l0.7,0.3l0.7,0.4l0.9,0.9l0.5,0.9l0.3,0.8l0.2,0.8l0.3,1.6l0,1.4L379,49
				l-0.2,0.7l-0.4,0.7l-0.4,0.6l-0.5,0.6l-1,0.9l-2.4,1.3l-0.8,0.3l-0.8,0.3l-1.9,0.1l-0.9,0.1l-0.9-0.1L368.2,54.7z M368.5,50.5
				l0.6,0.2l1.3-0.1l0.9-0.3l0.9-0.4l0.8-0.6l0.7-0.8l0.4-1l0.4-1l0.1-0.8l-0.2-0.5l-0.3-0.5l-0.5-0.2l-0.8,0l-1.1,0.4l-1,0.7
				l-0.6,0.6l-1.1,2l-0.6,1.3l-0.1,0.5L368.5,50.5z"/>
		</g>
	</g>
	<g>
		<path class="st2" d="M52.7,83.5l-0.5,0l-1,0.7l-1.8,1.4l-1.7,1.1l-1.7,1.1l-1.7,0.8l-2.6,1l-2.6,0.7l-3.9,0l-3.8-0.5l-3.2-1.2
			l-3-1.4L23,86l-1.8-1.6l-2.1-2.6l-1.3-2.9l-1.1-2.9l-1.7-5.7l-0.5-2.9l-0.2-2.9l0-2.9l0.3-2.9l0.6-3.1l0.8-3.1l1-3l2.3-4.9
			l1.2-1.6l1.4-1.5l1.3-1.3l1.7-1.7l1.8-1.1l2.7-1.4l2.7-0.8l3-0.8l3,0l3.5,0.5l3.7,1.2l2.2,1.2l2.1,1.5l2.1,2.2l1.3,1l1.3,0
			l1.8,0.3l1.9,1.3l1.9,1.9l0.8,2l-0.1,2.5l0.2,2.4l0.7,4.9l1.3,9.8l2.3,10l0,1.6l-0.7,1.5l-0.8,1.4l0.3,1.4l0.6,1.9l0.5,2l-0.1,1.4
			l-1.1,1.4l-1.5,1.1l-1.9,0.6l-2.1-0.1l-1.6-0.3L55.3,90l-1-1.6l-1.1-3.8L52.7,83.5z M28.7,66.4l-0.1,1.3l0.4,4.5l0.5,2l0.9,2
			l1,1.7l1.4,1.3l1.8,0.6l2.1-0.1l2.5-0.8l2.5-1.2l2.1-1.7l1.1-1.5l1-1.5L47,71l0.7-2.1l0.7-3.4l0.3-3.3l-0.4-5.1L48,54.8l-0.6-2.4
			l-0.9-1.9L45.3,49l-1.4-0.7l-1.7,0l-3.1,1l-1.9,1l-1.8,1.3l-1.9,2l-2.9,5.3l-0.6,2.5l-0.8,5.2l-0.2,0L28.7,66.4z"/>
		<path class="st2" d="M91.4,89.2l-0.9,0.5l-1,0.1l-1.8-0.3L86.6,89L86,88.1L85.9,87l-0.6-1l-1-0.7l-1.1-0.6L82,83.6l-1.3-2.1
			l-4.9-29.7l-0.7-0.6l-1,0l-3.8,0.3l-3.7,0.1l-1.4,0l-1.4-0.8l-1.5-1.3l-0.9-1.6L61,46.2l-1.1-2.3l-0.2-2.1l0.3-1.1l0.7-0.9
			l1.1-0.4l40.4-5.6l1.2,0.6l0.8,1l0.7,0.8l1,0.2l1.3,0.5l1,0.8l0.6,1.3l0.4,2.1l-0.3,2.1l-0.6,1.6l-1,1.1l-1.2,0.3l-11.6,1.6
			l-0.5,0.8l-0.3,1l-1.3,29.9l0.5,1.4l1,1.3l0.4,1.1l-0.3,1l-1,0.7l-1.1,0.7l-0.5,1l-0.1,1.2L91.4,89.2z"/>
		<path class="st2" d="M141.5,85.6l-0.9,0.5l-1,0.1l-1.8-0.3l-1.1-0.5l-0.5-0.9l-0.1-1.1l-0.6-1l-1-0.7l-1.1-0.6l-1.1-1.2l-1.3-2.1
			l-5-29.7l-0.7-0.6l-1,0l-3.8,0.3l-3.7,0.1l-1.4,0l-1.4-0.8l-1.5-1.3l-0.9-1.6l-0.4-1.6l-1.1-2.3l-0.2-2.1l0.3-1.1l0.7-0.9l1.1-0.3
			l40.4-5.6l1.2,0.6l0.8,1l0.7,0.8l1,0.2l1.3,0.5l1,0.8l0.6,1.3l0.4,2.1l-0.3,2.1l-0.6,1.6l-0.9,1.1l-1.2,0.3l-11.6,1.6l-0.5,0.8
			l-0.3,1l-1.3,29.9l0.5,1.4l1,1.3l0.4,1.1l-0.3,1l-1,0.7l-1.1,0.7l-0.6,1l-0.1,1.2L141.5,85.6z"/>
		<path class="st2" d="M193.2,72.1l-0.4,0l-0.9,0.6l-1.6,1.2l-1.5,1l-1.5,0.9l-1.5,0.7l-2.3,0.9l-2.2,0.6l-3.4,0l-3.3-0.4l-2.8-1
			l-2.6-1.2l-1.9-1.2l-1.6-1.4l-1.8-2.2l-1.1-2.5l-0.9-2.5l-1.5-4.9l-0.5-2.5l-0.2-2.5l0-2.6l0.2-2.5l0.5-2.7l0.7-2.7l0.8-2.6l2-4.3
			l1-1.4l1.2-1.3l1.2-1.1l1.5-1.5l1.6-1l2.3-1.2l2.4-0.7l2.6-0.7l2.6,0l3.1,0.5l3.2,1.1l1.9,1l1.8,1.4l1.9,2l1.2,0.9l1.1,0l1.6,0.2
			l1.7,1.2l1.6,1.7l0.7,1.7l-0.1,2.2l0.1,2.1l0.6,4.3l1.1,8.5l2,8.7l0,1.4l-0.6,1.3l-0.7,1.2l0.3,1.3l0.5,1.6l0.5,1.7l-0.1,1.2
			l-0.9,1.2l-1.3,1L200,79l-1.9-0.1l-1.4-0.2l-1.2-1l-0.9-1.4l-0.9-3.3L193.2,72.1z M172.3,57.2l-0.1,1.2l0.4,3.9l0.4,1.7l0.7,1.8
			l0.9,1.5l1.2,1.1l1.6,0.6l1.8-0.1l2.2-0.7l2.2-1.1l1.8-1.5l0.9-1.3l0.9-1.3l1-1.8l0.6-1.8l0.6-2.9l0.3-2.8l-0.3-4.4l-0.4-2.1
			l-0.5-2.1l-0.8-1.7l-1.1-1.2l-1.2-0.6l-1.5,0l-2.7,0.9l-1.7,0.9l-1.6,1.1l-1.7,1.8l-2.5,4.6l-0.5,2.2l-0.7,4.5l-0.1,0L172.3,57.2z
			"/>
		<path class="st2" d="M236.8,36.1l-1,0.2l-1-0.1l-4.9-2l-1.9-0.3l-2.1,0.3l-2.2,1.2l-2.3,1.8l-1.8,2.3l-0.8,1.7l-1.3,3.6l-0.4,1.9
			l-0.4,3.6l0.3,3.2l0.8,3.3l0.6,1.6l0.8,1.7l1,1.5l1.3,1.4l1.7,1.4l1.8,1.1l2.3,0.9l2.2-0.1l2.2-1.2l1.9-1.7l1.7-1.7l1.5-2.2l0.6-2
			l0.5-2l0.6-1.1l1.2-0.9l1.2-0.2l1.5,0.3l1,0.7L244,55l0.1,1.3l-0.3,2.2l-0.3,2.2l-1.2,2.5l-1.9,2.4l-2.2,2.4l-2.2,1.8l-2.3,1.5
			l-3.8,2.2l-1.9,0.8l-1.8,0.6l-2.5,0.3l-2.6-0.1l-2.5-0.8l-2.6-1.1l-3.4-2l-1.6-1.1l-1.5-1.2l-1.3-1.3l-1-1.2l-1.4-2.9l-1-2.8
			l-0.8-2.8l-0.6-2.9l-0.2-2.8l0-2.8l0.4-2.7l0.5-2.7l0.8-2.7l1.1-2.8l0.7-1.4l0.9-1.3l1.7-2.2l2.1-2.2l1.3-1.1l1.3-1l2.6-1.7
			l5.4-2.9l2.2-0.6l3.5,0.4l2.5,1l2.6,1.4l1.8,1.2l1.8,1.5l1.1,1.4l0.2,1.4l-0.4,2L236.8,36.1z"/>
		<path class="st2" d="M261.3,41.5l0.9-0.3l0.8-0.6l19.5-16.1l1.4,0l1.2-0.2l1.1-1l1.1-0.8l1.3,0l1.2,0.8l1.2,1.3l0.5,1.4l0.1,1.2
			l-0.5,1l-1,0.7l-1.3,0.9l-1.3,1l-5.3,4.9l-5.5,5.5l-0.8,1l-0.1,1l0.6,0.8l4,4.8l3.4,4.7l1.1,1.4l1.1,1.2l1,0.7l1.1,0.1l1.2-0.6
			l1.4-0.2l1.4,0.6l1.5,1l0.9,1.3l0.4,1.4l0.1,3.8l-0.5,1.8l-0.9,1.7l-0.9,1.5l-1.1,1.4l-1.5,1.4l-1.5,0.6l-2,0l-2-0.7l-1.5-1
			l-0.9-1.4l-0.5-1.8l-0.8-1.8l-1.6-2.3l-1.4-1.2l-1.6-1.2l-5-2.6l-2.4-1.2l-2.5-0.9l-1.8-0.5l-1.3,0.2l-1.1,0.9l-0.9,1.3l-0.3,1.5
			l0.2,2.5l0.2,2.5l0.1,1.6l-0.3,1.2l-0.9,0.9l-1,0.9l-1,1.1l-1.3,0.5l-1.3,0.2l-1.3,0.7l-1.6,0.3l-1-0.1l-1-0.7l-0.7-1l-0.7-1.8
			L247.3,55l-1.4-14.3l0-6.5l0.2-6.5l0.4-1.2l1-1l1.2-0.4l2.2,0l1-0.1l1.3-1.4l0.6-0.4l0.7-0.9l0.9-1l1.1-0.3l1.3,0.4l1.4,0.9
			l1.1,1.3l0.5,1.6l0.4,3.5l0.2,3.6l-0.1,3.6l-0.6,4.6L261.3,41.5z"/>
		<path class="st2" d="M42.2,104.6l0.6-0.2l0.8-0.7l1.2-1.1l1.3-1l1.7-1l1.7-0.8l2.6-0.5l2.5-0.1l2.7,0.4l2.6,0.8l2,1.3l1.9,2.2
			l0.9,2l0.9,1.8l1.4,2.3l1.1,3.3l0.5,3.2l0.5,6.6l0.1,6.6l-0.7,14.6l-0.6,0.9l-1,0.7l-2.6,1.5l-1.4,0.2l-1.3-0.5l-1-1.1l-0.5-0.8
			l-1-0.5l-1.1-0.5l-0.8-0.9l-0.4-1.3l-1.2-14.4l-0.9-15.6l-0.3-0.6l-0.8-0.4l-0.9,0.2l-1,0.5l-2.3,2.1l-1.6,2.1l-0.9,1.8l-0.6,1.8
			L46,131.9l-0.1,12.4l-0.7,2.1l-0.8,1.1l-1.2,0.8l-2.3,1l-1.8,0.3l-1.5-0.2l-1-0.6l-0.8-1l-0.2-1.1l-0.1-13.3l0.1-16.2l-1-2.5
			l-0.5-0.9l-0.8-0.4l-1,0.3l-1,1l-1.5,2l-1,1.6l-0.9,1.5l-1.2,3l-1.3,5.3l-1.1,5.3l-0.6,5.3l-0.3,5.3l-0.3,1.2l-1,1l-1.7,1.4
			l-2.1,0.9l-3.2,0.2l-1.4-0.2l-1.2-0.7l-0.6-1.2l-0.7-1.7l-0.5-2.7l0.9-5.7l1.9-17.2l0.8-2.6l1.1-2.6l2.5-5.1l1.6-2.1l2.1-2l2-1.6
			L26,102l2.3-0.8L32,101l3.7,0.3l2.3,0.8l1.4,0.8l1.2,0.9L42.2,104.6z"/>
		<path class="st2" d="M104.7,139.3l-0.4,0l-0.9,0.6l-1.6,1.2l-1.5,1l-1.5,0.9l-1.5,0.7l-2.3,0.9l-2.2,0.6l-3.4,0l-3.3-0.4l-2.8-1
			l-2.6-1.2l-1.9-1.2l-1.6-1.4l-1.8-2.2l-1.1-2.5l-0.9-2.5l-1.5-4.9l-0.5-2.5l-0.2-2.5l0-2.6l0.2-2.5l0.5-2.7l0.7-2.7l0.9-2.6l2-4.3
			l1-1.4l1.2-1.3l1.2-1.1l1.5-1.5l1.6-1l2.3-1.2l2.4-0.7l2.6-0.7l2.6,0L95,97l3.2,1.1l1.9,1l1.8,1.3l1.9,2l1.2,0.9l1.1,0l1.6,0.2
			l1.7,1.2l1.6,1.7l0.7,1.7l-0.1,2.2l0.1,2.1l0.6,4.3l1.1,8.5l2,8.7l0,1.4l-0.6,1.3l-0.7,1.2l0.3,1.3l0.5,1.6l0.5,1.7l-0.1,1.2
			l-0.9,1.2l-1.3,1l-1.6,0.5l-1.9-0.1l-1.4-0.2l-1.2-1l-0.9-1.4l-0.9-3.3L104.7,139.3z M83.8,124.3l-0.1,1.2l0.4,3.9l0.4,1.7
			l0.7,1.8l0.9,1.5l1.2,1.1l1.6,0.6l1.9-0.1l2.2-0.7l2.2-1.1l1.8-1.5l0.9-1.3l0.9-1.3l1-1.8l0.6-1.8l0.6-2.9l0.3-2.8l-0.3-4.4
			l-0.4-2.1l-0.5-2.1l-0.8-1.7l-1.1-1.2l-1.2-0.6l-1.5,0l-2.7,0.9l-1.7,0.9l-1.6,1.1l-1.7,1.8l-2.5,4.6l-0.5,2.2l-0.7,4.5l-0.1,0
			L83.8,124.3z"/>
		<path class="st2" d="M151.3,126.7l0,0.6l0.8,0.8l5.2,5.8l2.5,2.9l2.3,2.9l0.9,1.8l0,1.8l-0.2,1.3l-0.7,1.1l-1.1,0.8l-1.7,0.7
			l-1.3,0l-1.2-0.6l-0.6-1.1l-0.4-1.1l-1-0.9l-1.5-1.3l-1-1.4l-2.9-2.3l-2.7-2.4l-2.3-1.7l-2.2-1.4l-2.6-1.2l-3.9-0.3l-2.1,0.1
			l-0.9,0.3l-0.6,0.6l-0.1,1l0,3.2l-0.1,3.3l-0.1,1l-0.6,0.9l-0.9,0.4l-0.9,0.4l-0.8,1l-1.1,1l-1.3,0.4l-1.9-0.1l-1.6-0.6l-1.2-1.1
			l-0.7-1.5l-6.1-39.4l0.2-1.4l1-1.2l1.4-0.8l4.2-2.3l4.3-1.8l4.2-1.5l9.9-2.5l2.7-0.5l2.9-0.1l2.1,0.1l2.2,0.4l2.1,0.7l2.3,0.8
			l2.6,1.1l1.5,1.2l1.5,1.4l1.8,2.2l1.5,2.2l1.2,2.9l0.8,3l0.1,2.8l-0.3,2.9l-0.6,1.7l-0.7,1.9l-0.9,1.6l-1.1,1.6l-1.2,1.2l-1.3,1.2
			l-1.8,1.4L156,124l-1.8,1l-1.8,0.9L151.3,126.7z M129.8,105.2l0,1.2l0.9,3.3l0.7,3.4l0.2,3.4l0.2,3.3l0.2,0.9l0.4,0.5l0.9,0
			l4.9-0.3l2.2-1l3.6-2.7l3.7-2.5l1.5-1.9l0.7-1.6l0.5-1.5l0.3-2.9l-0.3-1.5l-0.6-1.2l-1.2-1l-1.7-0.6l-2.7,0.2l-14,2.1L129.8,105.2
			z"/>
		<path class="st2" d="M201.4,132.4l-0.4,0l-0.8,0.6l-1.6,1.2l-1.5,1l-1.5,0.9l-1.5,0.7l-2.3,0.9l-2.2,0.6l-3.4,0l-3.3-0.4l-2.8-1
			l-2.6-1.2l-1.9-1.2l-1.6-1.4l-1.8-2.2l-1.1-2.5l-0.9-2.5l-1.5-4.9l-0.5-2.5l-0.2-2.5l0-2.6l0.2-2.5l0.5-2.7l0.7-2.7l0.9-2.6l2-4.3
			l1-1.4l1.2-1.3l1.2-1.1l1.5-1.5l1.6-1l2.3-1.2l2.4-0.7l2.6-0.7l2.6,0l3.1,0.5l3.2,1.1l1.9,1l1.8,1.4l1.9,2l1.2,0.9l1.1,0l1.6,0.2
			l1.7,1.2l1.6,1.7l0.7,1.7l-0.1,2.2l0.1,2.1l0.6,4.3l1.1,8.5l2,8.7l0,1.4l-0.6,1.3l-0.7,1.2l0.3,1.3l0.5,1.6l0.5,1.7l-0.1,1.2
			l-0.9,1.2l-1.3,1l-1.6,0.5l-1.9-0.1l-1.4-0.2l-1.2-1l-0.9-1.4l-0.9-3.3L201.4,132.4z M180.4,117.4l-0.1,1.2l0.4,4l0.4,1.7l0.7,1.8
			l0.9,1.5l1.2,1.1l1.6,0.6l1.8-0.1l2.2-0.7l2.2-1.1l1.8-1.5l0.9-1.3l0.9-1.3l1-1.8l0.6-1.8l0.6-2.9l0.3-2.8l-0.3-4.4l-0.4-2.1
			l-0.5-2.1l-0.8-1.7l-1.1-1.2l-1.2-0.6l-1.5,0l-2.7,0.9l-1.7,0.9l-1.6,1.1l-1.7,1.8l-2.5,4.6l-0.5,2.2l-0.7,4.5l-0.1,0L180.4,117.4
			z"/>
		<path class="st2" d="M245.7,86.9l1.3-1.3l1.8-0.9l2.8-0.8l2.9-0.4l2.2,0.1l1.4,0.7l1.2,1.1l1.3,2.3l0.6,1.7l0.5,1.8l0.7,3.7
			l0.1,4.8l-0.2,4.8l-1.2,9.7l-0.4,1.8l-0.7,1.8l-0.8,1.8l-1,1.9l-1.7,2.3l-4.7,4.3l-2.3,2l-2.2,1.8l-1.8,1.2l-2,1l-1.9,0.8
			l-1.9,0.7l-3,0.7l-2.9,0.2l-2.6-0.2l-2.6-0.7l-2.2-0.9l-2.3-1.8l-2.6-2.6l-2.6-3l-1.7-2.2l-1.1-2.2l-1.1-3.2l-0.6-3.2l-0.2-2.4
			l-0.1-2.4l0-2.4l0.5-2.4l0.8-3l1.4-2.9l0.6-1.7l0.6-1.7l1.1-1.6l1.5-1.1l2.9-1.3l3-1.1l1.9-0.3l1.6,0.6l2,1.4l1.1,1.6l0.7,2.7
			l-2.7,7.8l-1,3.8l-0.7,4l-0.2,3l0.3,3.1l0.5,1.3l1.3,1.3l1.3,0.9l1.4,0.8l2.1,0.9l2.1,0.5l1.5,0l1.4-0.8l1.4-1.2l1.8-2l1.4-2
			l1-1.8l0.8-1.7l0.7-1.7l0.6-1.7l0.5-1.9l0.3-1.9l-0.1-3.8l-0.7-3.2l-1.1-3.1l-2.8-6.2l-0.1-1.9l0.5-2L245.7,86.9z"/>
		<path class="st2" d="M270.2,127.9l-0.4-1.4l-0.7-14.2l-1.4-15.9l-0.8-1.5l-0.8-1.4l0-1.4l0.4-1.9l0.2-1.9l0.8-1.3l1.2-1l2.1-1
			l2.2-1.3l1.5-0.6l2.7,0.2l2.8-0.1l5.5-0.7l3.1,0.5l14.7,7.8l1.2,1l1.1,1.1l1.1,2l0.9,3.8l0.8,3.9l1,7.8l-0.2,2.6l-0.6,2.6
			l-1.1,2.2l-1.3,1.3l-1.4,1.6l-1.7,1.9l-1.1,1.4l-1.3,1.4l-1.5,1.3l-1.5,0.8l-8.9,2.5l-9,1.9l-3.4-0.2l-1.9-0.9l-1.4-1l-1.4-0.9
			L270.2,127.9z M281.6,123.5l1.6,0.5l2.2-0.4l4.3-2l2.1-1.2l2.1-1.2l1.3-1l1.4-1.2l2.6-2.8l1.6-2.2l0.9-2l0.7-2.1l-0.2-3.3
			l-0.7-1.8l-0.8-1.6l-1.2-2l-1.2-1.8l-1.8-1.8l-3-2.1l-2-0.8l-4,0l-2.7,0.5l-2.7,0.7l-1.1,0.4l-0.6,0.9l-0.2,1.1l0.9,26.4
			L281.6,123.5z"/>
		<path class="st2" d="M330.5,108.7l-0.2,0.6l0.3,0.9l0.6,1.4l1.6,2.1l2,1.5l2.4,1l2.4,0.9l3,0.6l3.1,0.2l1.4-0.2l1.4-0.9l1.4-1.7
			l0.8-1.2l1.1-0.8l1.3-0.4l1.7,0.5l1.1,0.7l0.7,1.1l0,1.1l0.3,1.5l0.4,1.4l-0.4,1.4l-0.7,1.4l-1.2,0.9l-4.5,3.1l-2.4,1.6l-2.3,1.4
			l-2.3,1.1l-2.3,0.6l-3.8,0.1l-1.8-0.2l-1.8-0.3l-2.5-0.7l-2.4-1.1l-2.2-1.5l-2.1-1.7l-3.9-3.4l-1.7-1.8l-1.2-1.9l-1.1-1.8l-0.9-2
			l-0.8-1.8l-0.5-1.9l-0.3-2.7l0.2-2.7l0.6-3.1l0.7-2.9l1-3l1.2-3l1.3-3.3l0.9-1.6l1-1.6l1.3-1.7l3.6-3.7l2.5-1.9l2.6-1.6l2.7-1.1
			l2.1-0.6l2.1-0.4l2.2-0.2l2.1,0.1l2.2,0.4l2.1,1.1l1.4,0.7l1.6,0.9l2.1,2l1.2,2.1l0.6,1.7l0.5,1.7l0.7,3.5l0,3.2l-0.5,3.3
			l-0.5,1.6l-0.8,1.6l-0.9,1.4l-1,1.3l-2.3,2l-5.4,2.9l-1.8,0.7l-1.7,0.6l-4.1,0.3l-2.1,0.1l-2-0.3L330.5,108.7z M331.1,99.6
			l1.3,0.4l2.9-0.2l2-0.7l2.1-0.9l1.7-1.2l1.5-1.9l0.9-2.2l0.8-2.1l0.3-1.8l-0.4-1.2l-0.8-1l-1.2-0.5l-1.7,0l-2.3,0.8l-2.1,1.5
			l-1.3,1.3l-2.5,4.4l-1.2,2.9l-0.3,1L331.1,99.6z"/>
		<path class="st2" d="M396.2,109.2l0,0.6l0.8,0.8l5.2,5.8l2.5,2.9l2.3,2.9l0.9,1.8l0,1.8l-0.2,1.3l-0.7,1.1l-1.1,0.8l-1.7,0.7
			l-1.3,0l-1.2-0.6l-0.6-1.1l-0.4-1.1l-1-0.9l-1.5-1.3l-1-1.4l-2.9-2.3l-2.7-2.4l-2.3-1.7l-2.2-1.4l-2.6-1.2l-3.9-0.3l-2.1,0.1
			l-0.9,0.3l-0.6,0.6l-0.1,1l0,3.2l-0.1,3.3l-0.1,0.9l-0.6,0.9l-0.9,0.4l-0.9,0.4l-0.8,1l-1.1,1l-1.3,0.4l-1.9-0.1l-1.6-0.6
			l-1.2-1.1l-0.7-1.5l-6.1-39.4l0.2-1.4l1-1.2l1.4-0.8l4.2-2.3l4.3-1.8l4.2-1.5l9.9-2.5l2.7-0.5l2.9-0.1l2.1,0.1l2.2,0.4l2.1,0.7
			l2.3,0.8l2.6,1.1l1.5,1.2l1.5,1.4l1.8,2.2l1.5,2.2l1.2,2.9l0.8,3l0.1,2.8l-0.3,2.9l-0.6,1.7l-0.7,1.9l-0.9,1.6l-1.1,1.6l-1.2,1.2
			l-1.3,1.2l-1.8,1.4l-1.8,1.1l-1.8,1l-1.8,0.9L396.2,109.2z M374.7,87.6l-0.1,1.2l0.9,3.3l0.7,3.4l0.2,3.4l0.2,3.3l0.2,0.9l0.4,0.5
			l0.9,0l4.8-0.3l2.2-1l3.6-2.7l3.7-2.5l1.5-1.9l0.7-1.6l0.5-1.5l0.3-2.9l-0.3-1.5l-0.6-1.2l-1.2-1l-1.7-0.6l-2.7,0.2l-14,2.1
			L374.7,87.6z"/>
		<path class="st2" d="M446.4,82.1l0.9,0.6l1,0.2l1.9-0.1l3.3,0.5l2.7,1.3l2.8,1.6l1.9,0.9l2.8,0.6l1.7,0.9l1.5,1.4l1.1,2l1.5,4.3
			l0.5,2.1l0.2,2.2l0.2,2.1l-0.9,2l-1.2,1.9l-1.4,1.9l-3,3.8l-2.2,2.2l-2.4,2L457,118l-2,1.2l-4.1,2l-3.6,1.2l-3.5,0.8l-3.6,0.5
			l-3.6,0.3l-6.1-0.1l-3-0.3l-3-0.5l-3.2-1.1l-1.5-0.6l-1.4-0.8l-2.5-1.6l-1.1-1.5l-1-1.8l-0.6-1.8l-0.9-3.5l-0.3-5l0.6-1.7l1-1.4
			l0.8-1.3l0.9-1.2l1.3-0.7l1.4-0.2l1.2,0.5l1,0.9l1.3,1.9l0.9,2.5l0.8,2.5l0.9,3l0.8,1.2l1.3,0.8l1.9,0.9l1.9,0.5l8.2,0.1l8.2-0.3
			l2.6-0.4l2.7-0.6l1.8-1.1l1.1-1.4l1.1-2.5l0.3-2l0.2-2l-0.2-2.3l-1-2.1l-1.1-1.3l-1.2-0.7l-1.5-0.4l-2.2-0.4l-2.2-0.2l-4.5,0
			l-8.8,0.4l-1.9-0.3l-1.9-0.6l-3.8-1.5l-2.4-1.2l-1.9-1.6l-1.3-2.2l-0.6-2.5l0.4-2l1.4-2l2-2.6l2.3-2.3l1.3-1l1.3-0.8l2.9-1.4
			l3.8-1.8l3.8-1.4l3.8-1.1l5.8-1.2l2.4-1l12.7-1.2l1.2,0.2l1,0.7l0.6,1l0.5,1.6l-0.3,3.3l-0.5,1.3l-1,1.2l-1.5,0.6l-1.6,0.1
			l-1.2,0.1l-1.2,0.7l-1.3,0.7l-1.4,0.1l-3.4,0.2l-3.3,1.1l-2.8,1.5L446.4,82.1z"/>
		<g>
			<path class="st2" d="M318.6,20.3l0.1-0.4l0.3-0.4l0.6-0.4l0.8-0.7l0.8-0.6l0.8-0.6l0.8-0.5l1.3-0.5l1.2-0.4l1.3-0.3l1.3-0.2
				l1-0.1l1,0l1,0.1l1,0.2l0.8,0.3l0.8,0.3l1.6,0.8l1,0.6l0.7,0.7l0.7,1l0.7,1l1.3,2.1l0.5,0.9l0.3,0.9l0.1,1.7l-0.2,1.8l-0.2,0.8
				l-0.2,0.9l-0.3,0.9l-0.4,0.9l-0.5,0.9l-0.7,0.8l-0.7,0.8l-0.8,0.7l-1.5,1.3l-0.8,0.6l-0.8,0.5l-1.6,0.8l-0.8,0.3l-0.8,0.3
				l-1.6,0.4l-1.4,0.1l-1.4,0l-2.8-0.3l-1.3-0.3l-1.3-0.5l-0.7-0.3l-0.7-0.5l-0.7-0.7l-0.6-0.7l-0.6-0.9l-0.4-1l-0.4-1.3l-0.3-1.3
				l-0.2-1.4l-0.1-1.3l0.1-1l0.2-1.1l0.2-1.1l0.3-1.1l0.2-0.7l0.3-0.7l0.4-0.7l0.4-0.7L318.6,20.3z M333.4,22.1l-1.2-0.4l-1.2-0.3
				l-1.1,0.1l-1,0.5l-1,0.6l-1.2,0.8l-0.6,0.4l-0.6,0.5l-0.8,1l-0.7,0.9l-0.4,0.6l-0.4,0.6l-0.5,1.2l-0.2,1l0.2,1l0.7,1.2l0.5,0.6
				l0.7,0.4l1.2,0.4l1.2-0.1l1-0.3l1-0.3l1-0.5l1-0.6l1-0.6l1-0.7l0.5-0.5l0.5-0.7l0.5-1.2l0.3-0.9l0.2-0.9l-0.2-1.5l-0.3-0.7
				l-0.3-0.8l-0.5-0.6L333.4,22.1z"/>
			<path class="st2" d="M352.6,23.4l0.4,0.1l2.6-0.2l1.1-0.2l1.1-0.3l0.6-0.2l0.6,0.1l0.5,0.4l0.3,0.4l0.5,0.2l0.5,0.1l0.7,0.3
				l0.5,0.5l0.2,0.6l-0.1,0.6l-0.4,0.6l-0.5,0.5l-0.6,0.2l-1.5,0l-1.4,0.3l-1.1,0.3l-1.1,0.4l-1.1,0.5l-1.1,0.6l-0.5,0.3l-0.3,0.5
				l-0.1,0.5l0,2l0.2,2.6l-0.2,0.6l-0.4,0.8l-0.2,0.5l-0.5,0.3l-0.8,0.5l-0.6,0.2l-0.6-0.1l-0.4-0.3l-0.3-0.5l-1.1-4.9l-0.8-4.9
				l-1.2-9.8l0-0.7l0.4-0.7l0.4-0.5l0.7-0.3l7-1.5l3.6-0.7l3.6-0.3l0.7,0l0.6,0.3l0.4,0.5l0.3,0.9l0,0.9L363,16l-0.5,0.6l-0.6,0.2
				l-1.2,0l-1.2,0.1l-1.2,0.1l-1.1,0.3l-2.3,0.6l-1.1,0.4l-1.1,0.4l-0.5,0.3l-0.2,0.4l0,0.5l0.4,3L352.6,23.4z"/>
			<path class="st2" d="M317.4,69.3l-0.4,0.2l-0.4,0l-0.8-0.1l-0.5-0.2l-0.2-0.4l-0.1-0.5l-0.3-0.4l-0.5-0.3l-0.5-0.3l-0.5-0.5
				l-0.6-1l-2.2-13.5l-0.3-0.2h-0.4l-1.7,0.1l-1.7,0l-0.6,0l-0.7-0.4l-0.7-0.6l-0.4-0.7l-0.2-0.7l-0.5-1.1l-0.1-1l0.2-0.5l0.3-0.4
				l0.5-0.2l18.4-2.5l0.6,0.3l0.3,0.4l0.3,0.3l0.5,0.1l0.6,0.2l0.5,0.4l0.3,0.6l0.2,1l-0.1,1l-0.3,0.7l-0.4,0.5l-0.5,0.1l-5.3,0.7
				l-0.2,0.4l-0.1,0.4L318,64.9l0.2,0.6l0.5,0.6l0.2,0.5l-0.1,0.5l-0.4,0.3l-0.5,0.3l-0.2,0.4l-0.1,0.5L317.4,69.3z"/>
			<path class="st2" d="M339.4,53.4l0.3,0.1l0.4-0.1l8.2-1.6l0.2-0.3l0.1-0.5l0.2-2.6l0.1-2.7l0.2-0.8l0.5-0.7l0.9-0.8l0.9-0.9
				l0.6-0.5l0.6-0.2l0.9,0.1l0.7,0.4l0.5,0.6l0.2,0.7l-2.3,14.9l-0.5,5.5l-0.3,0.4l-0.5,0.3l-1,0.3l-0.9,0l-0.9-0.1l-0.6-0.2
				l-0.4-0.4l-0.2-0.6l-0.1-0.9l0.4-1.1l0.2-0.9l0-0.9l0-2.2l-0.2-0.3l-0.3-0.1l-0.4,0l-1.6,0.1l-1.6,0.3l-3.2,0.8l-0.6,0.1
				l-0.4,0.2l-0.2,0.4l0,0.5l-0.3,1.6l0,1.2l-0.1,1.2l-0.5,2.4l-0.2,0.6l-0.6,0.6l-0.7,0.5l-0.8,0.2l-0.8-0.1l-1-0.3l-0.6-0.4
				l-0.4-0.5l-0.1-0.6L333,55.8l-0.2-10.4l0.2-0.6l0.5-0.5l0.6-0.5l0.5-0.6l0.6-0.7l0.7-0.3l0.9,0l1.2,0.3l0.6,0.4l0.4,0.5l0.1,0.6
				l0.2,1.1l0.1,1.1l0.2,2.2l-0.1,2.2l-0.2,2.2L339.4,53.4z"/>
			<path class="st2" d="M368.2,54.7l-0.1,0.3l0.2,0.4l0.3,0.6l0.7,1l0.9,0.7l1.1,0.5l1.1,0.4l1.4,0.3l1.4,0.1l0.7-0.1l0.6-0.4
				l0.6-0.8l0.4-0.5l0.5-0.4l0.6-0.2l0.8,0.2l0.5,0.3l0.3,0.5l0,0.5l0.1,0.7l0.2,0.6l-0.2,0.6l-0.3,0.6l-0.5,0.4l-2,1.4l-1.1,0.7
				l-1.1,0.7l-1.1,0.5l-1,0.3l-1.7,0l-0.8-0.1l-0.8-0.1l-1.2-0.3l-1.1-0.5l-1-0.7l-1-0.8l-1.8-1.5l-0.8-0.8l-0.5-0.8l-0.5-0.8
				l-0.4-0.9l-0.3-0.8l-0.2-0.9l-0.1-1.2l0.1-1.2l0.3-1.4l0.3-1.3l0.5-1.4l0.5-1.4l0.6-1.5l0.4-0.7l0.5-0.7l0.6-0.8l1.6-1.7l1.1-0.9
				l1.2-0.7l1.2-0.5l1-0.3l1-0.2l1-0.1l1,0.1l1,0.2l1,0.5l0.7,0.3l0.7,0.4l0.9,0.9l0.5,0.9l0.3,0.8l0.2,0.8l0.3,1.6l0,1.4L379,49
				l-0.2,0.7l-0.4,0.7l-0.4,0.6l-0.5,0.6l-1,0.9l-2.4,1.3l-0.8,0.3l-0.8,0.3l-1.9,0.1l-0.9,0.1l-0.9-0.1L368.2,54.7z M368.5,50.5
				l0.6,0.2l1.3-0.1l0.9-0.3l0.9-0.4l0.8-0.6l0.7-0.8l0.4-1l0.4-1l0.1-0.8l-0.2-0.5l-0.3-0.5l-0.5-0.2l-0.8,0l-1.1,0.4l-1,0.7
				l-0.6,0.6l-1.1,2l-0.6,1.3l-0.1,0.5L368.5,50.5z"/>
		</g>
	</g>
	<g>
		<path class="st3" d="M52.7,83.5l-0.5,0l-1,0.7l-1.8,1.4l-1.7,1.1l-1.7,1.1l-1.7,0.8l-2.6,1l-2.6,0.7l-3.9,0l-3.8-0.5l-3.2-1.2
			l-3-1.4L23,86l-1.8-1.6l-2.1-2.6l-1.3-2.9l-1.1-2.9l-1.7-5.7l-0.5-2.9l-0.2-2.9l0-2.9l0.3-2.9l0.6-3.1l0.8-3.1l1-3l2.3-4.9
			l1.2-1.6l1.4-1.5l1.3-1.3l1.7-1.7l1.8-1.1l2.7-1.4l2.7-0.8l3-0.8l3,0l3.5,0.5l3.7,1.2l2.2,1.2l2.1,1.5l2.1,2.2l1.3,1l1.3,0
			l1.8,0.3l1.9,1.3l1.9,1.9l0.8,2l-0.1,2.5l0.2,2.4l0.7,4.9l1.3,9.8l2.3,10l0,1.6l-0.7,1.5l-0.8,1.4l0.3,1.4l0.6,1.9l0.5,2l-0.1,1.4
			l-1.1,1.4l-1.5,1.1l-1.9,0.6l-2.1-0.1l-1.6-0.3L55.3,90l-1-1.6l-1.1-3.8L52.7,83.5z M28.7,66.4l-0.1,1.3l0.4,4.5l0.5,2l0.9,2
			l1,1.7l1.4,1.3l1.8,0.6l2.1-0.1l2.5-0.8l2.5-1.2l2.1-1.7l1.1-1.5l1-1.5L47,71l0.7-2.1l0.7-3.4l0.3-3.3l-0.4-5.1L48,54.8l-0.6-2.4
			l-0.9-1.9L45.3,49l-1.4-0.7l-1.7,0l-3.1,1l-1.9,1l-1.8,1.3l-1.9,2l-2.9,5.3l-0.6,2.5l-0.8,5.2l-0.2,0L28.7,66.4z"/>
		<path class="st3" d="M91.4,89.2l-0.9,0.5l-1,0.1l-1.8-0.3L86.6,89L86,88.1L85.9,87l-0.6-1l-1-0.7l-1.1-0.6L82,83.6l-1.3-2.1
			l-4.9-29.7l-0.7-0.6l-1,0l-3.8,0.3l-3.7,0.1l-1.4,0l-1.4-0.8l-1.5-1.3l-0.9-1.6L61,46.2l-1.1-2.3l-0.2-2.1l0.3-1.1l0.7-0.9
			l1.1-0.4l40.4-5.6l1.2,0.6l0.8,1l0.7,0.8l1,0.2l1.3,0.5l1,0.8l0.6,1.3l0.4,2.1l-0.3,2.1l-0.6,1.6l-1,1.1l-1.2,0.3l-11.6,1.6
			l-0.5,0.8l-0.3,1l-1.3,29.9l0.5,1.4l1,1.3l0.4,1.1l-0.3,1l-1,0.7l-1.1,0.7l-0.5,1l-0.1,1.2L91.4,89.2z"/>
		<path class="st3" d="M141.5,85.6l-0.9,0.5l-1,0.1l-1.8-0.3l-1.1-0.5l-0.5-0.9l-0.1-1.1l-0.6-1l-1-0.7l-1.1-0.6l-1.1-1.2l-1.3-2.1
			l-5-29.7l-0.7-0.6l-1,0l-3.8,0.3l-3.7,0.1l-1.4,0l-1.4-0.8l-1.5-1.3l-0.9-1.6l-0.4-1.6l-1.1-2.3l-0.2-2.1l0.3-1.1l0.7-0.9l1.1-0.3
			l40.4-5.6l1.2,0.6l0.8,1l0.7,0.8l1,0.2l1.3,0.5l1,0.8l0.6,1.3l0.4,2.1l-0.3,2.1l-0.6,1.6l-0.9,1.1l-1.2,0.3l-11.6,1.6l-0.5,0.8
			l-0.3,1l-1.3,29.9l0.5,1.4l1,1.3l0.4,1.1l-0.3,1l-1,0.7l-1.1,0.7l-0.6,1l-0.1,1.2L141.5,85.6z"/>
		<path class="st3" d="M193.2,72.1l-0.4,0l-0.9,0.6l-1.6,1.2l-1.5,1l-1.5,0.9l-1.5,0.7l-2.3,0.9l-2.2,0.6l-3.4,0l-3.3-0.4l-2.8-1
			l-2.6-1.2l-1.9-1.2l-1.6-1.4l-1.8-2.2l-1.1-2.5l-0.9-2.5l-1.5-4.9l-0.5-2.5l-0.2-2.5l0-2.6l0.2-2.5l0.5-2.7l0.7-2.7l0.8-2.6l2-4.3
			l1-1.4l1.2-1.3l1.2-1.1l1.5-1.5l1.6-1l2.3-1.2l2.4-0.7l2.6-0.7l2.6,0l3.1,0.5l3.2,1.1l1.9,1l1.8,1.4l1.9,2l1.2,0.9l1.1,0l1.6,0.2
			l1.7,1.2l1.6,1.7l0.7,1.7l-0.1,2.2l0.1,2.1l0.6,4.3l1.1,8.5l2,8.7l0,1.4l-0.6,1.3l-0.7,1.2l0.3,1.3l0.5,1.6l0.5,1.7l-0.1,1.2
			l-0.9,1.2l-1.3,1L200,79l-1.9-0.1l-1.4-0.2l-1.2-1l-0.9-1.4l-0.9-3.3L193.2,72.1z M172.3,57.2l-0.1,1.2l0.4,3.9l0.4,1.7l0.7,1.8
			l0.9,1.5l1.2,1.1l1.6,0.6l1.8-0.1l2.2-0.7l2.2-1.1l1.8-1.5l0.9-1.3l0.9-1.3l1-1.8l0.6-1.8l0.6-2.9l0.3-2.8l-0.3-4.4l-0.4-2.1
			l-0.5-2.1l-0.8-1.7l-1.1-1.2l-1.2-0.6l-1.5,0l-2.7,0.9l-1.7,0.9l-1.6,1.1l-1.7,1.8l-2.5,4.6l-0.5,2.2l-0.7,4.5l-0.1,0L172.3,57.2z
			"/>
		<path class="st3" d="M236.8,36.1l-1,0.2l-1-0.1l-4.9-2l-1.9-0.3l-2.1,0.3l-2.2,1.2l-2.3,1.8l-1.8,2.3l-0.8,1.7l-1.3,3.6l-0.4,1.9
			l-0.4,3.6l0.3,3.2l0.8,3.3l0.6,1.6l0.8,1.7l1,1.5l1.3,1.4l1.7,1.4l1.8,1.1l2.3,0.9l2.2-0.1l2.2-1.2l1.9-1.7l1.7-1.7l1.5-2.2l0.6-2
			l0.5-2l0.6-1.1l1.2-0.9l1.2-0.2l1.5,0.3l1,0.7L244,55l0.1,1.3l-0.3,2.2l-0.3,2.2l-1.2,2.5l-1.9,2.4l-2.2,2.4l-2.2,1.8l-2.3,1.5
			l-3.8,2.2l-1.9,0.8l-1.8,0.6l-2.5,0.3l-2.6-0.1l-2.5-0.8l-2.6-1.1l-3.4-2l-1.6-1.1l-1.5-1.2l-1.3-1.3l-1-1.2l-1.4-2.9l-1-2.8
			l-0.8-2.8l-0.6-2.9l-0.2-2.8l0-2.8l0.4-2.7l0.5-2.7l0.8-2.7l1.1-2.8l0.7-1.4l0.9-1.3l1.7-2.2l2.1-2.2l1.3-1.1l1.3-1l2.6-1.7
			l5.4-2.9l2.2-0.6l3.5,0.4l2.5,1l2.6,1.4l1.8,1.2l1.8,1.5l1.1,1.4l0.2,1.4l-0.4,2L236.8,36.1z"/>
		<path class="st3" d="M261.3,41.5l0.9-0.3l0.8-0.6l19.5-16.1l1.4,0l1.2-0.2l1.1-1l1.1-0.8l1.3,0l1.2,0.8l1.2,1.3l0.5,1.4l0.1,1.2
			l-0.5,1l-1,0.7l-1.3,0.9l-1.3,1l-5.3,4.9l-5.5,5.5l-0.8,1l-0.1,1l0.6,0.8l4,4.8l3.4,4.7l1.1,1.4l1.1,1.2l1,0.7l1.1,0.1l1.2-0.6
			l1.4-0.2l1.4,0.6l1.5,1l0.9,1.3l0.4,1.4l0.1,3.8l-0.5,1.8l-0.9,1.7l-0.9,1.5l-1.1,1.4l-1.5,1.4l-1.5,0.6l-2,0l-2-0.7l-1.5-1
			l-0.9-1.4l-0.5-1.8l-0.8-1.8l-1.6-2.3l-1.4-1.2l-1.6-1.2l-5-2.6l-2.4-1.2l-2.5-0.9l-1.8-0.5l-1.3,0.2l-1.1,0.9l-0.9,1.3l-0.3,1.5
			l0.2,2.5l0.2,2.5l0.1,1.6l-0.3,1.2l-0.9,0.9l-1,0.9l-1,1.1l-1.3,0.5l-1.3,0.2l-1.3,0.7l-1.6,0.3l-1-0.1l-1-0.7l-0.7-1l-0.7-1.8
			L247.3,55l-1.4-14.3l0-6.5l0.2-6.5l0.4-1.2l1-1l1.2-0.4l2.2,0l1-0.1l1.3-1.4l0.6-0.4l0.7-0.9l0.9-1l1.1-0.3l1.3,0.4l1.4,0.9
			l1.1,1.3l0.5,1.6l0.4,3.5l0.2,3.6l-0.1,3.6l-0.6,4.6L261.3,41.5z"/>
		<path class="st3" d="M42.2,104.6l0.6-0.2l0.8-0.7l1.2-1.1l1.3-1l1.7-1l1.7-0.8l2.6-0.5l2.5-0.1l2.7,0.4l2.6,0.8l2,1.3l1.9,2.2
			l0.9,2l0.9,1.8l1.4,2.3l1.1,3.3l0.5,3.2l0.5,6.6l0.1,6.6l-0.7,14.6l-0.6,0.9l-1,0.7l-2.6,1.5l-1.4,0.2l-1.3-0.5l-1-1.1l-0.5-0.8
			l-1-0.5l-1.1-0.5l-0.8-0.9l-0.4-1.3l-1.2-14.4l-0.9-15.6l-0.3-0.6l-0.8-0.4l-0.9,0.2l-1,0.5l-2.3,2.1l-1.6,2.1l-0.9,1.8l-0.6,1.8
			L46,131.9l-0.1,12.4l-0.7,2.1l-0.8,1.1l-1.2,0.8l-2.3,1l-1.8,0.3l-1.5-0.2l-1-0.6l-0.8-1l-0.2-1.1l-0.1-13.3l0.1-16.2l-1-2.5
			l-0.5-0.9l-0.8-0.4l-1,0.3l-1,1l-1.5,2l-1,1.6l-0.9,1.5l-1.2,3l-1.3,5.3l-1.1,5.3l-0.6,5.3l-0.3,5.3l-0.3,1.2l-1,1l-1.7,1.4
			l-2.1,0.9l-3.2,0.2l-1.4-0.2l-1.2-0.7l-0.6-1.2l-0.7-1.7l-0.5-2.7l0.9-5.7l1.9-17.2l0.8-2.6l1.1-2.6l2.5-5.1l1.6-2.1l2.1-2l2-1.6
			L26,102l2.3-0.8L32,101l3.7,0.3l2.3,0.8l1.4,0.8l1.2,0.9L42.2,104.6z"/>
		<path class="st3" d="M104.7,139.3l-0.4,0l-0.9,0.6l-1.6,1.2l-1.5,1l-1.5,0.9l-1.5,0.7l-2.3,0.9l-2.2,0.6l-3.4,0l-3.3-0.4l-2.8-1
			l-2.6-1.2l-1.9-1.2l-1.6-1.4l-1.8-2.2l-1.1-2.5l-0.9-2.5l-1.5-4.9l-0.5-2.5l-0.2-2.5l0-2.6l0.2-2.5l0.5-2.7l0.7-2.7l0.9-2.6l2-4.3
			l1-1.4l1.2-1.3l1.2-1.1l1.5-1.5l1.6-1l2.3-1.2l2.4-0.7l2.6-0.7l2.6,0L95,97l3.2,1.1l1.9,1l1.8,1.3l1.9,2l1.2,0.9l1.1,0l1.6,0.2
			l1.7,1.2l1.6,1.7l0.7,1.7l-0.1,2.2l0.1,2.1l0.6,4.3l1.1,8.5l2,8.7l0,1.4l-0.6,1.3l-0.7,1.2l0.3,1.3l0.5,1.6l0.5,1.7l-0.1,1.2
			l-0.9,1.2l-1.3,1l-1.6,0.5l-1.9-0.1l-1.4-0.2l-1.2-1l-0.9-1.4l-0.9-3.3L104.7,139.3z M83.8,124.3l-0.1,1.2l0.4,3.9l0.4,1.7
			l0.7,1.8l0.9,1.5l1.2,1.1l1.6,0.6l1.9-0.1l2.2-0.7l2.2-1.1l1.8-1.5l0.9-1.3l0.9-1.3l1-1.8l0.6-1.8l0.6-2.9l0.3-2.8l-0.3-4.4
			l-0.4-2.1l-0.5-2.1l-0.8-1.7l-1.1-1.2l-1.2-0.6l-1.5,0l-2.7,0.9l-1.7,0.9l-1.6,1.1l-1.7,1.8l-2.5,4.6l-0.5,2.2l-0.7,4.5l-0.1,0
			L83.8,124.3z"/>
		<path class="st3" d="M151.3,126.7l0,0.6l0.8,0.8l5.2,5.8l2.5,2.9l2.3,2.9l0.9,1.8l0,1.8l-0.2,1.3l-0.7,1.1l-1.1,0.8l-1.7,0.7
			l-1.3,0l-1.2-0.6l-0.6-1.1l-0.4-1.1l-1-0.9l-1.5-1.3l-1-1.4l-2.9-2.3l-2.7-2.4l-2.3-1.7l-2.2-1.4l-2.6-1.2l-3.9-0.3l-2.1,0.1
			l-0.9,0.3l-0.6,0.6l-0.1,1l0,3.2l-0.1,3.3l-0.1,1l-0.6,0.9l-0.9,0.4l-0.9,0.4l-0.8,1l-1.1,1l-1.3,0.4l-1.9-0.1l-1.6-0.6l-1.2-1.1
			l-0.7-1.5l-6.1-39.4l0.2-1.4l1-1.2l1.4-0.8l4.2-2.3l4.3-1.8l4.2-1.5l9.9-2.5l2.7-0.5l2.9-0.1l2.1,0.1l2.2,0.4l2.1,0.7l2.3,0.8
			l2.6,1.1l1.5,1.2l1.5,1.4l1.8,2.2l1.5,2.2l1.2,2.9l0.8,3l0.1,2.8l-0.3,2.9l-0.6,1.7l-0.7,1.9l-0.9,1.6l-1.1,1.6l-1.2,1.2l-1.3,1.2
			l-1.8,1.4L156,124l-1.8,1l-1.8,0.9L151.3,126.7z M129.8,105.2l0,1.2l0.9,3.3l0.7,3.4l0.2,3.4l0.2,3.3l0.2,0.9l0.4,0.5l0.9,0
			l4.9-0.3l2.2-1l3.6-2.7l3.7-2.5l1.5-1.9l0.7-1.6l0.5-1.5l0.3-2.9l-0.3-1.5l-0.6-1.2l-1.2-1l-1.7-0.6l-2.7,0.2l-14,2.1L129.8,105.2
			z"/>
		<path class="st3" d="M201.4,132.4l-0.4,0l-0.8,0.6l-1.6,1.2l-1.5,1l-1.5,0.9l-1.5,0.7l-2.3,0.9l-2.2,0.6l-3.4,0l-3.3-0.4l-2.8-1
			l-2.6-1.2l-1.9-1.2l-1.6-1.4l-1.8-2.2l-1.1-2.5l-0.9-2.5l-1.5-4.9l-0.5-2.5l-0.2-2.5l0-2.6l0.2-2.5l0.5-2.7l0.7-2.7l0.9-2.6l2-4.3
			l1-1.4l1.2-1.3l1.2-1.1l1.5-1.5l1.6-1l2.3-1.2l2.4-0.7l2.6-0.7l2.6,0l3.1,0.5l3.2,1.1l1.9,1l1.8,1.4l1.9,2l1.2,0.9l1.1,0l1.6,0.2
			l1.7,1.2l1.6,1.7l0.7,1.7l-0.1,2.2l0.1,2.1l0.6,4.3l1.1,8.5l2,8.7l0,1.4l-0.6,1.3l-0.7,1.2l0.3,1.3l0.5,1.6l0.5,1.7l-0.1,1.2
			l-0.9,1.2l-1.3,1l-1.6,0.5l-1.9-0.1l-1.4-0.2l-1.2-1l-0.9-1.4l-0.9-3.3L201.4,132.4z M180.4,117.4l-0.1,1.2l0.4,4l0.4,1.7l0.7,1.8
			l0.9,1.5l1.2,1.1l1.6,0.6l1.8-0.1l2.2-0.7l2.2-1.1l1.8-1.5l0.9-1.3l0.9-1.3l1-1.8l0.6-1.8l0.6-2.9l0.3-2.8l-0.3-4.4l-0.4-2.1
			l-0.5-2.1l-0.8-1.7l-1.1-1.2l-1.2-0.6l-1.5,0l-2.7,0.9l-1.7,0.9l-1.6,1.1l-1.7,1.8l-2.5,4.6l-0.5,2.2l-0.7,4.5l-0.1,0L180.4,117.4
			z"/>
		<path class="st3" d="M245.7,86.9l1.3-1.3l1.8-0.9l2.8-0.8l2.9-0.4l2.2,0.1l1.4,0.7l1.2,1.1l1.3,2.3l0.6,1.7l0.5,1.8l0.7,3.7
			l0.1,4.8l-0.2,4.8l-1.2,9.7l-0.4,1.8l-0.7,1.8l-0.8,1.8l-1,1.9l-1.7,2.3l-4.7,4.3l-2.3,2l-2.2,1.8l-1.8,1.2l-2,1l-1.9,0.8
			l-1.9,0.7l-3,0.7l-2.9,0.2l-2.6-0.2l-2.6-0.7l-2.2-0.9l-2.3-1.8l-2.6-2.6l-2.6-3l-1.7-2.2l-1.1-2.2l-1.1-3.2l-0.6-3.2l-0.2-2.4
			l-0.1-2.4l0-2.4l0.5-2.4l0.8-3l1.4-2.9l0.6-1.7l0.6-1.7l1.1-1.6l1.5-1.1l2.9-1.3l3-1.1l1.9-0.3l1.6,0.6l2,1.4l1.1,1.6l0.7,2.7
			l-2.7,7.8l-1,3.8l-0.7,4l-0.2,3l0.3,3.1l0.5,1.3l1.3,1.3l1.3,0.9l1.4,0.8l2.1,0.9l2.1,0.5l1.5,0l1.4-0.8l1.4-1.2l1.8-2l1.4-2
			l1-1.8l0.8-1.7l0.7-1.7l0.6-1.7l0.5-1.9l0.3-1.9l-0.1-3.8l-0.7-3.2l-1.1-3.1l-2.8-6.2l-0.1-1.9l0.5-2L245.7,86.9z"/>
		<path class="st3" d="M270.2,127.9l-0.4-1.4l-0.7-14.2l-1.4-15.9l-0.8-1.5l-0.8-1.4l0-1.4l0.4-1.9l0.2-1.9l0.8-1.3l1.2-1l2.1-1
			l2.2-1.3l1.5-0.6l2.7,0.2l2.8-0.1l5.5-0.7l3.1,0.5l14.7,7.8l1.2,1l1.1,1.1l1.1,2l0.9,3.8l0.8,3.9l1,7.8l-0.2,2.6l-0.6,2.6
			l-1.1,2.2l-1.3,1.3l-1.4,1.6l-1.7,1.9l-1.1,1.4l-1.3,1.4l-1.5,1.3l-1.5,0.8l-8.9,2.5l-9,1.9l-3.4-0.2l-1.9-0.9l-1.4-1l-1.4-0.9
			L270.2,127.9z M281.6,123.5l1.6,0.5l2.2-0.4l4.3-2l2.1-1.2l2.1-1.2l1.3-1l1.4-1.2l2.6-2.8l1.6-2.2l0.9-2l0.7-2.1l-0.2-3.3
			l-0.7-1.8l-0.8-1.6l-1.2-2l-1.2-1.8l-1.8-1.8l-3-2.1l-2-0.8l-4,0l-2.7,0.5l-2.7,0.7l-1.1,0.4l-0.6,0.9l-0.2,1.1l0.9,26.4
			L281.6,123.5z"/>
		<path class="st3" d="M330.5,108.7l-0.2,0.6l0.3,0.9l0.6,1.4l1.6,2.1l2,1.5l2.4,1l2.4,0.9l3,0.6l3.1,0.2l1.4-0.2l1.4-0.9l1.4-1.7
			l0.8-1.2l1.1-0.8l1.3-0.4l1.7,0.5l1.1,0.7l0.7,1.1l0,1.1l0.3,1.5l0.4,1.4l-0.4,1.4l-0.7,1.4l-1.2,0.9l-4.5,3.1l-2.4,1.6l-2.3,1.4
			l-2.3,1.1l-2.3,0.6l-3.8,0.1l-1.8-0.2l-1.8-0.3l-2.5-0.7l-2.4-1.1l-2.2-1.5l-2.1-1.7l-3.9-3.4l-1.7-1.8l-1.2-1.9l-1.1-1.8l-0.9-2
			l-0.8-1.8l-0.5-1.9l-0.3-2.7l0.2-2.7l0.6-3.1l0.7-2.9l1-3l1.2-3l1.3-3.3l0.9-1.6l1-1.6l1.3-1.7l3.6-3.7l2.5-1.9l2.6-1.6l2.7-1.1
			l2.1-0.6l2.1-0.4l2.2-0.2l2.1,0.1l2.2,0.4l2.1,1.1l1.4,0.7l1.6,0.9l2.1,2l1.2,2.1l0.6,1.7l0.5,1.7l0.7,3.5l0,3.2l-0.5,3.3
			l-0.5,1.6l-0.8,1.6l-0.9,1.4l-1,1.3l-2.3,2l-5.4,2.9l-1.8,0.7l-1.7,0.6l-4.1,0.3l-2.1,0.1l-2-0.3L330.5,108.7z M331.1,99.6
			l1.3,0.4l2.9-0.2l2-0.7l2.1-0.9l1.7-1.2l1.5-1.9l0.9-2.2l0.8-2.1l0.3-1.8l-0.4-1.2l-0.8-1l-1.2-0.5l-1.7,0l-2.3,0.8l-2.1,1.5
			l-1.3,1.3l-2.5,4.4l-1.2,2.9l-0.3,1L331.1,99.6z"/>
		<path class="st3" d="M396.2,109.2l0,0.6l0.8,0.8l5.2,5.8l2.5,2.9l2.3,2.9l0.9,1.8l0,1.8l-0.2,1.3l-0.7,1.1l-1.1,0.8l-1.7,0.7
			l-1.3,0l-1.2-0.6l-0.6-1.1l-0.4-1.1l-1-0.9l-1.5-1.3l-1-1.4l-2.9-2.3l-2.7-2.4l-2.3-1.7l-2.2-1.4l-2.6-1.2l-3.9-0.3l-2.1,0.1
			l-0.9,0.3l-0.6,0.6l-0.1,1l0,3.2l-0.1,3.3l-0.1,0.9l-0.6,0.9l-0.9,0.4l-0.9,0.4l-0.8,1l-1.1,1l-1.3,0.4l-1.9-0.1l-1.6-0.6
			l-1.2-1.1l-0.7-1.5l-6.1-39.4l0.2-1.4l1-1.2l1.4-0.8l4.2-2.3l4.3-1.8l4.2-1.5l9.9-2.5l2.7-0.5l2.9-0.1l2.1,0.1l2.2,0.4l2.1,0.7
			l2.3,0.8l2.6,1.1l1.5,1.2l1.5,1.4l1.8,2.2l1.5,2.2l1.2,2.9l0.8,3l0.1,2.8l-0.3,2.9l-0.6,1.7l-0.7,1.9l-0.9,1.6l-1.1,1.6l-1.2,1.2
			l-1.3,1.2l-1.8,1.4l-1.8,1.1l-1.8,1l-1.8,0.9L396.2,109.2z M374.7,87.6l-0.1,1.2l0.9,3.3l0.7,3.4l0.2,3.4l0.2,3.3l0.2,0.9l0.4,0.5
			l0.9,0l4.8-0.3l2.2-1l3.6-2.7l3.7-2.5l1.5-1.9l0.7-1.6l0.5-1.5l0.3-2.9l-0.3-1.5l-0.6-1.2l-1.2-1l-1.7-0.6l-2.7,0.2l-14,2.1
			L374.7,87.6z"/>
		<path class="st3" d="M446.4,82.1l0.9,0.6l1,0.2l1.9-0.1l3.3,0.5l2.7,1.3l2.8,1.6l1.9,0.9l2.8,0.6l1.7,0.9l1.5,1.4l1.1,2l1.5,4.3
			l0.5,2.1l0.2,2.2l0.2,2.1l-0.9,2l-1.2,1.9l-1.4,1.9l-3,3.8l-2.2,2.2l-2.4,2L457,118l-2,1.2l-4.1,2l-3.6,1.2l-3.5,0.8l-3.6,0.5
			l-3.6,0.3l-6.1-0.1l-3-0.3l-3-0.5l-3.2-1.1l-1.5-0.6l-1.4-0.8l-2.5-1.6l-1.1-1.5l-1-1.8l-0.6-1.8l-0.9-3.5l-0.3-5l0.6-1.7l1-1.4
			l0.8-1.3l0.9-1.2l1.3-0.7l1.4-0.2l1.2,0.5l1,0.9l1.3,1.9l0.9,2.5l0.8,2.5l0.9,3l0.8,1.2l1.3,0.8l1.9,0.9l1.9,0.5l8.2,0.1l8.2-0.3
			l2.6-0.4l2.7-0.6l1.8-1.1l1.1-1.4l1.1-2.5l0.3-2l0.2-2l-0.2-2.3l-1-2.1l-1.1-1.3l-1.2-0.7l-1.5-0.4l-2.2-0.4l-2.2-0.2l-4.5,0
			l-8.8,0.4l-1.9-0.3l-1.9-0.6l-3.8-1.5l-2.4-1.2l-1.9-1.6l-1.3-2.2l-0.6-2.5l0.4-2l1.4-2l2-2.6l2.3-2.3l1.3-1l1.3-0.8l2.9-1.4
			l3.8-1.8l3.8-1.4l3.8-1.1l5.8-1.2l2.4-1l12.7-1.2l1.2,0.2l1,0.7l0.6,1l0.5,1.6l-0.3,3.3l-0.5,1.3l-1,1.2l-1.5,0.6l-1.6,0.1
			l-1.2,0.1l-1.2,0.7l-1.3,0.7l-1.4,0.1l-3.4,0.2l-3.3,1.1l-2.8,1.5L446.4,82.1z"/>
		<g>
			<path class="st3" d="M318.6,20.3l0.1-0.4l0.3-0.4l0.6-0.4l0.8-0.7l0.8-0.6l0.8-0.6l0.8-0.5l1.3-0.5l1.2-0.4l1.3-0.3l1.3-0.2
				l1-0.1l1,0l1,0.1l1,0.2l0.8,0.3l0.8,0.3l1.6,0.8l1,0.6l0.7,0.7l0.7,1l0.7,1l1.3,2.1l0.5,0.9l0.3,0.9l0.1,1.7l-0.2,1.8l-0.2,0.8
				l-0.2,0.9l-0.3,0.9l-0.4,0.9l-0.5,0.9l-0.7,0.8l-0.7,0.8l-0.8,0.7l-1.5,1.3l-0.8,0.6l-0.8,0.5l-1.6,0.8l-0.8,0.3l-0.8,0.3
				l-1.6,0.4l-1.4,0.1l-1.4,0l-2.8-0.3l-1.3-0.3l-1.3-0.5l-0.7-0.3l-0.7-0.5l-0.7-0.7l-0.6-0.7l-0.6-0.9l-0.4-1l-0.4-1.3l-0.3-1.3
				l-0.2-1.4l-0.1-1.3l0.1-1l0.2-1.1l0.2-1.1l0.3-1.1l0.2-0.7l0.3-0.7l0.4-0.7l0.4-0.7L318.6,20.3z M333.4,22.1l-1.2-0.4l-1.2-0.3
				l-1.1,0.1l-1,0.5l-1,0.6l-1.2,0.8l-0.6,0.4l-0.6,0.5l-0.8,1l-0.7,0.9l-0.4,0.6l-0.4,0.6l-0.5,1.2l-0.2,1l0.2,1l0.7,1.2l0.5,0.6
				l0.7,0.4l1.2,0.4l1.2-0.1l1-0.3l1-0.3l1-0.5l1-0.6l1-0.6l1-0.7l0.5-0.5l0.5-0.7l0.5-1.2l0.3-0.9l0.2-0.9l-0.2-1.5l-0.3-0.7
				l-0.3-0.8l-0.5-0.6L333.4,22.1z"/>
			<path class="st3" d="M352.6,23.4l0.4,0.1l2.6-0.2l1.1-0.2l1.1-0.3l0.6-0.2l0.6,0.1l0.5,0.4l0.3,0.4l0.5,0.2l0.5,0.1l0.7,0.3
				l0.5,0.5l0.2,0.6l-0.1,0.6l-0.4,0.6l-0.5,0.5l-0.6,0.2l-1.5,0l-1.4,0.3l-1.1,0.3l-1.1,0.4l-1.1,0.5l-1.1,0.6l-0.5,0.3l-0.3,0.5
				l-0.1,0.5l0,2l0.2,2.6l-0.2,0.6l-0.4,0.8l-0.2,0.5l-0.5,0.3l-0.8,0.5l-0.6,0.2l-0.6-0.1l-0.4-0.3l-0.3-0.5l-1.1-4.9l-0.8-4.9
				l-1.2-9.8l0-0.7l0.4-0.7l0.4-0.5l0.7-0.3l7-1.5l3.6-0.7l3.6-0.3l0.7,0l0.6,0.3l0.4,0.5l0.3,0.9l0,0.9L363,16l-0.5,0.6l-0.6,0.2
				l-1.2,0l-1.2,0.1l-1.2,0.1l-1.1,0.3l-2.3,0.6l-1.1,0.4l-1.1,0.4l-0.5,0.3l-0.2,0.4l0,0.5l0.4,3L352.6,23.4z"/>
			<path class="st3" d="M317.4,69.3l-0.4,0.2l-0.4,0l-0.8-0.1l-0.5-0.2l-0.2-0.4l-0.1-0.5l-0.3-0.4l-0.5-0.3l-0.5-0.3l-0.5-0.5
				l-0.6-1l-2.2-13.5l-0.3-0.2h-0.4l-1.7,0.1l-1.7,0l-0.6,0l-0.7-0.4l-0.7-0.6l-0.4-0.7l-0.2-0.7l-0.5-1.1l-0.1-1l0.2-0.5l0.3-0.4
				l0.5-0.2l18.4-2.5l0.6,0.3l0.3,0.4l0.3,0.3l0.5,0.1l0.6,0.2l0.5,0.4l0.3,0.6l0.2,1l-0.1,1l-0.3,0.7l-0.4,0.5l-0.5,0.1l-5.3,0.7
				l-0.2,0.4l-0.1,0.4L318,64.9l0.2,0.6l0.5,0.6l0.2,0.5l-0.1,0.5l-0.4,0.3l-0.5,0.3l-0.2,0.4l-0.1,0.5L317.4,69.3z"/>
			<path class="st3" d="M339.4,53.4l0.3,0.1l0.4-0.1l8.2-1.6l0.2-0.3l0.1-0.5l0.2-2.6l0.1-2.7l0.2-0.8l0.5-0.7l0.9-0.8l0.9-0.9
				l0.6-0.5l0.6-0.2l0.9,0.1l0.7,0.4l0.5,0.6l0.2,0.7l-2.3,14.9l-0.5,5.5l-0.3,0.4l-0.5,0.3l-1,0.3l-0.9,0l-0.9-0.1l-0.6-0.2
				l-0.4-0.4l-0.2-0.6l-0.1-0.9l0.4-1.1l0.2-0.9l0-0.9l0-2.2l-0.2-0.3l-0.3-0.1l-0.4,0l-1.6,0.1l-1.6,0.3l-3.2,0.8l-0.6,0.1
				l-0.4,0.2l-0.2,0.4l0,0.5l-0.3,1.6l0,1.2l-0.1,1.2l-0.5,2.4l-0.2,0.6l-0.6,0.6l-0.7,0.5l-0.8,0.2l-0.8-0.1l-1-0.3l-0.6-0.4
				l-0.4-0.5l-0.1-0.6L333,55.8l-0.2-10.4l0.2-0.6l0.5-0.5l0.6-0.5l0.5-0.6l0.6-0.7l0.7-0.3l0.9,0l1.2,0.3l0.6,0.4l0.4,0.5l0.1,0.6
				l0.2,1.1l0.1,1.1l0.2,2.2l-0.1,2.2l-0.2,2.2L339.4,53.4z"/>
			<path class="st3" d="M368.2,54.7l-0.1,0.3l0.2,0.4l0.3,0.6l0.7,1l0.9,0.7l1.1,0.5l1.1,0.4l1.4,0.3l1.4,0.1l0.7-0.1l0.6-0.4
				l0.6-0.8l0.4-0.5l0.5-0.4l0.6-0.2l0.8,0.2l0.5,0.3l0.3,0.5l0,0.5l0.1,0.7l0.2,0.6l-0.2,0.6l-0.3,0.6l-0.5,0.4l-2,1.4l-1.1,0.7
				l-1.1,0.7l-1.1,0.5l-1,0.3l-1.7,0l-0.8-0.1l-0.8-0.1l-1.2-0.3l-1.1-0.5l-1-0.7l-1-0.8l-1.8-1.5l-0.8-0.8l-0.5-0.8l-0.5-0.8
				l-0.4-0.9l-0.3-0.8l-0.2-0.9l-0.1-1.2l0.1-1.2l0.3-1.4l0.3-1.3l0.5-1.4l0.5-1.4l0.6-1.5l0.4-0.7l0.5-0.7l0.6-0.8l1.6-1.7l1.1-0.9
				l1.2-0.7l1.2-0.5l1-0.3l1-0.2l1-0.1l1,0.1l1,0.2l1,0.5l0.7,0.3l0.7,0.4l0.9,0.9l0.5,0.9l0.3,0.8l0.2,0.8l0.3,1.6l0,1.4L379,49
				l-0.2,0.7l-0.4,0.7l-0.4,0.6l-0.5,0.6l-1,0.9l-2.4,1.3l-0.8,0.3l-0.8,0.3l-1.9,0.1l-0.9,0.1l-0.9-0.1L368.2,54.7z M368.5,50.5
				l0.6,0.2l1.3-0.1l0.9-0.3l0.9-0.4l0.8-0.6l0.7-0.8l0.4-1l0.4-1l0.1-0.8l-0.2-0.5l-0.3-0.5l-0.5-0.2l-0.8,0l-1.1,0.4l-1,0.7
				l-0.6,0.6l-1.1,2l-0.6,1.3l-0.1,0.5L368.5,50.5z"/>
		</g>
	</g>
</g>
</svg>
