<?xml version="1.0" encoding="utf-8"?>
<!-- Generator: Adobe Illustrator 19.2.1, SVG Export Plug-In . SVG Version: 6.00 Build 0)  -->
<svg version="1.1" id="Layer_1" xmlns="http://www.w3.org/2000/svg" xmlns:xlink="http://www.w3.org/1999/xlink" x="0px" y="0px"
	 viewBox="0 0 128.2 89.7" style="enable-background:new 0 0 128.2 89.7;" xml:space="preserve">
<style type="text/css">
	.st0{fill:#FFFFFF;}
</style>
<title>arrow-32</title>
<path class="st0" d="M127.9,75.9c0,2-1,3-3,2.6c-5-0.8-10.1-1.5-15.2-2.2c-2.7-0.3-5.4-0.5-8.1-0.7c-2.1-0.1-4.1-0.3-6.2-0.8
	c-2.9-0.8-6-1.2-9-1.3c-1.9-0.1-3.8-0.3-5.7-0.6c-7-1-13.9-2-20.9-3c-0.2,0-0.3,0-0.5,0c-0.7,0-1.2,0.5-1.3,1.1
	c-0.1,0.8-0.1,1.6,0,2.4c0.8,5-0.2,9.9-0.1,14.8c0,0.4-0.2,0.7-0.4,1c-0.6,0.6-1.5,0.6-2.1,0c-1.2-1-2.3-2.2-3.4-3.3
	c-6.8-7.4-14.5-14.1-22.7-19.9c-8.6-6-17.4-11.9-26.2-17.8c-0.7-0.4-1.3-0.9-1.9-1.4c-1.5-1.4-1.7-3.7,0.2-4.9
	c0.8-0.5,1.6-1.1,2.4-1.6c3.5-2.2,7-4.5,10.6-6.6c9.5-5.6,18.5-12,27-19.1c1.9-1.5,3.6-3.2,5.1-5c2.5-3.1,5.6-5.7,7.9-9
	c0,0,0.1-0.1,0.1-0.1c0.7-0.7,1.8-0.6,2.5,0.1c1,0.9,1.5,2.1,1.4,3.5c-0.1,3.2-0.2,6.4-0.3,9.6c0,1.3,0,2.5,0.1,3.8
	c0.1,1,0.9,1.8,1.9,1.8c5.3,0.2,10.6,0.1,15.8-0.2c5.2-0.5,10.5-1.3,15.8-1.3c10.6,0,21.1,0,31.6-1c0.4-0.1,1-0.1,1.4-0.1
	c0,0,0.1,0,0.1,0c1.8,0,3.3,1.4,3.4,3.2c0.1,1.1,0,2.2,0,3.3c-0.1,4.6-0.2,9.3-0.1,13.9c0.1,3,0,6.1-0.2,9.1c-0.2,3,0.1,6.1,0.1,9.1
	c0,0.5,0,1-0.1,1.4c-0.6,3.9-0.6,7.9,0,11.8C127.9,70.8,127.9,73.4,127.9,75.9z M114,71.5c0.1,0,0.3,0,0.4-0.1
	c0.1-0.1,0.2-0.2,0.2-0.4c-1.1-1.7-2.2-3.5-4-4.5c-0.2-0.6-0.4-1.2-0.8-1.7c-6.4-8.9-12.1-18.3-18-27.6c-2.1-3.3-4.1-6.8-6.8-9.8
	c-0.3-0.1-0.5-0.1-0.8,0c-0.1,0.1-0.1,0.3-0.1,0.4c0,0.3,0.1,0.6,0.2,0.9c0.9,2.2,1.8,4.5,2.9,6.5c1.6,2.9,3.5,5.7,5.3,8.5
	c4.9,7.2,10.4,14.1,15.9,20.9c0.5,0.8,1.2,1.5,2.1,1.8C111.2,68.6,112.4,70.3,114,71.5z M110.6,22.9c-3.5,0.2-7,0.4-10.5,0.4
	c-2.9,0.1-5.8,0-8.6,0c-1.1,0-2.2,0.2-3.3,0.4c-0.2,0.2-0.3,0.5-0.3,0.8c0,0.3,0.2,0.6,0.4,0.8c4.4,6.1,8.3,12.5,12.3,18.9
	c3.1,4.8,6.2,9.7,9.5,14.4c2.1,3,4.3,5.9,6.7,8.8c1.1,1.2,2.2,2.3,3.4,3.3c0.1,0.1,0.1,0.1,0.2,0.1c0.2,0.1,0.5-0.1,0.6-0.3
	c0.1-0.1,0.1-0.3,0.1-0.4c-0.4-0.9-0.8-1.7-1.3-2.5c-2.2-3.3-4.4-6.7-6.6-10c-3.6-5.5-7.2-11-10.7-16.5c-1.6-2.6-3-5.3-4.3-8
	c-0.6-1.5-1.1-3-1.4-4.6c-0.2-1,0-1.9,0.5-2.8c0.6-1,1.9-1.4,2.9-0.8c1,0.8,2,1.6,2.8,2.6c2.2,2.6,4.2,5.2,6.3,7.8
	c3.4,4.2,6.9,8.4,10.3,12.6c0.2,0.2,0.5,0.4,0.8,0.4c0.1-0.1,0.2-0.2,0.3-0.3c-0.3-0.9-0.5-1.8-0.9-2.7c-1.5-4.2-3.1-8.4-4.6-12.6
	c-1-2.5-1.6-5.2-2.1-7.9C113,23.2,112.4,22.8,110.6,22.9L110.6,22.9z M104.6,70.4c0,0,0.1,0,0.1,0c0.4-0.1,0.7-0.6,0.5-1
	c-0.3-0.5-0.6-1.1-1-1.6c-4.3-6.4-8.6-12.7-13-19c-3.8-5.5-7.7-11-11.7-16.4c-1.5-2-3-4.2-5.3-5.5c-0.1-0.1-0.2-0.1-0.3-0.1
	c-0.2,0-0.4,0.2-0.4,0.4c-0.1,0.8,0,1.6,0.1,2.3c0.8,2.4,1.8,4.8,3.1,7c6.1,10.7,13,20.9,20.6,30.6c0.4,0.5,0.8,1,1.2,1.5
	c0.7,1.1,1.9,1.8,3.2,1.7c0.5,0,1,0,1.8,0L104.6,70.4z M27.5,33c0,0.3,0.1,0.6,0.3,0.9c0.3,0.6,0.6,1.1,1,1.6l21.1,29.1
	c0.4,0.5,0.8,1,1.2,1.5c0.1,0.1,0.2,0.2,0.4,0.3c0.2-0.2,0.3-0.4,0.3-0.7c-1.6-3.6-3.1-7.3-4.9-10.9c-2.5-5.2-5.2-10.2-7.8-15.4
	c-1.6-3.3-3.2-6.6-4.8-9.9c0-0.1-0.1-0.2-0.2-0.3c-0.3-0.4-1-0.5-1.4-0.2c-1.6,1.1-3.2,2.2-4.7,3.3C27.9,32.5,27.7,32.7,27.5,33
	L27.5,33z M123.1,58.2c0.1-1.1-0.4-2.2-1.3-2.9c-3.1-2.7-6-5.8-8.5-9.1c-2.3-2.8-4.6-5.7-6.9-8.6c-3.5-4.4-4.1-4.8-4-4.2
	c0.3,2.1,1.6,3.8,2.7,5.5c5.5,8.4,11,16.8,16.5,25.2c0.3,0.4,0.6,0.9,1.1,0.5c0.3-0.3,0.4-0.8,0.4-1.2c0-1,0-1.9,0-2.9l0,0
	C123.1,59.8,123.1,59,123.1,58.2z M70,37.7c3.2,5.4,6.5,10.6,9.8,15.9c2.7,4.2,5.4,8.3,8.1,12.5c0.4,0.7,0.9,1.3,1.4,1.9
	c0.4,0.2,0.9,0.3,1.3,0.2c0.4,0,0.6-0.7,0.3-1.2c-0.4-0.6-0.8-1.3-1.2-2c-5.4-9-10.9-18-16.4-27c-1.9-3.1-3.8-6.3-6.5-8.8
	c-0.1-0.1-0.3-0.1-0.4,0c-0.1,0.1-0.2,0.2-0.2,0.4c0.1,0.4,0.1,0.8,0.3,1.2C67.4,32.7,68.6,35.3,70,37.7z M54.7,50.4
	c-0.4-0.8-0.8-1.7-1.2-2.5c-3.4-7.2-6.8-14.4-10.2-21.6c-0.5-1-1-2-1.5-3c0,0,0,0,0-0.1c-0.3-0.5-1.1-0.7-1.6-0.4
	c-0.6,0.5-1.3,1-1.9,1.5c-0.1,0-0.1,0.1-0.2,0.1c-0.7,0.6-0.8,1.7-0.2,2.4c2.4,3.9,4.9,7.8,7.4,11.7c2.8,4.3,5.6,8.5,8.5,12.7
	c0.2,0.1,0.5,0.2,0.7,0.1c0.1-0.1,0.1-0.3,0.1-0.4C54.8,50.8,54.7,50.6,54.7,50.4L54.7,50.4z M69.7,66c0.1,0,0.2,0,0.2,0
	c0.5,0,0.9-0.5,0.9-1c-0.2-0.4-0.4-0.9-0.7-1.3c-5.5-8.8-11-17.6-16.6-26.4c-0.2-0.3-0.4-0.5-0.7-0.5c-0.6,0.3-0.1,0.8,0,1.2
	c0.1,0.2,0.1,0.3,0.2,0.4c3.8,8.1,7.7,16.2,11.3,24.3c0.9,2,2.2,3,4.3,3.1C69.1,65.9,69.4,65.9,69.7,66L69.7,66z M43.7,71.7
	c0.3,0.1,0.4,0,0.3-0.4c-0.1-0.3-0.2-0.6-0.3-0.9c-4.4-7.5-8.8-15.1-13.2-22.6c-0.2-0.3-0.4-0.5-0.7-0.5c-0.4,0.3-0.4,0.8-0.2,1.2
	c0,0.2,0.1,0.3,0.2,0.5c1.9,5,3.8,10.1,5.7,15.1c0.4,1.1,1,2,1.9,2.7c1.9,1.5,3.7,3,5.5,4.5C43.1,71.5,43.4,71.6,43.7,71.7
	L43.7,71.7z M123.4,31.3c0-1.1-0.6-2.2-1.5-2.8c-1.3-0.9-2.7-1.7-4-2.6c-0.1-0.1-0.3-0.1-0.5,0c-0.1,0.1-0.2,0.2-0.2,0.4
	c0,0.8,0.2,1.6,0.4,2.3c1.5,4.3,3.1,8.7,4.6,13c0.2,0.4,0.4,1,0.9,0.7c0.4-0.3,0.6-0.7,0.7-1.1c0.2-0.9,0.2-1.9,0.2-2.7
	C123.8,36,123.6,33.6,123.4,31.3z M22.6,37.2c0-0.1-0.1-0.3-0.2-0.4c-0.3-0.4-0.9-0.5-1.3-0.2c-0.8,0.5-1.7,0.9-2.4,1.5
	c-0.1,0-0.2,0.1-0.3,0.2c-0.5,0.5-0.6,1.3-0.2,1.8c1.4,1.9,2.7,3.9,4.2,5.8c1,1.3,1.6,3,3.3,3.6c0.4-1.7-0.7-3-1-4.5
	c-0.1-0.5-0.3-1-0.5-1.5C23.6,41.2,23.1,39.2,22.6,37.2z M54,77.9c0.1-1-0.2-1.9-0.9-2.7c-0.4-0.5-0.8-1-1.1-1.5
	c-7-9.8-7.9-10.8-8.1-10c-0.1,0.1-0.1,0.3-0.1,0.4c2,3.6,4,7.2,6.1,10.8c0.9,1.6,2,3.2,3,4.8c0.1,0.1,0.2,0.2,0.4,0.2
	c0.2-0.1,0.4-0.3,0.5-0.6C54,78.8,54,78.3,54,77.9L54,77.9z M17.2,51.1c-0.1,0.8,0.2,1.6,0.9,2.1c2.2,1.5,4.5,3,6.8,4.5
	c0.3,0.1,0.6,0,0.8-0.2c0.1-0.3,0.1-0.6-0.1-0.8c-2-2.9-4.1-5.7-6.1-8.6c-0.3-0.4-0.6-0.7-0.9-1.1c-0.1-0.1-0.3-0.2-0.4-0.2
	c-0.3,0.1-0.5,0.3-0.6,0.5c-0.1,0.8-0.2,1.6-0.2,1.9L17.2,51.1z M50.9,54.3c0,0.1-0.1,0.3,0,0.4c1.2,2.7,2.4,5.5,3.7,8.2
	c0.4,0.9,1.3,1.4,2.3,1.4c0.3,0,0.6-0.2,0.8-0.3c0.1-0.1,0.1-0.3,0-0.4c-0.1-0.3-0.2-0.6-0.4-0.8c-1.9-2.7-3.8-5.4-5.7-8.1
	c-0.1-0.1-0.2-0.2-0.4-0.3C51.1,54.3,51,54.3,50.9,54.3L50.9,54.3z M60.1,24.7c-0.4,0-0.8,0.1-1.2,0.2c-0.2,0.2-0.4,0.4-0.5,0.7
	c0,0.1,0,0.3,0.1,0.4c1.3,2.3,2.7,4.7,4,7c0.2,0.1,0.4,0.2,0.7,0.1c0.1-0.1,0.1-0.3,0.1-0.4c-0.6-2.1-1.5-4.2-1.1-6.4
	C62.4,24.9,61.5,24.6,60.1,24.7L60.1,24.7z M78,67.1c0.1,0,0.3-0.1,0.4-0.2c0.1-0.1,0.2-0.2,0.2-0.4C78,65.2,77.2,64,76.2,63
	c-0.1-0.1-0.2-0.2-0.4-0.2c0,0-0.1,0-0.1,0.1c-0.2,0.2-0.3,0.5-0.1,0.8c0.5,0.9,1,1.9,1.6,2.9C77.4,66.8,77.7,67,78,67.1L78,67.1z
	 M13.6,43.5c0-0.1-0.1-0.6-0.2-1.1c0-0.1-0.1-0.1-0.1-0.2c-0.3-0.3-0.7-0.4-1.1-0.1c-1,0.5-1.2,1-0.7,1.9c0.2,0.4,0.5,0.8,0.8,1.2
	c0.2,0.2,0.5,0.3,0.8,0.3c0.2-0.2,0.4-0.4,0.4-0.7C13.6,44.4,13.6,43.9,13.6,43.5L13.6,43.5z M47.3,21.7c0.1,0,0.3-0.1,0.3-0.2
	c0.1-1.1-0.3-2.1-1-2.9c-0.2-0.1-0.3,0-0.4,0.1c-0.2,0.2-0.4,0.4-0.6,0.6C45.5,20.3,46.2,21.3,47.3,21.7z M122.9,24.3
	c0.3-0.2,0.5-0.4,0.7-0.7c0-0.3-0.1-0.6-0.3-0.8c-0.4-0.2-0.9-0.2-1.3-0.2c-0.3,0.1-0.5,0.2-0.8,0.4c0.1,0.3,0.3,0.5,0.6,0.7
	C122,24,122.4,24.1,122.9,24.3L122.9,24.3z M76,55.9c0.6,0.4,0.7,0.3,0.7,0c0-0.1,0-0.3,0-0.4c-0.5-0.8-1-1.5-1.6-2.2
	c-0.1-0.1-0.2-0.1-0.3-0.1c-0.1,0.1-0.2,0.2-0.2,0.3C75.1,54.4,75.7,55.3,76,55.9L76,55.9z M80.5,25.9c0-0.1,0-0.1,0-0.2
	c0-0.6-0.4-1-1-1c-0.3,0-0.6,0.1-0.8,0.2c-0.1,0.2-0.1,0.5,0,0.8c0.1,0.3,0.3,0.5,0.6,0.7c0.2,0.2,0.5,0.3,0.8,0.2
	C80.3,26.4,80.5,26.2,80.5,25.9L80.5,25.9z"/>
</svg>
