<?xml version="1.0" encoding="utf-8"?>
<!-- Generator: Adobe Illustrator 19.2.1, SVG Export Plug-In . SVG Version: 6.00 Build 0)  -->
<svg version="1.1" id="Layer_1" xmlns="http://www.w3.org/2000/svg" xmlns:xlink="http://www.w3.org/1999/xlink" x="0px" y="0px"
	 viewBox="0 0 192 193.6" style="enable-background:new 0 0 192 193.6;" xml:space="preserve">
<style type="text/css">
	.st0{fill:#2E2E2E;}
</style>
<g>
	<path class="st0" d="M114.3,102.9c3,0,0.5-9.9-4.2-7.9C106.9,96.6,111.3,102.9,114.3,102.9z"/>
	<path class="st0" d="M131.1,96.6c-3.7-0.2-3,7.9,0.2,6C134.6,100.8,135.1,97.1,131.1,96.6z"/>
	<path class="st0" d="M95.2,120.9c1.8,0.7,12.5,1.4,1.4-4.9C94.2,118.1,93.3,120.2,95.2,120.9z"/>
	<ellipse class="st0" cx="45.4" cy="80.9" rx="7.2" ry="7.2"/>
	<ellipse class="st0" cx="71.9" cy="60.2" rx="8.5" ry="8.5"/>
	<path class="st0" d="M127.9,90c2.4,2,6.7,0.4,7.3-3.5c0.6-3.9,0.6-15.5-8.1-13.3C121.6,75.4,125.6,87.9,127.9,90z"/>
	<path class="st0" d="M137.9,79c0.9,4.5,3,21.9,6.5,30.1c-3.3-14.2-3.9-28.4-5.8-34.4c-1.5-4.9-9.1-8.5-13.2-1.4
		C130.6,67.5,136.3,71,137.9,79z"/>
	<path class="st0" d="M101.7,88.7c3.5,1.7,8.2-1.7,7.6-6.7c-0.6-5-4.3-18.8-14.1-13.3C89.3,73.3,98.2,87,101.7,88.7z"/>
	<path class="st0" d="M152.7,85.6c-4.5,1.6-1.9,11.6-0.1,13.3c1.8,1.7,5.3,0.6,5.9-2.5C159.1,93.3,159.6,84.3,152.7,85.6z"/>
	<path class="st0" d="M154.4,105.6c-3.5,0.2-2.1,3.9,0.9,3.7C158.4,109.1,157.4,107.5,154.4,105.6z"/>
	<path class="st0" d="M95.9,2.7C44.2,2.7,2.2,44.6,2.2,96.4s41.9,93.7,93.7,93.7s93.7-41.9,93.7-93.7S147.7,2.7,95.9,2.7z
		 M161.6,89.6c0.3,8.9,3.8,25.1,10.1,39.1c-12.8,29.1-41.8,49.6-75.7,49.6c-29.5,0-55.4-15.3-70-38.6c0.5-0.5,0.9-0.7,1.1-1
		c10-9.5,23.8-12,30.2-19h0c0,0,6.3,3.9,18.6,4.5c-0.7-0.1-9.5-1.6-17.1-8c-5.2-5.2-12.5-14.2-17.5-20.8c-4.9-3-7-10.5-11.1-18
		c-4.1-7.5-3.1-16.7,2.2-25c18.4-29,53.7-29,73,8.7c15.9,22.8,29.1-4.1,61.3-8.3c7.5,12.5,11.9,27.1,11.9,42.7
		c0,10.7-2,20.9-5.7,30.3c-4.8-11.4-9.4-28-9.8-36.2c-0.4-7.6-6.7-8.8-6.7-8.8S161.4,83.1,161.6,89.6z"/>
	<path class="st0" d="M76.6,162.4c0,0-0.3,8.4,9,7.4c9.3-1,20-8.8,17.9-11.5C101.4,155.5,76.3,152.9,76.6,162.4z"/>
	<path class="st0" d="M135.2,125.8c-10.2,0.5-29.1-0.9-28.8,8.6c-0.3,6.5,9.5,8.9,14,6.2c4.5-2.7,4.6-10.7,10.2-10.7
		c5.6-0.1,28.9,4.8,30.9-0.9c2-5.7,0.2-7.2-3.6-8.7C154.2,118.6,145.4,125.3,135.2,125.8z"/>
	<path class="st0" d="M90.8,111.7c0.7-2.8-7.7-16.9-13.9-11.7c0,0-5.8,4.2-0.3,9.9C82.1,115.7,90.1,114.6,90.8,111.7z"/>
</g>
</svg>
