<?xml version="1.0" encoding="utf-8"?>
<!-- Generator: Adobe Illustrator 19.2.1, SVG Export Plug-In . SVG Version: 6.00 Build 0)  -->
<svg version="1.1" id="Layer_1" xmlns="http://www.w3.org/2000/svg" xmlns:xlink="http://www.w3.org/1999/xlink" x="0px" y="0px"
	 viewBox="0 0 386.4 189.5" style="enable-background:new 0 0 386.4 189.5;" xml:space="preserve">
<style type="text/css">
	.st0{fill:#2E2E2E;}
	.st1{fill:#FCFCFC;}
	.st2{fill:#FFFFFF;}
</style>
<g>
	<circle class="st0" cx="94.7" cy="94.7" r="93.7"/>
	<path class="st1" d="M56.1,116c-6.3,7-20.1,9.1-30,18.5c-0.2,0.3-0.6,0.3-1.1,0.9c14.5,23.1,40.2,38.2,69.5,38.2
		c33.6,0,62.4-20.3,75.1-49.2c-6.3-13.9-9.7-29.9-10.1-38.8c-0.2-6.4-5.2-8.7-5.2-8.7s6.2,1.2,6.7,8.8c0.4,8.1,5,24.6,9.7,35.9
		c3.7-9.3,5.7-19.5,5.7-30.1c0-15.5-4.3-30-11.8-42.3c-31.9,4.2-45.1,30.9-60.8,8.3c-19.1-37.5-54.1-37.5-72.4-8.7
		c-5.3,8.2-6.3,17.3-2.2,24.8c4.1,7.4,6.2,14.9,11,17.9c5,6.5,12.2,15.5,17.3,20.6c7.6,6.3,16.3,8.2,17,8.2
		C62.3,119.6,56.1,116,56.1,116L56.1,116z M44.2,84.1c-3.9,0-7.1-3.2-7.1-7.1c0-3.9,3.2-7.1,7.1-7.1c3.9,0,7.1,3.2,7.1,7.1
		C51.3,80.9,48.1,84.1,44.2,84.1z M150.6,81.6c6.9-1.3,6.4,7.7,5.7,10.7c-0.6,3.1-4.1,4.1-5.9,2.5C148.7,93.1,146.2,83.2,150.6,81.6
		z M153.3,105.2c-3,0.2-4.4-3.4-0.9-3.7C155.3,103.3,156.2,104.9,153.3,105.2z M136.6,70.8c1.8,6,2.4,20.1,5.8,34.2
		c-3.5-8.1-5.6-25.4-6.4-29.9c-1.5-7.9-7.2-11.4-12.5-5.7C127.6,62.3,135.1,65.9,136.6,70.8z M125.3,69.2c8.7-2.2,8.6,9.3,8,13.2
		c-0.6,3.9-4.9,5.5-7.3,3.5C123.7,83.9,119.8,71.5,125.3,69.2z M129.5,98.5c-3.2,1.8-3.9-6.2-0.2-6C133.1,93,132.7,96.7,129.5,98.5z
		 M133.3,121.5c10.1-0.5,18.8-7.1,22.6-5.6c3.8,1.5,5.5,3,3.5,8.7c-2,5.6-25.1,0.8-30.7,0.9c-5.6,0-5.7,8-10.2,10.7
		c-4.4,2.7-14.2,0.3-13.9-6.1C104.4,120.6,123.2,121.9,133.3,121.5z M108.4,90.9c4.6-2.1,7.1,7.8,4.1,7.8
		C109.5,98.7,105.2,92.6,108.4,90.9z M93.6,64.8c9.7-5.5,13.5,8.3,14,13.2c0.6,4.9-4.1,8.3-7.6,6.6C96.5,83,87.7,69.4,93.6,64.8z
		 M93.5,116.6c-1.8-0.7-0.9-2.8,1.4-4.8C105.9,118,95.3,117.3,93.5,116.6z M101.9,153.7c2.1,2.7-8.5,10.4-17.8,11.4
		c-9.2,1-9-7.3-9-7.3C74.8,148.4,99.7,151,101.9,153.7z M62,56.4c0-4.6,3.8-8.4,8.4-8.4c4.6,0,8.4,3.8,8.4,8.4
		c0,4.7-3.8,8.4-8.4,8.4C65.8,64.8,62,61,62,56.4z M75.4,95.9c6.2-5.1,14.6,8.8,13.8,11.6c-0.7,2.8-8.6,3.9-14.1-1.8
		C69.7,100,75.4,95.9,75.4,95.9z"/>
</g>
<g>
	<g>
		<path class="st2" d="M288.5,30.9c0,0.9-0.5,1.7-1.4,2.4c-0.9,0.7-2,1-3.2,1c-1.2,0-2.3-0.3-3.2-1c-0.9-0.7-1.4-1.5-1.4-2.4v-1.8
			c0-0.9,0.5-1.7,1.4-2.4c0.9-0.7,2-1,3.2-1c1.2,0,2.3,0.3,3.2,1c0.9,0.7,1.4,1.5,1.4,2.4V30.9z"/>
		<rect x="279.3" y="37.8" class="st2" width="9.3" height="34.6"/>
		<path class="st2" d="M303.8,12.3v60h-9.3v-60H303.8z"/>
		<path class="st2" d="M250.1,40.1c1.2-0.8,2.6-1.4,4.2-1.9c1.6-0.5,3.3-0.7,5.1-0.7c1.9,0,3.7,0.3,5.4,0.8c1.7,0.6,3.2,1.3,4.4,2.2
			c1.2,0.9,2.2,2,3,3.3c0.7,1.3,1.1,2.6,1.1,4v24.5H264V47.8c0-1-0.4-1.8-1.3-2.5c-0.9-0.7-2-1-3.3-1c-0.5,0-0.9,0-1.3,0.1
			c0,0,0,0,0,0c-0.8,0.2-1.4,0.4-2,0.9l0,0l0,0c-0.9,0.7-1.3,1.5-1.3,2.4c0,0,0,0,0,0v24.5h-9.3V47.8c0-1-0.5-1.8-1.3-2.5
			c-0.6-0.4-1.3-0.7-2-0.9c0,0,0,0,0,0c-0.4-0.1-0.8-0.1-1.3-0.1c-1.3,0-2.4,0.3-3.3,1c-0.9,0.7-1.3,1.5-1.3,2.5v24.5h-9.3V47.8
			c0-1.4,0.4-2.8,1.1-4c0.7-1.3,1.7-2.4,3-3.3c1.2-0.9,2.7-1.7,4.4-2.2c1.7-0.6,3.5-0.8,5.4-0.8c1.8,0,3.5,0.2,5,0.7
			C247.4,38.6,248.8,39.3,250.1,40.1L250.1,40.1"/>
		<path class="st2" d="M328.4,38V25.7h9.3v22.1l0,0v14.5c0,1.4-0.4,2.8-1.1,4c-0.7,1.3-1.7,2.4-3,3.3c-1.2,0.9-2.7,1.7-4.4,2.2
			c-1.7,0.6-3.5,0.8-5.4,0.8c-1.9,0-3.7-0.3-5.4-0.8c-1.7-0.6-3.2-1.3-4.4-2.2c-1.2-0.9-2.2-2-3-3.3c-0.7-1.3-1.1-2.6-1.1-4v-2.6
			l0,0V47.8l0,0c0-1.2,0.2-2.3,0.7-3.3c0.1-0.2,0.2-0.5,0.4-0.7c0.7-1.3,1.7-2.4,3-3.3l0,0c1.2-0.9,2.7-1.7,4.4-2.2
			c0.1,0,0.3-0.1,0.4-0.1c1.6-0.5,3.3-0.7,5-0.7l0,0l0,0c0,0,0,0,0,0c0,0,0,0,0,0l0,0C325.4,37.4,326.9,37.6,328.4,38 M323.8,44.3
			c-1.3,0-2.4,0.3-3.3,1c-0.2,0.1-0.3,0.2-0.4,0.4c-0.6,0.6-0.9,1.3-0.9,2.1l0,0v14.5c0,1,0.4,1.8,1.3,2.5c0.9,0.7,2,1,3.3,1
			c1.3,0,2.4-0.3,3.3-1c0.9-0.7,1.3-1.5,1.3-2.5v-3l0,0V47.8c0-1-0.5-1.8-1.4-2.5C326.1,44.7,325,44.3,323.8,44.3"/>
	</g>
	<g>
		<path class="st2" d="M207.3,64.2c-1.3,0-2.4,0.4-3.3,1.1c-0.9,0.7-1.3,1.6-1.3,2.7v15.3h6.8V91h-6.8v22.9h-9.2V68
			c0-1.6,0.4-3.1,1.1-4.5c0.7-1.4,1.7-2.6,2.9-3.6c1.2-1,2.7-1.8,4.4-2.4c1.7-0.6,3.5-0.9,5.4-0.9c1.9,0,3.7,0.3,5.4,0.9
			c1.7,0.6,3.1,1.4,4.4,2.4c1.2,1,2.2,2.2,2.9,3.6c0.7,1.4,1.1,2.9,1.1,4.5h-9.2c0-1.1-0.4-2-1.3-2.7
			C209.7,64.6,208.6,64.2,207.3,64.2z"/>
		<path class="st2" d="M247.4,106.7c1.3,0,2.4-0.4,3.3-1.1c0.9-0.7,1.3-1.6,1.3-2.7h9.2c0,1.6-0.4,3.1-1.1,4.5
			c-0.7,1.4-1.7,2.6-2.9,3.6c-1.2,1-2.7,1.8-4.4,2.4c-1.7,0.6-3.5,0.9-5.4,0.9c-1.9,0-3.7-0.3-5.4-0.9c-1.7-0.6-3.1-1.4-4.4-2.4
			c-1.2-1-2.2-2.2-2.9-3.6c-0.7-1.4-1.1-2.9-1.1-4.5V86.8c0-1.6,0.4-3.1,1.1-4.5c0.7-1.4,1.7-2.6,2.9-3.6c1.2-1,2.7-1.8,4.4-2.5
			c1.7-0.6,3.5-0.9,5.4-0.9c1.9,0,3.7,0.3,5.4,0.9c1.7,0.6,3.1,1.4,4.4,2.5c1.2,1,2.2,2.2,2.9,3.6c0.7,1.4,1.1,2.9,1.1,4.5v9.6
			h-18.4v6.5c0,1.1,0.4,2,1.3,2.7C245.1,106.3,246.2,106.7,247.4,106.7z M242.8,90.6h9.2v-3.8c0-1.1-0.4-2-1.3-2.7
			c-0.9-0.7-2-1.1-3.3-1.1c-1.3,0-2.4,0.4-3.3,1.1c-0.9,0.7-1.3,1.6-1.3,2.7V90.6z"/>
		<path class="st2" d="M296.8,75.7h27.6v7.6l-16.1,22.9h16.1v7.7h-27.6v-7.7l16.1-22.9h-16.1V75.7z"/>
		<path class="st2" d="M356,83.8v34.3c0,1.6-0.4,3.1-1.1,4.5c-0.7,1.4-1.7,2.6-2.9,3.6c-1.2,1-2.7,1.8-4.4,2.4
			c-1.7,0.6-3.5,0.9-5.4,0.9c-1.9,0-3.7-0.3-5.4-0.9c-1.7-0.6-3.1-1.4-4.4-2.4c-1.2-1-2.2-2.2-2.9-3.6c-0.7-1.4-1.1-2.9-1.1-4.5h9.2
			c0,1.1,0.4,2,1.3,2.7c0.9,0.7,2,1.1,3.3,1.1c1.3,0,2.4-0.4,3.3-1.1c0.9-0.7,1.3-1.6,1.3-2.7v-4.9c-1.5,0.5-3,0.7-4.6,0.7
			c-1.9,0-3.7-0.3-5.4-0.9c-1.7-0.6-3.1-1.4-4.4-2.4c-1.2-1-2.2-2.2-2.9-3.6c-0.7-1.4-1.1-2.9-1.1-4.5V28.9h9.2l0,73.5
			c0,1.1,0.4,2,1.3,2.7c0.9,0.7,2,1.1,3.3,1.1c1.3,0,2.4-0.4,3.3-1.1c0.9-0.7,1.3-1.6,1.3-2.7V83.9L356,83.8z"/>
		<path class="st2" d="M221.4,76.2c0.5-0.2,1-0.3,1.5-0.4c1.2-0.3,2.4-0.4,3.7-0.4c2.8,0,5.3,0.6,7.6,1.9l-4.7,6.6
			c-0.7-0.6-1.7-0.9-2.9-0.9c-1.3,0-2.4,0.4-3.3,1.1c-0.1,0.1-0.3,0.2-0.4,0.4c0,0,0,0,0,0c-0.2,0.3-0.5,0.6-0.6,0.9
			c-0.1,0.2-0.1,0.3-0.2,0.5h0c-0.1,0.3-0.1,0.6-0.1,0.9v7.4l0,0v19.8h-9.2V90.2l0,0v-3.4c0-1.6,0.4-3.1,1.1-4.5
			c0.7-1.4,1.7-2.6,2.9-3.6c1-0.8,2.2-1.5,3.5-2.1l0,0c0.2-0.1,0.3-0.1,0.5-0.2c0.1-0.1,0.3-0.1,0.4-0.2
			C221.3,76.2,221.3,76.2,221.4,76.2"/>
		<path class="st2" d="M275.3,75.7L275.3,75.7c1.2-0.3,2.4-0.4,3.7-0.4c0,0,0,0,0,0c0,0,0,0,0,0c0,0,0,0,0,0c0,0,0,0,0,0
			c2.7,0,5.2,0.7,7.5,1.9l0,0c0.8,0.4,1.5,0.9,2.1,1.4c1.2,1,2.2,2.2,2.9,3.6c0.7,1.4,1.1,2.9,1.1,4.5v27.2h-9.2V86.8
			c0-1.1-0.5-2-1.3-2.7c-0.1-0.1-0.2-0.2-0.3-0.2l0,0c-0.2-0.2-0.5-0.4-0.8-0.5c-0.6-0.3-1.4-0.4-2.2-0.4c-1.3,0-2.4,0.4-3.3,1.1
			c0,0,0,0,0,0c-0.1,0.1-0.3,0.2-0.4,0.4c0,0,0,0,0,0c-0.3,0.3-0.5,0.6-0.6,0.9c-0.1,0.2-0.1,0.3-0.2,0.5h0
			c-0.1,0.3-0.1,0.6-0.1,0.9c0,0,0,0,0,0c0,0,0,0,0,0c0,0,0,0,0,0v7.4l0,0v19.8h-5.1l0,0h-4.1V90.2l0,0v-3.4c0-1.6,0.4-3.1,1.1-4.5
			c0.7-1.4,1.7-2.6,2.9-3.6c1-0.8,2.1-1.5,3.3-2l0,0C273.4,76.3,274.3,76,275.3,75.7"/>
	</g>
</g>
<g>
	<path class="st2" d="M370.9,116.6h-0.4c-3.3,0-4.9,1.2-4.9,3.6c0,1.4,0.6,2.4,1.9,3c1.3,0.6,3.1,0.9,5.6,0.9c2.4,0,4.3-0.4,5.5-1.2
		c1.2-0.8,1.8-1.9,1.8-3.4c0-0.8-0.2-1.6-0.5-2.6c-0.4-0.9-0.9-2-1.7-3.1c0.4-0.6,0.9-1.1,1.5-1.5c0.7-0.5,1.3-0.8,1.9-0.9
		c0.5,0.5,0.9,1.1,1.4,1.8c0.4,0.7,0.8,1.4,1.1,2.2c0.3,0.8,0.6,1.6,0.7,2.4c0.2,0.8,0.3,1.7,0.3,2.6c0,1.7-0.3,3.1-1,4.3
		c-0.6,1.2-1.5,2.1-2.6,2.8c-1.1,0.7-2.3,1.2-3.7,1.6c-1.4,0.3-2.9,0.5-4.4,0.5c-2,0-3.7-0.2-5.2-0.7c-1.5-0.5-2.7-1.2-3.7-2
		c-1-0.8-1.7-1.8-2.2-3s-0.7-2.4-0.7-3.7c0-1.3,0.2-2.5,0.5-3.6c0.4-1.1,0.8-2,1.5-2.8c0.6-0.8,1.3-1.3,2.2-1.8
		c0.8-0.4,1.7-0.6,2.7-0.6c2,0,2.9,1,2.9,3C371.2,115.2,371.1,115.8,370.9,116.6z"/>
	<path class="st2" d="M382.9,106.2c-2,2.4-5.2,3.5-9.7,3.5c-1.9,0-3.6-0.2-5.1-0.7s-2.7-1.1-3.7-2c-1-0.8-1.7-1.9-2.2-3.1
		c-0.5-1.2-0.8-2.6-0.8-4.1s0.3-2.9,0.8-4.1c0.5-1.2,1.3-2.3,2.3-3.1c1-0.8,2.2-1.5,3.7-2c1.5-0.5,3.2-0.7,5.1-0.7
		c1.9,0,3.6,0.2,5.1,0.7c1.5,0.5,2.7,1.1,3.7,2c1,0.8,1.7,1.9,2.2,3.1c0.5,1.2,0.8,2.6,0.8,4.1C385,102.4,384.3,104.5,382.9,106.2z
		 M378.3,103.5c1.7-0.6,2.6-1.8,2.6-3.6c0-0.9-0.2-1.6-0.7-2.2c-0.5-0.6-1-1-1.7-1.3c-0.7-0.3-1.5-0.5-2.3-0.6
		c-0.9-0.1-1.7-0.2-2.5-0.2c-0.8,0-1.6,0-2.6,0.1c-0.9,0.1-1.8,0.2-2.7,0.5c-0.8,0.3-1.5,0.7-2.1,1.3c-0.6,0.6-0.8,1.4-0.8,2.5
		c0,1.1,0.3,1.9,0.8,2.4c0.5,0.6,1.2,1,2,1.3c0.8,0.3,1.6,0.4,2.5,0.5c0.9,0.1,1.7,0.1,2.4,0.1c1,0,1.9,0,2.7-0.1
		C376.7,104,377.5,103.8,378.3,103.5z"/>
	<path class="st2" d="M384.4,87l-22.5-1.8c-0.2-1-0.3-2.1-0.3-3.4c0-1.3,0.1-2.5,0.3-3.5l8.1-2c3.7-0.8,5.7-1.2,6-1.2V75
		c-0.6-0.1-2.5-0.5-6-1.2l-8.1-2c-0.2-1-0.3-2.1-0.3-3.4c0-1.3,0.1-2.5,0.3-3.5l22.5-1.8c0.2,0.7,0.3,1.5,0.3,2.5
		c0,1-0.1,1.8-0.2,2.5l-9.2,0.5c-3.7,0.2-6.2,0.2-7.6,0.3v0.2l13.5,3.3c0.1,0.8,0.2,1.7,0.2,2.7s-0.1,1.9-0.2,2.7l-13.5,3.2v0.2
		c2,0,4.5,0.1,7.6,0.3l9.2,0.5c0.1,0.6,0.2,1.5,0.2,2.5C384.7,85.5,384.6,86.4,384.4,87z"/>
	<path class="st2" d="M384.5,58.7h-22.6c-0.1-0.7-0.2-1.6-0.2-2.6c0-1.1,0.1-2,0.2-2.7h22.6c0.1,0.7,0.2,1.6,0.2,2.7
		C384.7,57.2,384.6,58,384.5,58.7z"/>
	<path class="st2" d="M370.9,36.5h-0.4c-3.3,0-4.9,1.2-4.9,3.6c0,1.4,0.6,2.4,1.9,3c1.3,0.6,3.1,0.9,5.6,0.9c2.4,0,4.3-0.4,5.5-1.2
		c1.2-0.8,1.8-1.9,1.8-3.4c0-0.8-0.2-1.6-0.5-2.6c-0.4-0.9-0.9-2-1.7-3.1c0.4-0.6,0.9-1.1,1.5-1.5c0.7-0.5,1.3-0.8,1.9-0.9
		c0.5,0.5,0.9,1.1,1.4,1.8c0.4,0.7,0.8,1.4,1.1,2.2c0.3,0.8,0.6,1.6,0.7,2.4c0.2,0.8,0.3,1.7,0.3,2.6c0,1.7-0.3,3.1-1,4.3
		c-0.6,1.2-1.5,2.1-2.6,2.8c-1.1,0.7-2.3,1.2-3.7,1.6c-1.4,0.3-2.9,0.5-4.4,0.5c-2,0-3.7-0.2-5.2-0.7c-1.5-0.5-2.7-1.2-3.7-2
		c-1-0.8-1.7-1.8-2.2-3s-0.7-2.4-0.7-3.7c0-1.3,0.2-2.5,0.5-3.6c0.4-1.1,0.8-2,1.5-2.8c0.6-0.8,1.3-1.3,2.2-1.8
		c0.8-0.4,1.7-0.6,2.7-0.6c2,0,2.9,1,2.9,3C371.2,35.1,371.1,35.8,370.9,36.5z"/>
	<path class="st2" d="M382.5,30c-0.7-0.1-1.5-0.3-2.2-0.7c-0.7-0.4-1.3-0.8-1.8-1.4c1.4-2.4,2.2-4.6,2.2-6.7c0-0.9-0.2-1.6-0.6-2
		c-0.4-0.4-0.9-0.6-1.6-0.6c-1,0-1.9,0.7-2.4,2.1l-1.7,3.9c-0.7,1.5-1.5,2.7-2.5,3.5c-1,0.8-2.2,1.2-3.7,1.2c-1,0-1.9-0.2-2.8-0.6
		c-0.8-0.4-1.6-1-2.2-1.7c-0.6-0.7-1.1-1.6-1.4-2.6c-0.3-1-0.5-2.1-0.5-3.4c0-2.5,0.6-5,1.9-7.5c1.7,0.1,3,0.7,4,1.8
		c-1.1,2.3-1.6,4.2-1.6,6c0,0.9,0.2,1.5,0.6,2c0.4,0.4,0.8,0.7,1.4,0.7c0.9,0,1.6-0.7,2.1-2l1.7-4c0.7-1.7,1.6-2.9,2.7-3.8
		c1.1-0.8,2.4-1.2,3.8-1.2c1,0,2,0.2,2.8,0.6c0.9,0.4,1.6,0.9,2.2,1.7c0.6,0.7,1.1,1.7,1.5,2.8c0.4,1.1,0.5,2.4,0.5,3.9
		C385,24.7,384.1,27.4,382.5,30z"/>
</g>
</svg>
