<?xml version="1.0" encoding="utf-8"?>
<!-- Generator: Adobe Illustrator 19.2.1, SVG Export Plug-In . SVG Version: 6.00 Build 0)  -->
<svg version="1.1" id="Layer_1" xmlns="http://www.w3.org/2000/svg" xmlns:xlink="http://www.w3.org/1999/xlink" x="0px" y="0px"
	 viewBox="0 0 751.3 779.7" style="enable-background:new 0 0 751.3 779.7;" xml:space="preserve">
<style type="text/css">
	.st0{fill:#161616;}
</style>
<g>
	<path class="st0" d="M746.2,411c0,0.8,0,1.7,0,2.5c0,1.1-0.1,2.2-0.8,3.3c-1.6-3.6-3.1-7.2-4.9-11.2c-8.7,11.3-7.8,24.3-9.7,36.6
		c-1.8-13.3-5.7-25.5-13.2-36.4c-0.5,0-1,0.1-1.5,0.1c-1.4,13.9-2.8,27.8-4.2,42c-2.7-1.3-5.9-3.3-8.1-6.7
		c-4.2-6.5-12.1-12.5-18.1-13.6c0.3,2.9,0.3,5.8,0.8,8.6c0.4,2.6,1.3,5.2,2.2,8.7c-4.1-1.6-7.3-2.8-11.3-4.3
		c-2.5,1.6-5.6,3.6-9.2,5.9c-0.2-1.5-0.4-3.3-0.6-4.6c0.6-0.7,0.6-0.9,0.7-0.9c9.3-2.7,7.8-2.2,8.4-11.3c0.4-6.4,0.3-7,6-8.6
		c5.6-1.6,8.5-7.5,6.7-12.8c-0.3-0.8,0.4-2.3,1.1-3.2c1.1-1.4,2.5-2.4,3.9-0.1c0.4,0.6,1.1,1.3,1.8,1.5c4.7,0.9,3.4,3.2,1,5.1
		c-3.1,2.5-2.3,4.3,0.4,6.3c0.5,0.3,0.7,1.1,1,1.6c1.9-1,8-11.3,7.4-13c-0.5-1.4-1.8-2.4-2.8-3.6c0.1-0.1,0.2-0.6,0.3-0.6
		c5.2,0.3,7.2-3.7,7.9-7.5c1-5,4-6.1,8.4-6c-1.5-3.5-5.5-4.2-8.1-1.3c-1.5,1.7-2.8,3.7-3.5,5.8c-1.1,3.3-2.6,4.9-6.3,4.2
		c-1.9-0.4-4-0.1-6-0.1c2.6-5.5,5.1-10.6,7.3-15.2c-2.2-2.5-3.7-4.2-5.2-5.9c-4.5-0.2-7.6,2.9-11.1,5.8c2.3,1.6,4.4,3.1,7.3,5.1
		c0.1-2.6,0.2-4.2,0.4-6.6c-0.2,0,1.3-0.6,1.6-0.2c1.4,2,3.8,4.4,3.5,6.2c-0.9,4.4-5.2,6.5-8.9,8.6c-0.9,0.5-2.5-0.5-3.8-0.7
		c-0.3,1.3-0.7,2.5-1,3.6c-0.6-9.2-3.9-13.6-10.5-13.4c-7.3,0.2-11.6,5.5-10.7,13c-3.3,1.6-6.4,1.6-8.6-2.2c-0.6,1.2-1.1,2-1.7,3
		c2.2,1.1,4.3,3.1,6.3,2.9c3.5-0.3,6.9-1.8,10.2-3.1c0.6-0.2,0.9-2.2,0.7-3.2c-0.2-1.5-1-2.9-1.5-4.3c4.9-3.5,5.7-3.3,10.7,3.3
		c-3.2,5.9-6.5,11.7-14.8,11c-0.7-0.1-1.8,0.3-2.1,0.8c-1.6,3.4-2.9,6.9-4.4,10.4c-1.1,2.5-1.5,5.5-5.8,5.5c-2.3,0-4.9,2.1-6.7,4
		c-1.8,1.9-2.6,4.3,0.6,6.5c3.3,2.3,6.4,5.1,8.9,8.3c2,2.6,3,6.1,4.4,9.2c-0.4,0.2-0.8,0.5-1.3,0.7c-4.4-4.7-8.9-9.4-13.5-14.2
		c-1.7,2.3-3.2,4.3-4.5,6.1c-2.4-1-4.7-1.9-7.9-3.3c-2.1-3.8-7.7-8.4-0.3-14.4c-2-1.5-3.6-2.6-5.8-4.3c0.9-1.7,2-3.7,3.5-6.5
		c-1.9-0.3-4.1-0.7-6.6-1.1c-2.8-3.6-5.7-7.5-4.8-13c1-5.8,6.3-6.9,9.4-9.3c0.6-3.2,1.4-5.8,1.6-8.4c0.2-2.5-0.3-5.1-0.5-8.7
		c1.2-0.3,3.2-0.7,5.4-1.2c-1.2-3.9-6.8-4.2-6.9-9.5c-0.1-5.4,5.1-6.3,6-11.2c-3,1.2-6.1,2.5-9.2,3.7c-1.6-2.6-3.3-4.9-4.5-7.5
		c-1.1-2.6-1.7-5.5-2.7-9.1h8.9c-0.6-2.3-1.1-4-1.7-5.9c-2.6,0.8-4.7,1.4-7.9,2.4c-0.1-4.5-0.8-8.6-0.2-12.6c0.6-3.8,2.5-7.3,4-11.4
		c0.9-0.1,2.4-0.2,4.4-0.4c-1.5-2.6-2.7-4.8-3.9-7c-0.4,0.2-0.8,0.3-1.1,0.5c0.8-2.3,1.7-4.6,2.6-7c1.4-0.4,2.9-0.8,4.4-1.2l0.1-0.9
		c-1.5-0.6-2.9-1.2-4.6-1.9v-4.5c1.8-0.2,3.4-0.5,5-0.7c-0.3-0.9-0.5-1.8-0.8-2.6c-0.3-0.8-0.5-2.3-0.9-2.3c-3.6-0.3-2.8-3.7-4-5.7
		c-0.2-0.4,0.7-1.5,1.1-2.1c-1.8-1.6-3.4-3.1-5.1-4.6h8.8c-1.5-4.7-2.6-5.3-7.3-3.9c-0.4-3.3-0.8-6.5-1.3-9.8c5.5-0.1,6.1-1.3,4.9-6
		c-0.7-2.8-0.5-5.8-0.8-9.1c1.2,0.1,2.1,0.2,4,0.5c-1.2-3.8-2.3-7.1-3.3-10.4c4.3-1.5,4.5-2,1.9-6.3c-1.2-1.9-2.4-3.8-4.3-5.5
		c0.3-4,0.7-8.3,4.8-11.2c0.6-0.5,1.2-1.9,1-2.5c-0.4-0.9-1.6-1.8-2.5-1.9c-1-0.1-2.1,0.7-3.4,1.2c-0.6-0.6-1.3-1.4-2-2.2
		c-0.6,0.6-1.1,1.2-1.6,1.7c-0.2-0.1-0.5-0.2-0.7-0.3c0.5-2,1-3.9,1.5-5.9c1.5,1,2.6,1.7,3.5,2.3c1-2,1.9-3.7,2.5-5
		c-0.7-2.4-0.7-5.5-2.3-7.1c-2.5-2.6-0.8-4.9-0.9-7.6c3.1,0.4,6,0.8,9.2,1.2c0.1-2.5-0.1-4.2-3.3-4.8c-1.1-0.2-2.1-0.7-2.8-1.4
		c0.1-0.5,0.1-1,0.2-1.5c0.2-2.5-0.3-5.1-0.5-8.7c1.2-0.3,3.2-0.7,5.4-1.2c-1.2-3.9-6.7-4.2-6.9-9.5c-0.1-5.4,5.1-6.3,5.9-11.2
		c-3,1.2-6.1,2.5-9.1,3.7c-1.6-2.6-3.3-4.9-4.4-7.5c-1.1-2.6-1.6-5.5-2.7-9.1h8.9c-0.6-2.3-1.1-4-1.7-5.9c-2.5,0.8-4.6,1.4-7.8,2.4
		c-0.1-4.5-0.8-8.6-0.2-12.6c0.6-3.8,2.5-7.3,4-11.4c0.9-0.1,2.4-0.2,4.4-0.4c-1.5-2.6-2.7-4.8-3.9-7c-0.4,0.2-0.8,0.3-1.1,0.5
		c0.8-2.3,1.7-4.6,2.5-7c1.4-0.4,2.9-0.8,4.4-1.2l0.1-0.9c-1.5-0.6-2.9-1.2-4.5-1.9v-4.5c1.8-0.2,3.3-0.5,4.9-0.7
		c-0.3-0.9-0.5-1.8-0.8-2.6c-0.3-0.8-0.5-2.3-0.8-2.3c-3.6-0.3-2.8-3.7-4-5.7c-0.2-0.4,0.7-1.5,1.1-2.1c-1.8-1.6-3.4-3.1-5-4.6h8.8
		c-1.4-4.7-2.6-5.3-7.3-3.9c-0.4-3.3-0.8-6.5-1.3-9.8c5.5-0.1,6.1-1.3,4.9-6c-0.7-2.8-0.5-5.8-0.8-9.1c1.2,0.1,2.1,0.2,4,0.5
		c-1.2-3.8-2.3-7.1-3.3-10.4c4.3-1.5,4.5-2,1.9-6.3c-1.2-1.9-2.4-3.8-4.3-5.5c0.3-4,0.7-8.3,4.7-11.2c0.6-0.5,1.2-1.9,0.9-2.5
		c-0.4-0.9-1.6-1.8-2.5-1.9c-1-0.1-2.1,0.7-3.3,1.2c-0.6-0.6-1.3-1.4-2-2.2c-0.6,0.6-1,1.2-1.5,1.7c-0.2-0.1-0.5-0.2-0.7-0.3
		c0.5-2,1-3.9,1.5-5.9c1.5,1,2.6,1.7,3.5,2.3c1-2,1.9-3.7,2.5-5c-0.7-2.4-0.7-5.5-2.3-7.1c-2.4-2.6-0.8-4.9-0.9-7.6
		c3.1,0.4,6,0.8,9.1,1.2c0.1-2.5-0.1-4.2-3.2-4.8c-1.8-0.3-3.2-1.3-3.6-2.9c0.4-2.2,0.8-4.4,1-5.7c2.3-3.2,4.1-5.9,6.6-9.3
		c-3.9,0.3-6.4,0.4-8.7,0.6c-1.5-5.5,0.9-9.3,4.4-11.5c-2.2-1.8-5.4-3.1-5.7-4.9c-0.5-2.6-1.9-6.3,2.1-8.3c1.4-0.7,2-2.7-0.2-4
		c-0.6-0.4-0.8-1.5-1.3-2.5h4c1.1-1.8,2.3-3.5,3.5-5.4c-1.3-0.4-2.3-0.7-3.9-1.1c2.3-3.2,4.4-6,6.4-8.8c-0.3-0.4-0.6-0.7-0.9-1.1
		c-1.9,0.5-3.8,1-5.8,1.5v-3.9c1.8-1.1,3.6-2.2,5.3-3.3c-1-2.1-1.7-4.4-2.3-6.7c-2.1,0.3-4.7-0.2-5.2-1.6c-0.5-1.3-1.2-2.7-1.2-4
		c0-1.5,1.3-3.5-1.9-2.7c0.2-0.8,0.2-1.6,0.6-2.3c1.4-2.8,3-5.5,5-9.3c-2.3,0.4-3.1,0.5-4.7,0.8c0.6-3.3,1.1-6.2,1.9-9
		c0.2-0.6,1.6-0.9,2.5-1.4c2.7-1.5,2.6-3.4,0.4-5.7c-1.3-1.4-2.4-3.7-2.3-5.5c0.1-1,2.8-1.8,4.4-2.7c0.8-0.5,1.9-1,2.2-1.8
		c1-2.4,1.6-4.9,2.5-7.6c-0.6,0.1-1,0-1.5,0.2c-1.3,0.4-2.6,0.9-3.9,1.4c-0.4-2.2-4.6-2.9-2.4-6.2c2-3,3.8-6.1,5.6-9.2
		c0.4-0.7,0.7-1.6,1-2.3c3,1.3,6.5-2.3,7.5-7.6c-2,0.3-3.8,0.6-5.8,0.9c-4.8-6.2,2.7-9,3.5-13.2c1.9,0.5,3.3,1.1,4.9,1.4
		c0,0,0.1,0,0.1,0c-0.1-1-0.2-1.9-0.3-2.9c-0.1-1.2,0-2.5,0.1-3.7c-0.1,0-0.2,0-0.2-0.1c-1-0.3-2.1-1.4-2.4-2.4
		c-1.1-4.1-3.8-8.3,0.6-12.4c1.1-1,0.9-3.4,1.3-5.2c-0.3-0.2-0.6-0.4-0.9-0.6c-1.4,0.8-2.7,1.6-4.4,2.5c-0.5-1.9-1.1-3.7-1.6-5.7
		c-0.5,0.9-0.9,1.6-1.3,2.4c-0.2-0.1-0.4-0.1-0.6-0.2c0.3-4,1.5-8.2,0.6-12c-0.6-2.7-2.2-5.2-3.8-7.6h0.4c0.4-2.4,0.9-4.8,1.1-6.2
		c2.4-3.2,4.4-5.9,7-9.3c-4.1,0.3-6.8,0.4-9.3,0.6c-1.6-5.5,1-9.3,4.7-11.5c-2.3-1.8-5.7-3.1-6.1-4.9c-0.5-2.6-2-6.3,2.3-8.3
		c1.5-0.7,2.1-2.7-0.2-4c-0.2-0.1-0.4-0.4-0.6-0.7H478.4c-0.5,2.8-1.6,5.5-4.6,7.5c-0.7,0.5-1.3,1.9-1,2.5c0.5,0.9,1.7,1.8,2.7,1.9
		c1.1,0.1,2.3-0.7,3.6-1.2c0.6,0.6,1.4,1.4,2.1,2.2c0.6-0.6,1.1-1.2,1.7-1.7c0.2,0.1,0.5,0.2,0.7,0.3c-0.5,2-1,3.9-1.6,5.9
		c-1.6-1-2.8-1.7-3.8-2.3c-1.1,2-2,3.7-2.7,5c0.8,2.4,0.8,5.5,2.4,7.1c2.6,2.6,0.9,4.9,1,7.6c-3.3-0.4-6.4-0.8-9.8-1.2
		c-0.1,2.5,0.1,4.2,3.5,4.8c2.3,0.4,4.1,1.8,4,4c-0.3,0-0.7,0-1,0c-0.7-0.1-1.5-0.1-2.2-0.2c-0.1,0.8-0.3,1.6-0.3,2.5
		c-0.2,2.5,0.3,5.1,0.5,8.7c-1.2,0.3-3.2,0.7-5.4,1.2c1.2,3.9,6.8,4.2,6.9,9.5c0.1,5.4-5.1,6.3-6,11.2c3-1.2,6.1-2.5,9.2-3.7
		c1.6,2.6,3.3,4.9,4.5,7.5c1.1,2.6,1.7,5.5,2.7,9.1h-8.9c0.6,2.3,1.1,4,1.7,5.9c2.6-0.8,4.7-1.4,7.9-2.4c0.1,4.5,0.8,8.6,0.2,12.6
		c-0.6,3.8-2.5,7.3-4,11.4c-0.9,0.1-2.4,0.2-4.4,0.4c1.5,2.6,2.7,4.8,3.9,7c0.4-0.2,0.8-0.3,1.1-0.5c-0.8,2.3-1.7,4.6-2.6,7
		c-1.4,0.4-2.9,0.8-4.4,1.2l-0.1,0.9c1.5,0.6,2.9,1.2,4.6,1.9v4.5c-1.8,0.2-3.4,0.5-5,0.7c0.3,0.9,0.5,1.8,0.8,2.6
		c0.3,0.8,0.5,2.3,0.9,2.3c3.6,0.3,2.8,3.7,4,5.7c0.2,0.4-0.7,1.5-1.1,2.1c1.8,1.6,3.4,3.1,5.1,4.6h-8.8c1.5,4.7,2.6,5.3,7.3,3.9
		c0.4,3.3,0.8,6.5,1.3,9.8c-5.5,0.1-6.1,1.3-4.9,6c0.7,2.8,0.5,5.8,0.8,9.1c-1.2-0.1-2.1-0.2-4-0.5c1.2,3.8,2.3,7.1,3.3,10.4
		c-4.3,1.5-4.5,2-1.9,6.3c1.2,1.9,2.4,3.8,4.3,5.5c-0.3,4-0.7,8.3-4.8,11.2c-0.6,0.5-1.2,1.9-1,2.5c0.4,0.9,1.6,1.8,2.5,1.9
		c1,0.1,2.1-0.7,3.4-1.2c0.6,0.6,1.3,1.4,2,2.2c0.6-0.6,1.1-1.2,1.6-1.7c0.2,0.1,0.5,0.2,0.7,0.3c-0.5,2-1,3.9-1.5,5.9
		c-1.5-1-2.6-1.7-3.5-2.3c-1,2-1.9,3.7-2.5,5c0.7,2.4,0.7,5.5,2.3,7.1c2.5,2.6,0.8,4.9,0.9,7.6c-3.1-0.4-6-0.8-9.2-1.2
		c-0.1,2.5,0.1,4.2,3.3,4.8c2.7,0.5,4.8,2.6,3.2,6h0.9c-0.2,1.1-0.3,2-0.4,2.7c-2.3,3.2-4.1,5.9-6.5,9.3c3.8-0.3,6.4-0.4,8.7-0.6
		c1.5,5.5-0.9,9.3-4.4,11.5c2.2,1.8,5.3,3.1,5.6,4.9c0.5,2.6,1.9,6.3-2.1,8.3c-1.4,0.7-2,2.7,0.2,4c0.6,0.4,0.8,1.5,1.3,2.5h-3.9
		c-1.1,1.8-2.2,3.5-3.5,5.4c1.3,0.4,2.3,0.7,3.9,1.1c-2.3,3.2-4.3,6-6.3,8.8c0.3,0.4,0.6,0.7,0.9,1.1c1.9-0.5,3.8-1,5.8-1.5v3.9
		c-1.8,1.1-3.5,2.2-5.3,3.3c1,2.1,1.7,4.4,2.2,6.7c2.1-0.3,4.6,0.2,5.2,1.6c0.5,1.3,1.2,2.7,1.2,4c0,1.5-1.3,3.5,1.9,2.7
		c-0.2,0.8-0.2,1.6-0.6,2.3c-1.4,2.8-3,5.5-5,9.3c2.3-0.4,3.1-0.5,4.7-0.8c-0.6,3.3-1.1,6.2-1.9,9c-0.2,0.6-1.6,0.9-2.5,1.4
		c-2.7,1.5-2.6,3.4-0.4,5.7c1.3,1.4,2.4,3.7,2.3,5.5c-0.1,1-2.8,1.8-4.3,2.7c-0.8,0.5-1.9,1-2.2,1.8c-1,2.4-1.6,4.9-2.5,7.6
		c0.6-0.1,1,0,1.4-0.2c1.3-0.4,2.6-0.9,3.8-1.4c0.4,2.2,4.5,2.9,2.4,6.2c-2,3-3.7,6.1-5.5,9.2c-0.4,0.7-0.7,1.6-1,2.3
		c-3-1.3-6.4,2.3-7.4,7.6c1.9-0.3,3.8-0.6,5.8-0.9c4.8,6.2-2.7,9-3.5,13.2c-1.9-0.5-3.3-1.1-4.8-1.4c0,0-0.1,0-0.1,0
		c0.1,1,0.2,1.9,0.3,2.9c0.1,1.2,0,2.5-0.1,3.7c0.1,0,0.2,0,0.2,0.1c1,0.3,2.1,1.4,2.3,2.4c1,4.1,3.8,8.3-0.6,12.4
		c-1.1,1-0.9,3.4-1.3,5.2c0.3,0.2,0.6,0.4,0.9,0.6c1.4-0.8,2.7-1.6,4.4-2.5c0.5,1.9,1,3.7,1.6,5.7c0.5-0.9,0.9-1.6,1.3-2.4
		c0.2,0.1,0.4,0.1,0.6,0.2c-0.3,4-1.5,8.2-0.6,12c0.9,3.9,3.8,7.4,5.9,11.2c0.3-0.4,0.7-0.8,1.3-1.5c0.9,1.7,1.7,3.3,2.4,4.7
		c0.2,0,0.3,0,0.5,0c-1.2,1.7-2.4,3.4-3.8,5.4c3.9-0.3,6.4-0.4,8.7-0.6c1.5,5.5-0.9,9.3-4.4,11.5c2.2,1.8,5.4,3.1,5.7,4.9
		c0.5,2.6,1.9,6.3-2.1,8.3c-1.4,0.7-2,2.7,0.2,4c0.6,0.4,0.8,1.5,1.3,2.5h-4c-1.1,1.8-2.3,3.5-3.5,5.4c1.3,0.4,2.3,0.7,3.9,1.1
		c-2.3,3.2-4.4,6-6.4,8.8c0.3,0.4,0.6,0.7,0.9,1.1c1.9-0.5,3.8-1,5.8-1.5v3.9c-6.7,4.1-13,8-19.4,11.9c-2.3,1.4-4.1,3.9-7.5,3.3
		c-0.8-0.1-2,2.3-2.9,3.6c-0.4,0.7-0.3,1.7-0.8,2.3c-3.8,4.8-7.7,9.5-11.4,14.4c-2.2,3-4,6.3-6.2,9.3c-1.8,2.6-3.8,5.1-5.8,7.7
		c-1.5-0.3-3.1-0.6-4.8-0.9c0.3,2.4,0.6,4.5,0.9,6.5c-0.9,6.4-2.8,13-4.7,19.5c-0.8,2.7-2.7,3.2-4.7,1.2c-0.9-0.9-1.5-2.1-2.2-3.2
		c-2.3-3.8-5.3-7.2-9.9-7.8c-4.6-0.5-9.5-0.7-14.1,0c-4.7,0.7-9,2.8-11.8,7.1c-4.1,6.2-4.9,12.8-3.3,19.9c0.2,1.1-0.2,2.3-0.3,3.3
		c4,3.9,8.2,8,12.3,12.2c-2.8,1.7-6.5,2.6-7.2,4.5c-1.1,3.1-3.3,3.3-5.4,4.1c-3.4,1.3-7,2.4-10.5,3.1c-4.8,0.9-9.7,1-14.5,1.9
		c-1.3,0.2-2.6,1.8-3.4,3.1c-1.1,1.8-1.5,4.2-2.8,5.8c-5.8,7.3-11.8,14.5-17.9,21.5c-1,1.2-3.3,1.3-4.9,1.9
		c-0.8,0.2-1.5,1.1-2.1,2.1c-1.2,1.9-2,3.7,0.8,4.9c1.6,7.3,3.2,14.5,4.7,21c-1.4,1.2-2.4,1.9-3.6,2.9c-3.4-2.5-3.3-2.5-5.1,2.6
		c-0.4,1-1,2-1.6,3.2c-1.3-1.7-1.5-2.2-1.9-2.5c-1.6-0.9-3.3-2.5-4.8-2.4c-2.2,0.1-6.1,7.2-6.1,9.6c0,2.5,0,5.1,0,8
		c-1.6,0.2-2.9,0.5-4.2,0.5c-1.6,0-3.8-0.9-4.7-0.2c-2.7,2.3-3.5-1.5-5.3-1.2c-0.1-1.3-0.5-2.7-0.3-4c0.1-1.4,0.7-2.7,0.9-3.3
		c-3.7-0.9-6.3-1.5-9.4-2.2c1.5-2.9,2.5-4.9,3.5-7c1.3,0.5,2.3,0.9,2.8,1.1c1-1.6,1.9-2.9,3-4.5c1.2,1.6,1.8,2.5,2.4,3.4
		c0.3,0,0.6-0.1,0.8-0.1v-4.4c1.8-0.3,3.5-0.5,5.2-0.7c-0.5-2-1-3.9-1.5-6.2c1.2-0.6,3-1.4,5.9-2.8c-3-1.3-5.1-2.2-7.8-3.4
		c-0.4-0.9-1.1-2.6-1.8-4.4c1.2-0.4,2.1-0.7,3-1c0-0.4-0.1-0.7-0.1-1.1h-8.6c-0.6-4.2-1.2-8.4-1.8-12.6c-0.4,0-0.9,0-1.3,0.1
		c-1.4,2.4-2.7,4.9-4.2,7.1c-0.7,0.9-2,1.9-3,1.9c-0.7,0-1.4-1.7-2.1-2.6c-1.1-1.7-2.2-3.3-3.3-5c-0.3,0.1-0.7,0.2-1,0.3
		c-0.3,3.3-0.5,6.6-0.8,10.1c-2.4-0.4-4.4-0.7-7-1.1c-0.7,0.9-2.9,2.5-2.8,4c0.1,1.6,2.3,3.1,3.7,4.8c-3,1.6-8.1-0.6-8.5,4.3
		c2.3,1.1,4.3,2,6.8,3.1c-2.3,2.6-4,4.4-5.7,6.4c4.9,2.4,8.1-4.5,12.7-1.6c-0.6,1.5-1.1,2.8-1.6,3.9c2.1,0.2,4.1,0.4,6.5,0.6
		c0.4-0.5,1.1-1.6,2.1-2.9c1,2.1,2.5,3.6,2.2,4.7c-1.3,4.2-3,8.3,0.8,12.5c-1.8-0.2-3.3-0.3-4.1-1.2c-2.6-3-5.8-2.4-9-1.7
		c-2.5,0.5-5.1,2-7.5,1.8c-1.9-0.1-4.6-1.7-5.4-3.4c-2-4.5-3.2-9.4-4.7-14.2c-3.6,0.8-7.5,1.9-11.5,2.5c-4.1,0.6-5.1,1.8-4,6.7
		c1.8-0.7,3.7-1.1,5.2-2.1c2.5-1.6,6.7-1.8,8.4,0.5c1.5,2,1.1,4.3-0.9,6.3c-1.4,1.5-1.9,3.7,0.9,4.7c3.3,1.2,6.7,2.4,10.2,3.1
		c2.5,0.5,5.3-0.3,7.8,0.1c1.9,0.3,4,1.5,5.1,2.9c0.9,1.2,0.9,3.2-1.5,4.5c-1.8,1-1.3,3.2,1.1,4.5c3.2,1.8,6.3,3.9,9.3,6.1
		c0.4,0.3,0.6,1.5,0.3,1.8c-1.1,1.3-2.3,3.2-3.8,3.6c-2.7,0.7-3.4-2.3-4.8-3.9c-1.3-1.4-3.7-3.6-4.5-3.2c-4.5,2.4-7.1-1-10.5-2.7
		c0.3-1,0.6-2,0.8-3c0.7-4.7-1.6-8.1-4.9-7.6c-2.7,0.4-5.5,0.4-8.3,0.9c-2.8,0.5-5.8,0.8-8.3,2c-0.9,0.4-0.6,3.2-0.9,4.9
		c0,0.3-0.6,0.4-1.1,0.8c-0.9-1.2-1.7-2.3-2.6-3.4c-0.9-1.2-1.9-2.4-2.8-3.6c-2.1,0.9-3.8,1.7-5.5,2.5c-0.2,1.3-0.3,2.5-0.5,4.3
		c-1.5-1.2-2.5-2.4-3.7-3c-1.6-0.8-4-2.1-4.9-1.5c-3.2,2.2-3.4-0.1-4.1-2.1c-5.7-0.6-5.8-0.7-10.7-8.1c-2.9,0.5-6,1.1-9,1.4
		c-2.3,0.2-5.1,0.8-7-0.2c-3.4-1.7-6.3-0.5-9.2,0.5c-4.7,1.6-9.2,4.4-14,5c-6,0.8-10.3,2.8-14,7.7c-2.2,2.9-2.8,4.7-0.5,7.4
		c0.6,0.7,0.5,2,0.7,3.1c2.3-0.2,5.9,2,7.2,4.3c0.2,0.4,1.1,0.7,1.6,0.6c0.5-0.1,1.1-0.6,1.3-1c0.3-0.9,0.4-1.8,0.6-3.4
		c5.1,5.1,10.3,2.8,15.5,1.9c1.2,5.9,0.4,8.6-2.8,10.4c-1.5-0.7-2.4-1.3-3.4-1.4c-1.4-0.3-3.3,0.4-4.2-0.4c-2.9-2.3-5.6-1.5-8.6-0.4
		c-2.4,0.9-5.8,2.2-7.5,1.1c-3.7-2.3-7-1-10.6-0.9c-1.8,0-3.7-0.2-5.5-0.4c-0.4,0-0.7-0.3-1-0.4c0.1-0.2,0.2-0.5,0.4-0.7
		c0.9-0.1,1.8-0.1,2.5-0.2c0-1.3-0.5-2.9,0.1-3.4c3.1-2.6,3.9-5.8,4-9.8c0.2-5.7,3-11.7-4.5-15.2c-2-0.9-3.7-3-4.8-5
		c-2.2-3.8-5.4-4.1-9.1-3.3c-0.3,0.1-0.6-0.2-1.4-0.5c1-0.7,1.7-1.2,2.8-1.9c-1.6-0.9-2.8-1.6-4.3-2.4c0,1,0.1,2.1,0,2.2
		c-3.7,0.7-7.7,0.6-10.7,3.4c-0.1,0.1-0.4-0.1-0.9-0.3c0.6-0.9,1.1-1.7,1.7-2.4l-0.7-0.6c-2.9,2.5-5.8,5-9.5,8.1
		c1.9-0.3,2.7-0.4,4-0.6c-0.9,1.4-1.5,2.3-1.8,2.8c1,1.4,1.8,2.6,2.1,3c-2.2,0.6-4.6,0.5-5.9,1.6c-2.2,2-3.8,4.7-6.1,7.6
		c1.3,2.6-5.3,6.1-0.2,10c-1.1,0-1.9-0.1-2.5-0.4c-4.7-2.3-9.2-3.3-14.5-0.8c-3.8,1.8-9,3.8-12.3,2.6c-4.5-1.8-8.6-2.2-12.7-0.8
		c-4.9,1.6-10.5,0.2-14.8,4.9c-3.9,4.4-9,2.8-11.9-3c-3.5,1.4-7,2.9-10.9,4.5v-6.1c1.1-0.2,2.1-0.3,3.1-0.5c3.6-1,7.1-1.8,10.6-3
		c2.6-0.9,5.4-1.7,7.7-3.2c1.9-1.2,2.9-3.6,5.7-3.4c0.5,0,1.5-1.2,1.4-1.7c-0.6-3.2,0.7-3,3-2.1c0.8,0.3,1.9-0.3,2.9-0.4
		c-0.2-0.9-0.5-1.8-0.7-2.7c-0.2-0.8-0.7-1.8-0.4-2.4c1.4-2.7,3-5.2,4-6.8c2.8,0.4,6.7,1.5,7.1,0.8c2.2-4.7-2.8-4.6-5.2-6.6
		c4-5.4,10-2,14.7-4c0.9,5.2,6.5,9.8,9.9,7.8c3.1-1.8,5.7-4.7,7.7-7.6c1.5-2.2,2.4-5.5-3.3-6.1c1.8-0.9,2.5-1.2,3.3-1.6
		c-1.4-2.6-2.2-5.9-4.3-7.4c-2.1-1.5-5.5-1.8-8.2-1.5c-3.1,0.3-5.7,5.8-5.4,10.2c-4.4-0.6-9.1,4.8-13.1-1.4
		c-0.2-0.3-1.4-0.5-1.8-0.2c-1.3,0.7-3.3,1.5-3.6,2.6c-0.3,1.4,0.7,3.1,1.3,5c-3.3,2.5-5.3,6.1-5.3,10.8c0,1.3-0.6,2.6-1.1,3.8
		c-0.7,1.8-1.6,2.8-3.9,1.6c-2.7-1.5-4.1,1-3.4,2.6c1.6,4-2.2,4.9-3.5,7.1c-0.3,0.5-2.4,0.3-2.4,0.7c-1.1,5.4-4.9,2.7-7.9,2.8
		c-1.7,0.1-3.5,0.5-5,1.2c-1.3,0.6-2.3,1.8-4.1,3.3v-10.9c0.7-0.1,1.7,0.1,2.1-0.3c2.1-2.3,4.2-2.3,6.9-0.7c0.7,0.4,2.2-0.5,3.7-0.9
		c-1.5-1.9-2.5-3.1-3.9-4.9c4.4-1.2,8.2-2.2,11.5-3.1c-0.3-4.3-0.6-8-0.9-10.5c2.8-0.6,5.6-0.4,7-1.7c1.2-1.1,1-3.9,1.3-6
		c-1.8-0.1-3.6-0.3-6.1-0.5c-0.4-0.8-1.9-2.5-1.6-3.8c0.8-3.9,6.7-7.8,11.1-7.9c2.6-0.1,4.3-0.9,4.7-4c0.3-2.5,1.9-4.1,4.2-1.6
		c3.1,3.3,7.1,3.6,11.2,3.5c2.5,0,3.7-1.3,4.4-3.6c0.9-3-1.7-5.8-1.5-7.6c0.7-5.7-2.4-7.1-6.4-8.6c-4.4-1.6-8.8-1.7-12.7,1.2
		c-3.4,2.5-4.1,7.2-2.9,10.5c-0.7,9.3-9,8.9-12.6,12.6c-2.9-1.1-5.4-2.5-8-2.8c-0.6-0.1-1.9,3.7-2.1,5.8c0,0.5,3,1.3,5.1,2.2v12.3
		c-1.3-0.7-2.2-1.3-3.8-2.2c-0.5,2.1-1.6,4-1.1,5.4c0.3,0.9,2.8,1.1,4.8,1.8c-2.4,2.1-4.5,4.1-5.9,5.4c-3.1-0.6-5.2-1-8-1.5
		c-3-9-0.5-18.9-0.9-28.4c1.8-1.6,2.7-4.5,4.4-5.1c2.8-0.9,4.8-1.9,6.1-5.1c-1.4,0.2-2.4,0.7-3,0.3c-1.3-0.7-3-1.6-3.3-2.7
		c-0.7-3.2,4.1-6.3,7.2-5.2c1.5,0.5,3.5,0.6,5,0.1c3.5-1.2,4.3-4.5,5.6-7.6c1-2.5,0.9-4.2-0.8-6.3c-1.9-2.4-4.4-2.7-6.6-1.8
		c-2.7,1-3.9-0.1-5.3-1.8c-2.3-2.7-5.4-2.6-7.5,0.2c-0.7,0.9-1.2,2-1.9,3c-0.3-0.1-0.5-0.2-0.8-0.3v-3.3c-0.6,0.4-3.3,0.6-4.1,0.6
		c0,199.3,0,407.6,0,423.2c249.6,0,504.1,0,753.7,0l0.6-397C751.3,405,746.9,411.6,746.2,411z M675.5,409.4c1.5-0.4,2.8-0.7,4.1-1.1
		c3.1,4,2.9,5.6-1.1,10.1C673.9,416.4,675.9,412.7,675.5,409.4z M253.4,470.4c-0.8-1.3-7.4-3.7-8.9-3.2c-3.9,1.4-7.5,1.3-11.4-0.3
		c-1.3-0.5-3.5,0.8-5.1,1.6c-1.4,0.7-2.5,2-3.8,3c-1.5-4.4-5.3-6.6-9.9-5.6c-2.9,0.6-6.6,0.8-8.2,2.6c-2.8,3.3-5.6,2.9-9,2.4
		c-1.2-0.1-2.6,0.5-3.3,0.7c-0.5-2.7-0.8-4.8-1.3-7.4c4.5,0,9,0.1,13.4-0.1c1.1,0,2.5-0.5,3.1-1.2c4.9-6.3,4.9-6.3,10.8-8.1
		c2.2,2.9,4.5,5.8,7,9.1c0.4-0.6,0.7-1.6,1.3-1.8c3.3-1.3,7.3,1.4,10.4-2c3.1-3.5,6.6-0.4,9.9-0.1l-1.7,0.5c5.2-0.9,4.9,2.4,4.5,5.8
		c4.2-0.6,5.8,0.6,6.4,4.3c0.1,0.8,1.1,1.8,1.9,2.1c1.1,0.4,2.4,0.3,4.4,0.5C257.9,475.6,256.2,475,253.4,470.4z M278.1,449
		c-0.1-0.7-0.1-2.1,0.2-2.2c2.9-0.9,2.6-2.5,0.3-4.6c0.6-0.1,1.2-0.2,1.8-0.2c1.5,3.5,3.1,7.1,4.6,10.6
		C281.5,452.4,278.6,452.5,278.1,449z M289,467.7c-0.5,0.3-1.4,0.1-2.1,0.2c0.1,0.5,0.5,1.1,0.3,1.6c-0.1,0.3-1.3,0.5-1.3,0.5
		c-0.5-0.9-1.2-1.9-1.1-2.8c0.1-0.9,1.2-1.6,2-2.8c-0.9-0.8-1.6-1.4-2.3-2c4.2-1.8,6.2-0.7,6.2,3.3
		C290.8,466.3,289.7,467.2,289,467.7z M307.3,459.4c-2.2-0.4-4.3-0.8-6-1.1c0.6-3.2,1.1-5.9,1.5-7.8c2.6-0.2,4.6-0.4,6.7-0.6
		c0.8-1.8,1.7-3.5,2.5-5.3c0.4-0.9,0.3-2.3,1-2.8c3.2-2.8,1.6-5.2-0.8-8c4.3-0.2,7-2,8.8-5.5c0.9-1.7,4.7-0.4,5.2,2.3
		c0.7,3.6,0.8,7.3,1,10.9c0.1,2,0,3.9,0,6.2c-2.6,0-5-0.2-7.3,0.1c-1.1,0.1-2.1,1.2-3.1,1.7c-0.8,0.4-1.6,0.7-2.5,0.9
		c-1.2,0.2-2.5,0.2-3.8,0.3C309.4,453.5,308.4,456.3,307.3,459.4z M328.7,469.5c0.3,0.8,1.2,1.4,1.9,2c0.8,0.6,1.8,1,2.7,1.6
		c-0.2,0.4-0.3,0.9-0.5,1.3c-2.8-0.4-5.6-0.8-8.4-1.4c-2.7-0.6-5.2-1.5-7.7-2.2c0.4-0.5,1.1-1.4,2-2.6c-1.9-0.7-3.2-1.2-4.9-1.8
		c3.9-2.9,7.9-5.2,10.4-9.3c0.2-0.3,1.1-0.1,1.7,0c2,0.1,4.1,0.2,6.5,0.4c0.1,0.3,0.2,1.2,0.5,2.1c1.4,3.7,1.6,6.8-3.3,8
		C329.2,467.6,328.5,469,328.7,469.5z M379.2,467.3c-4.7-1.1-9.4-2.3-14.2-3.1c-1-0.2-2.8,1.1-3.5,2.1c-2.5,3.8-5.4,6.5-10.1,7.1
		c-2.8,0.4-5.5,1.3-8.6,1.1c1.1-0.7,2.3-1.4,3.5-2.1c0.2-4.4-0.5-5.2-4.2-4.4c-3.2-14.7-6.4-29.4-9.5-44.1c-0.8-3.9-1.5-7.7-2-11.6
		c-0.2-1.4,0.3-2.9,0.5-4.9c-3-2.1-6.6-4.6-10.3-7.1c-0.3-0.7-0.5-1.3-0.8-2c0.2-0.3,0.4-0.5,0.6-0.8c3,1.8,6.1,3.6,10,5.9
		c0.5-1.4,0.9-3,1.5-4.6c0.6-1.6,0.9-3.4,2-4.6c6.3-7.2,12.7-14.3,19.2-21.4c0.7-0.8,2-1,2.9-1.7c1.7-1.2,3.3-2.5,4.9-3.8
		c0.8-0.6,1.5-1.7,2.5-1.9c5.1-1.2,9.8-4.4,15.4-2.9c0.6,0.1,1.4-1.4,2.1-1.4c1.9-0.1,4.3-0.4,5.8,0.5c1.2,0.8,2.2,3.1,2,4.7
		c-0.1,1.4-0.1,3.9-3.3,3.7c-2.2-0.1-2.9,4.7,0,6.5c3.6,2.3,1.7,4.3,0.8,6.3c-3.2,6.3-0.8,10.7,6.5,10.7c-0.8,0.7-1.3,1.4-1.8,1.5
		c-4.6,0.3-9.2,0.3-13.8,0.7c-0.8,0.1-1.8,1.2-2.1,2c-0.7,2.1-0.5,4.7-1.7,6.4c-4.7,6.8-9.7,13.4-14.7,20c-1.1,1.5-2.9,2.5-4.2,3.9
		c-0.8,0.9-1.7,2.2-1.6,3.3c0.1,0.9,1.4,1.9,2.4,2.4c1.3,0.6,2.8,0.8,2,2.8c-0.1,0.3,0.5,0.9,0.8,1.3c5.1,6.1,10.3,12.2,15.4,18.4
		c2.1,2.6,4.2,5.2,6.1,8C380.1,464.7,379.5,465.8,379.2,467.3z M411.8,437.7c-0.7-4.2,0.9-6.4,4.2-6.5c5.5-0.2,4.5,4.9,6,8.1
		c-1.2,0.7-2.3,1.3-3.6,2.1C417.6,437.6,416.3,434.7,411.8,437.7z M424,452.6c-0.2,1.3-1.6,2.3-2.5,3.5c-0.2-0.2-0.4-0.4-0.6-0.6
		c0.8-0.7,1.5-1.4,1.8-1.6c-0.4-2.2-0.8-4.1-1-6c0-0.1,1.1-0.3,1.7-0.4C423.6,449.1,424.3,450.9,424,452.6z M423.8,428
		c-1-0.5-1.9-1.2-2.9-1.6c-2.6-1-5.1-2.5-7.7-2.5c-1.4,0-3.1,2.3-4.3,3.9c-2,2.6-3.7,5.3-5.9,8.7c3.1,3.3,6.6,6.9,10.4,10.9
		c0.3,1.5,1.3,3.9,0.9,6.1c-0.4,2.3-2,4.4-3.3,6.8c-1.9-0.5-4-0.4-5.4-1.4c-2.5-2-4.1-5.5-0.6-8.4c2.3-1.9,1.9-4,0.3-6.2
		c-3.7-4.9-10.3-4.8-16,0.5c-0.9,0.8-2,1.7-2.2,2.7c-0.4,2.3-0.7,4.9-0.1,7.1c0.2,0.8,3.4,0.7,5.3,1c1,0.1,2.1,0,3.2,0
		c0.5-3.6,0.5-3.4-3-3.6c-1.3-0.1-2.9-1.3-3.5-2.4c-0.4-0.6,0.7-2.6,1.6-3.3c5-3.6,8.1-2.8,10.5,2.5c0.4,0.9,0.5,2.6-0.1,3.2
		c-3.3,3.3-1.2,5.6,1.3,7.9c1,0.9,2,1.8,3.1,2.7c-0.1,0.3-0.3,0.6-0.4,0.9c-0.9,0-1.8,0.1-2.7,0c-4.2-0.5-8-3.6-12.8-0.3
		c-2.7,1.8-5.1-1.8-6.7-4.1c-4.4-6.1-8.6-12.4-13-18.6c-0.2-0.3-0.7-0.6-0.7-1c-0.1-2.3,0.9-5.7-0.2-6.6c-3.1-2.5-1.6-4.3-0.2-6.5
		c3.2-4.8,6.2-9.7,9.7-14.4c1.4-1.9,3.7-3,5.4-4.7c1.1-1.2,1.9-2.7,3.1-4.6c4.1-1.1,9.3-2.7,14.6-3.7c6.9-1.3,9.2-0.3,12.4,5.4
		c3,5.3,6.9,10.1,10,14.6c0.3,2.2,0.8,4,0.8,5.9C424.7,425.9,424.1,426.9,423.8,428z M472.9,455.7c-0.3,1.3-2,2.2-3.1,3.3
		c-1,1-2,1.9-3.8,3.5c-0.2,0-1.6-0.3-3.3-0.7v-8.2c-0.4,0-0.9,0-1.3,0c-0.2,2.4-0.4,4.8-0.6,7.9c-1.8-0.2-4.3-0.5-7.3-0.9
		c-0.7-1.7-1.5-3.9-2.3-6c-0.5,0.2-1.1,0.3-1.6,0.5c0.4,3.7,0.7,7.3,1.1,11.4c-2.6-0.5-4.9,4.3-7.5,0.8c-1.2-1.6-0.4-4.7-0.5-6.8
		c-0.1,0.1-1.2,0.8-3,2.1c0.6-1.8,0.6-3.2,1.2-3.6c2.9-2.1,2.6-5.1,2.8-8.2c0.2-2.3,0.8-4.6,1.3-6.9c0-0.1,0.2-0.3,0.1-0.4
		c-3.2-5.5,1.2-10,2.1-14.9c0.4-2.2-0.5-4.9-1.7-6.9c-2.4-3.9-3.9-7.6-3.3-12.3c0.4-3.1,0.1-6.3,0.1-8.6c3.2-0.8,5.6-1.7,8-1.8
		c2.4-0.1,4.9,0.6,7.3,0.9c1.1,3.7,2.6,7.4,3.3,11.1c0.6,3.4-0.1,7,0.8,10.3c1.2,4,3.5,7.7,5.4,11.5c1,2,2,4,3.1,6
		c1.2,2.2,3.5,4.1,1.1,7c-0.4,0.4,0.3,1.7,0.6,3.1c0.7-1.4,1.3-2.4,1.8-3.4c0.2,0.1,0.4,0.1,0.7,0.2
		C473.8,449,473.7,452.4,472.9,455.7z M482.7,414.5l-1.8,0.1c-1.4-6.5-2.8-13-4.3-20.4v4.3c-0.4,0-0.8,0-1.2,0
		c0-1.9-0.3-3.8,0.1-5.6c0.7-3.5-0.2-6-3.1-8.2c-4.6-3.5-9.5-6-15.5-5.5c-0.6,0.1-1.3-0.1-2-0.2c-4.1-0.7-8.1-1.3-11.9-2
		c6-1,3.1-7,5.2-11c-1.5-0.5-2.8-0.9-4.2-1.5c3.8-6.9,7.5-13.6,11.2-20.3c0.2-0.3,0.3-1,0.6-1c4.5-0.6,8.7-3.6,13.5-2.2
		c1,0.3,2.1,1.4,2.4,2.4c1.1,4.1,3.8,8.3-0.6,12.4c-1.1,1-0.9,3.4-1.3,5.2c0.3,0.2,0.6,0.4,0.9,0.6c1.4-0.8,2.7-1.6,4.4-2.5
		c0.5,1.9,1.1,3.7,1.6,5.7c0.5-0.9,0.9-1.6,1.3-2.4c0.2,0.1,0.4,0.1,0.6,0.2c-0.3,4-1.5,8.2-0.6,12c0.9,3.9,3.9,7.4,6,11.2
		c0.3-0.4,0.7-0.8,1.3-1.5c1.2,2.3,2.3,4.4,3.1,5.9C486.2,398.7,484.5,406.6,482.7,414.5z M489.7,257.7c-1.4,2.8-3,5.5-5,9.3
		c2.3-0.4,3.1-0.5,4.7-0.8c-0.6,3.3-1.1,6.2-1.9,9c-0.2,0.6-1.6,0.9-2.5,1.4c-2.7,1.5-2.6,3.4-0.4,5.7c1.3,1.4,2.4,3.7,2.3,5.5
		c-0.1,1-2.8,1.8-4.4,2.7c-0.8,0.5-1.9,1-2.2,1.8c-1,2.4-1.6,4.9-2.5,7.6c0.6-0.1,1,0,1.5-0.2c1.3-0.4,2.6-0.9,3.9-1.4
		c0.4,2.2,4.6,2.9,2.4,6.2c-2,3-3.8,6.1-5.6,9.2c-0.4,0.7-0.7,1.6-1,2.3c-3-1.3-6.5,2.3-7.5,7.6c2-0.3,3.8-0.6,5.8-0.9
		c4.8,6.2-2.7,9-3.5,13.2c-1.9-0.5-3.3-1.1-4.9-1.4c-7-1.2-14.1-2.4-21.2-3.4c-0.8-0.1-2.3,0.4-2.6,1.1c-0.6,1.4-0.9,3.1-0.9,4.7
		c0.1,2.8,0.6,5.6,0.9,8.4c-0.4,0.3-0.9,0.5-1.3,0.8c-3.7-1.6-7.3-3.1-11.6-4.9c0,0-0.1-1.2-0.7-1.6c-5.6-4.3-4.9-9.8-3.5-15.7
		c1.8-7.5,3.3-15.1,5-22.6c0.2-1.1,1-2,1.6-3c0.3,0.4,0.6,0.8,0.9,1.1c1.3-1,2.7-2,4-3.1c0.8-0.7,2.1-2,1.9-2.7
		c-1.7-5.7,3-8.7,5.3-12.5c2.7-4.5,6.1-8.6,9.7-12.4c3.3-3.4,7.6-6,11.1-9.2c1.6-1.4,2.5-3.6,4-6c2.1-1.4,5.2-3.2,7.9-5.4
		c1.8-1.4,6.8-1.3,7.6,0.7c0.5,1.3,1.2,2.7,1.2,4c0,1.5-1.3,3.5,1.9,2.7C490.1,256.2,490,257,489.7,257.7z M657.7,433.5
		c0.9-1,2.1-2.3,3.4-3.7c-2.3-3.9-1.6-7,2.6-11.3c1.1-1.1,2-2.5,3-3.7c1-1.2,2.1-2.2,2.8-3c1.3,3.8,2.7,7.9,4.1,12
		c-9.9,2.2-11.8,5.1-11.3,17.1C660.8,438.5,659.3,436.1,657.7,433.5z M641.2,461.5c-0.2-2.5-0.5-5.2-0.3-7.8c0-0.5,2.3-1.2,3.6-1.1
		c0.8,0,2.2,1.5,2.1,1.9C645.7,457.3,646.5,461.4,641.2,461.5z M659.3,462.5c2.6-0.9,5-1.8,8.1-2.9
		C665.4,464,661.8,465.2,659.3,462.5z M694.4,460.4c-1.5-0.7-2.9-1.6-4.4-2.1c-0.8-0.3-1.8-0.1-2.6,0c-3.2,0.5-6.4,1.1-9.6,1.7
		c-0.1-0.4-0.1-0.8-0.2-1.2c1.7-0.4,3.4-0.7,5.1-1.1c0.7-3.6,0.7-3.6-4.4-3.1c3.4-1.5,6.9-3,11-4.7c1.7,2.6,3.9,5.8,6.1,9.1
		C695.1,459.5,694.8,459.9,694.4,460.4z"/>
	<path d="M625.2,396.2c0.6,2.3,1.2,4.3,1.7,6.1c2,1,4,2,6.6,3.4c0-3.1,0-6.2,0-8.8c-2.3-1-4.4-2-6.5-2.9
		C626.3,394.8,625.6,395.7,625.2,396.2z"/>
	<path d="M449,447.1c-1.3,0.4-3.2,3.5-2.8,4.2c1.7,3.2,4.4,1.6,7,0.4C452.2,449.7,452.9,445.9,449,447.1z"/>
	<path d="M458.8,449.3c2.6,3.1,4.3,3.1,7.6,0.1C463.9,446.3,461.5,449.1,458.8,449.3z"/>
</g>
</svg>
