<?xml version="1.0" encoding="utf-8"?>
<!-- Generator: Adobe Illustrator 19.2.1, SVG Export Plug-In . SVG Version: 6.00 Build 0)  -->
<svg version="1.1" id="Layer_1" xmlns="http://www.w3.org/2000/svg" xmlns:xlink="http://www.w3.org/1999/xlink" x="0px" y="0px"
	 viewBox="0 0 206.1 224.2" style="enable-background:new 0 0 206.1 224.2;" xml:space="preserve">
<style type="text/css">
	.st0{fill:#FFFFFF;}
</style>
<g>
	<path d="M71.1,100.7H54.9L54,12.6h-9.4l0.9,88.1H29.3l-0.9-88.1h-9.5l0.9,88.1H3.6L2.7,9c0-2,0.6-3.7,1.8-5.1
		C5.6,2.4,7,1.7,8.7,1.7L70,1.5L71.1,100.7z"/>
</g>
<g>
	<path d="M101,16.7H84.8L84.7,1.5h16.2L101,16.7z M101.9,100.6H85.7l-0.8-78.3h16.2L101.9,100.6z"/>
</g>
<g>
	<path d="M148.3,100.5l-33.3,0.1l-1-99.1h16.2l0.9,89h17.1L148.3,100.5z"/>
</g>
<g>
	<path d="M158.8,1.6l41.8-0.1l0.9,84.8c0,2.9-1.2,5.9-3.8,9.2c-2.5,3.2-5,4.9-7.3,4.9l-30.6,0.1L158.8,1.6z M185.2,84.8l-0.8-72.3
		H175l0.8,78h4.5L185.2,84.8z"/>
</g>
<g>
	<path d="M31.1,134l-15.3,0.1l0.4,58.5l-13.1,0.1l-0.6-86.3l28.4-0.3l0.1,9.6l-15.3,0.1l0.1,8.8l15.3-0.1V134z"/>
</g>
<g>
	<path d="M69.1,192.3L56,192.4l-0.4-58.3h-7.8l0.4,58.3l-13.1,0.1l-0.6-86.1l33.2-0.2l0.1,17.7c0,1.7-0.9,3.6-2.7,5.6
		c-1.8,2-3.4,3.3-4.8,3.7l8.4-0.1L69.1,192.3z M54.7,120.7v-4.8h-7l0.1,9.4h3.4L54.7,120.7z"/>
</g>
<g>
	<path d="M101.5,192.1l-28.4,0.2L72.5,106l28.4-0.3l0.1,9.6l-15.3,0.1l0.1,8.6l15.3-0.1l0.1,9.6l-15.3,0.1l0.3,49.7l15.3-0.1V192.1z
		"/>
</g>
<g>
	<path d="M138.1,191.9L125,192l-0.5-75.9l-7.6,4.8l0.5,71.2l-13.1,0.1l-0.6-86.5l13.1-0.1v5.4l7.6-5.4l13.1-0.1L138.1,191.9z"/>
</g>
<g>
	<path d="M166.2,191.7l-23.9,0.2l-0.1-8.8l10.4-68.5l-10.8,0.1l-0.1-9.5l23.9-0.2l0.1,9.4l-10.1,68.4l10.5-0.1L166.2,191.7z"/>
</g>
<g>
	<path d="M203.3,191.5l-33.2,0.2l-0.3-53.5l13.1-0.1l0.3,44.7h7l-0.3-49.9l-20.1,0.1l-0.2-27.8l13.1-0.1l0.1,18.9h7l-0.1-18.9
		l13.1-0.1L203.3,191.5z"/>
</g>
<g>
	<path class="st0" d="M56.8,218.6c-2.2,2.2-4.9,3.3-7.9,3.3c-3.1,0-5.7-1.1-7.9-3.3c-2.2-2.2-3.3-4.9-3.3-7.9c0-3.1,1.1-5.7,3.3-7.9
		c2.2-2.2,4.8-3.3,7.9-3.3c3.1,0,5.8,1.2,8.1,3.5l-2.3,2.2c-1.7-1.7-3.6-2.5-5.8-2.5c-2.2,0-4.1,0.8-5.6,2.3
		c-1.6,1.6-2.3,3.5-2.3,5.6s0.8,4.1,2.3,5.6c1.6,1.6,3.5,2.3,5.6,2.3s4.1-0.8,5.8-2.5l2.1,2V218.6z"/>
	<path class="st0" d="M80.9,218.6c-2.2,2.2-4.9,3.3-7.9,3.3c-3.1,0-5.7-1.1-7.9-3.3c-2.2-2.2-3.3-4.8-3.3-7.9c0-3,1.1-5.7,3.3-7.9
		c2.2-2.2,4.8-3.3,7.9-3.3c3,0,5.7,1.1,7.9,3.3c2.2,2.2,3.3,4.9,3.3,7.9C84.2,213.8,83.1,216.4,80.9,218.6z M78.7,205
		c-1.6-1.5-3.5-2.3-5.6-2.3c-2.2,0-4.1,0.8-5.6,2.3c-1.6,1.6-2.3,3.5-2.3,5.6s0.8,4.1,2.3,5.6c1.6,1.6,3.5,2.3,5.6,2.3
		s4.1-0.8,5.6-2.3c1.5-1.6,2.3-3.4,2.3-5.6C81,208.5,80.2,206.6,78.7,205z"/>
	<path class="st0" d="M107.5,221.4v-15.9l-5.8,15.9h-3.2l-5.8-16v16h-3.2V200h4.6l5.9,16.4l6-16.4h4.6v21.3H107.5z"/>
	<path class="st0" d="M116.6,221.4V200h3.2v21.3H116.6z"/>
	<path class="st0" d="M144.1,218.6c-2.2,2.2-4.9,3.3-7.9,3.3c-3.1,0-5.7-1.1-7.9-3.3c-2.2-2.2-3.3-4.9-3.3-7.9
		c0-3.1,1.1-5.7,3.3-7.9c2.2-2.2,4.8-3.3,7.9-3.3c3.1,0,5.8,1.2,8.1,3.5l-2.3,2.2c-1.7-1.7-3.6-2.5-5.8-2.5c-2.2,0-4.1,0.8-5.6,2.3
		c-1.6,1.6-2.3,3.5-2.3,5.6s0.8,4.1,2.3,5.6c1.6,1.6,3.5,2.3,5.6,2.3s4.1-0.8,5.8-2.5l2.1,2V218.6z"/>
	<path class="st0" d="M163.8,220.4c-1.7,1-3.5,1.5-5.6,1.5c-2.1,0-4-0.5-5.6-1.5c-2-1.2-3-2.9-3-5.2h3.2c0,1.3,0.6,2.3,1.9,2.8
		c1,0.5,2.2,0.7,3.5,0.7c1.4,0,2.5-0.2,3.5-0.7c1.2-0.6,1.8-1.4,1.8-2.5c0-1.4-1.1-2.4-3.3-2.8h0c-0.6-0.1-1.1-0.2-1.6-0.3
		c-0.5-0.1-1.1-0.2-1.6-0.3h0c-1.1-0.2-2.1-0.4-3.2-0.7c-2.6-0.9-3.8-2.8-3.8-5.4c0-2,0.9-3.6,2.7-4.8c1.6-1,3.4-1.6,5.4-1.6
		c2,0,3.8,0.5,5.4,1.6c1.8,1.2,2.7,2.9,2.7,5.1h-3.2c0-1.3-0.6-2.2-1.7-2.7c-0.9-0.5-2-0.7-3.2-0.7c-1.2,0-2.3,0.2-3.2,0.7h0
		c-1.1,0.6-1.7,1.4-1.7,2.4c0,1.5,1.1,2.5,3.3,2.9c0.5,0.1,1.1,0.2,1.6,0.3s1.1,0.2,1.6,0.3c0.5,0.1,1.1,0.2,1.6,0.4
		c0.5,0.1,1,0.2,1.6,0.3c2.5,0.9,3.8,2.7,3.8,5.3C166.8,217.5,165.8,219.2,163.8,220.4z"/>
</g>
<rect x="3.2" y="209.5" class="st0" width="26.3" height="3.1"/>
<rect x="176.2" y="209.5" class="st0" width="26.3" height="3.1"/>
</svg>
