<?xml version="1.0" encoding="utf-8"?>
<!-- Generator: Adobe Illustrator 19.2.1, SVG Export Plug-In . SVG Version: 6.00 Build 0)  -->
<svg version="1.1" id="Layer_1" xmlns="http://www.w3.org/2000/svg" xmlns:xlink="http://www.w3.org/1999/xlink" x="0px" y="0px"
	 viewBox="0 0 206.1 224.2" style="enable-background:new 0 0 206.1 224.2;" xml:space="preserve">
<style type="text/css">
	.st0{fill:#FFFFFF;}
</style>
<g>
	<path class="st0" d="M18.6,221.7l-1.7-4.7l-8.5,0l-1.7,4.7l-3.4,0l7.7-21.3l3.2,0l7.8,21.3L18.6,221.7z M9.6,213.9l6.2,0l-3.1-8.5
		L9.6,213.9z"/>
	<path class="st0" d="M40,221.7l-10.9-15.4l0,15.4l-3.2,0l0-21.3l3,0l10.9,15.3l0-15.3l3.2,0l0,21.3L40,221.7z"/>
	<path class="st0" d="M57.3,203.6l0,18.1l-3.2,0l0-18.1l-6.7,0l0-3.2l16.6,0l0,3.2L57.3,203.6z"/>
	<path class="st0" d="M82.2,221.7l0-9.1l-10.8,0l0,9.1l-3.2,0l0-21.3l3.2,0l0,9l10.8,0l0-9l3.2,0l0,21.3L82.2,221.7z"/>
	<path class="st0" d="M109.2,218.9c-2.2,2.2-4.9,3.3-7.9,3.3c-3.1,0-5.7-1.1-7.9-3.3c-2.2-2.2-3.3-4.8-3.3-7.9c0-3,1.1-5.7,3.3-7.9
		c2.2-2.2,4.8-3.3,7.9-3.3c3,0,5.7,1.1,7.9,3.3c2.2,2.2,3.3,4.9,3.3,7.9C112.5,214.1,111.4,216.7,109.2,218.9z M106.9,205.3
		c-1.6-1.5-3.5-2.3-5.6-2.3c-2.2,0-4.1,0.8-5.6,2.3c-1.6,1.6-2.3,3.5-2.3,5.6c0,2.2,0.8,4.1,2.3,5.6c1.6,1.6,3.5,2.3,5.6,2.3
		c2.2,0,4.1-0.8,5.6-2.3c1.5-1.6,2.3-3.4,2.3-5.6C109.2,208.8,108.5,206.9,106.9,205.3z"/>
	<path class="st0" d="M117.1,221.7l0-21.3l3.2,0l0,18.1l9.3,0l0,3.2L117.1,221.7z"/>
	<path class="st0" d="M152.5,218.9c-2.2,2.2-4.9,3.3-7.9,3.3c-3.1,0-5.7-1.1-7.9-3.3c-2.2-2.2-3.3-4.8-3.3-7.9c0-3,1.1-5.7,3.3-7.9
		c2.2-2.2,4.8-3.3,7.9-3.3c3,0,5.7,1.1,7.9,3.3c2.2,2.2,3.3,4.9,3.3,7.9C155.8,214,154.7,216.7,152.5,218.9z M150.2,205.3
		c-1.6-1.5-3.5-2.3-5.6-2.3c-2.2,0-4.1,0.8-5.6,2.3c-1.6,1.6-2.3,3.5-2.3,5.6c0,2.2,0.8,4.1,2.3,5.6c1.6,1.6,3.5,2.3,5.6,2.3
		c2.2,0,4.1-0.8,5.6-2.3c1.5-1.6,2.3-3.4,2.3-5.6C152.5,208.8,151.8,206.9,150.2,205.3z"/>
	<path class="st0" d="M180.3,217.1c-0.5,0.8-1.1,1.5-1.8,2.1c-0.7,0.6-1.4,1.1-2.2,1.6c-0.8,0.4-1.7,0.8-2.6,1
		c-0.9,0.2-1.8,0.4-2.8,0.4c-3.1,0-5.7-1.1-7.9-3.2c-2.2-2.2-3.3-4.9-3.3-7.9c0-3.1,1.1-5.7,3.3-7.9c2.2-2.2,4.8-3.3,7.9-3.3
		c1.8,0,3.5,0.4,5.1,1.3c1.6,0.8,3,2,4.1,3.6l-2.6,1.8c-0.8-1.1-1.8-1.9-3-2.5c-1.1-0.6-2.3-0.9-3.6-0.9c-2.2,0-4.1,0.8-5.6,2.3
		c-1.6,1.6-2.3,3.5-2.3,5.7c0,2.2,0.8,4.1,2.3,5.6c1.6,1.6,3.5,2.3,5.6,2.3c2.6,0,4.6-1,6.2-2.9l0-3.5l-6.5,0l0-3.2l9.7,0l0,7.6
		L180.3,217.1z"/>
	<path class="st0" d="M194.9,211.5l0,10.1l-3.2,0l0-10.1l-7.9-11.2l4,0l5.5,7.8l5.6-7.8l4,0L194.9,211.5z"/>
</g>
<g>
	<path d="M71.1,100.7l-16.2,0L54,12.6l-9.4,0l0.9,88.1l-16.2,0l-0.9-88.1l-9.5,0l0.9,88.1l-16.2,0L2.7,9c0-2,0.6-3.7,1.8-5.1
		C5.6,2.4,7,1.7,8.7,1.7l61.3-0.2L71.1,100.7z"/>
</g>
<g>
	<path d="M101,16.7l-16.2,0L84.7,1.5l16.2,0L101,16.7z M101.9,100.6l-16.2,0l-0.8-78.3l16.2,0L101.9,100.6z"/>
</g>
<g>
	<path d="M148.3,100.5l-33.3,0.1l-1-99.1l16.2,0l0.9,89l17.1,0L148.3,100.5z"/>
</g>
<g>
	<path d="M158.8,1.6l41.8-0.1l0.9,84.8c0,2.9-1.2,5.9-3.8,9.2c-2.5,3.2-5,4.9-7.3,4.9l-30.6,0.1L158.8,1.6z M185.2,84.8l-0.8-72.3
		l-9.4,0l0.8,78l4.5,0L185.2,84.8z"/>
</g>
<g>
	<path d="M31.1,134l-15.3,0.1l0.4,58.5l-13.1,0.1l-0.6-86.3l28.4-0.3l0.1,9.6l-15.3,0.1l0.1,8.8l15.3-0.1L31.1,134z"/>
</g>
<g>
	<path d="M69.1,192.3L56,192.4l-0.4-58.3l-7.8,0l0.4,58.3l-13.1,0.1l-0.6-86.1l33.2-0.2l0.1,17.7c0,1.7-0.9,3.6-2.7,5.6
		c-1.8,2-3.4,3.3-4.8,3.7l8.4-0.1L69.1,192.3z M54.7,120.7l0-4.8l-7,0l0.1,9.4l3.4,0L54.7,120.7z"/>
</g>
<g>
	<path d="M101.5,192.1l-28.4,0.2l-0.6-86.3l28.4-0.3l0.1,9.6l-15.3,0.1l0.1,8.6l15.3-0.1l0.1,9.6l-15.3,0.1l0.3,49.7l15.3-0.1
		L101.5,192.1z"/>
</g>
<g>
	<path d="M138.1,191.9L125,192l-0.5-75.9l-7.6,4.8l0.5,71.2l-13.1,0.1l-0.6-86.5l13.1-0.1l0,5.4l7.6-5.4l13.1-0.1L138.1,191.9z"/>
</g>
<g>
	<path d="M166.2,191.7l-23.9,0.2l-0.1-8.8l10.4-68.5l-10.8,0.1l-0.1-9.5l23.9-0.2l0.1,9.4l-10.1,68.4l10.5-0.1L166.2,191.7z"/>
</g>
<g>
	<path d="M203.3,191.5l-33.2,0.2l-0.3-53.5l13.1-0.1l0.3,44.7l7,0l-0.3-49.9l-20.1,0.1l-0.2-27.8l13.1-0.1l0.1,18.9l7,0l-0.1-18.9
		l13.1-0.1L203.3,191.5z"/>
</g>
</svg>
