<?xml version="1.0" encoding="utf-8"?>
<!-- Generator: Adobe Illustrator 19.2.1, SVG Export Plug-In . SVG Version: 6.00 Build 0)  -->
<svg version="1.1" xmlns="http://www.w3.org/2000/svg" xmlns:xlink="http://www.w3.org/1999/xlink" x="0px" y="0px"
	 viewBox="0 0 409.5 189.5" style="enable-background:new 0 0 409.5 189.5;" xml:space="preserve">
<style type="text/css">
	.st0{fill:#FFFFFF;}
	.st1{clip-path:url(#SVGID_2_);fill:#333333;}
	.st2{fill:#333232;}
</style>
<g id="Layer_2">
</g>
<g id="Layer_1">
	<g>
		<g>
			<path class="st0" d="M311.6,41.9c0,0.9-0.5,1.7-1.4,2.4s-2,1-3.2,1s-2.3-0.3-3.2-1c-0.9-0.7-1.4-1.5-1.4-2.4v-1.8
				c0-0.9,0.5-1.7,1.4-2.4s2-1,3.2-1s2.3,0.3,3.2,1c0.9,0.7,1.4,1.5,1.4,2.4V41.9z"/>
			<rect x="302.4" y="48.8" class="st0" width="9.3" height="34.6"/>
			<path class="st0" d="M326.9,23.3v60h-9.3v-60C317.6,23.3,326.9,23.3,326.9,23.3z"/>
			<path class="st0" d="M273.2,51.1c1.2-0.8,2.6-1.4,4.2-1.9s3.3-0.7,5.1-0.7c1.9,0,3.7,0.3,5.4,0.8c1.7,0.6,3.2,1.3,4.4,2.2
				c1.2,0.9,2.2,2,3,3.3c0.7,1.3,1.1,2.6,1.1,4v24.5h-9.3V58.8c0-1-0.4-1.8-1.3-2.5s-2-1-3.3-1c-0.5,0-0.9,0-1.3,0.1l0,0
				c-0.8,0.2-1.4,0.4-2,0.9l0,0l0,0c-0.9,0.7-1.3,1.5-1.3,2.4l0,0v24.5h-9.3V58.8c0-1-0.5-1.8-1.3-2.5c-0.6-0.4-1.3-0.7-2-0.9l0,0
				c-0.4-0.1-0.8-0.1-1.3-0.1c-1.3,0-2.4,0.3-3.3,1s-1.3,1.5-1.3,2.5v24.5h-9.3V58.8c0-1.4,0.4-2.8,1.1-4c0.7-1.3,1.7-2.4,3-3.3
				c1.2-0.9,2.7-1.7,4.4-2.2c1.7-0.6,3.5-0.8,5.4-0.8c1.8,0,3.5,0.2,5,0.7C270.5,49.6,271.9,50.3,273.2,51.1L273.2,51.1"/>
			<path class="st0" d="M351.5,49V36.7h9.3v22.1l0,0v14.5c0,1.4-0.4,2.8-1.1,4c-0.7,1.3-1.7,2.4-3,3.3c-1.2,0.9-2.7,1.7-4.4,2.2
				c-1.7,0.6-3.5,0.8-5.4,0.8s-3.7-0.3-5.4-0.8c-1.7-0.6-3.2-1.3-4.4-2.2c-1.2-0.9-2.2-2-3-3.3c-0.7-1.3-1.1-2.6-1.1-4v-2.6l0,0
				V58.8l0,0c0-1.2,0.2-2.3,0.7-3.3c0.1-0.2,0.2-0.5,0.4-0.7c0.7-1.3,1.7-2.4,3-3.3l0,0c1.2-0.9,2.7-1.7,4.4-2.2
				c0.1,0,0.3-0.1,0.4-0.1c1.6-0.5,3.3-0.7,5-0.7l0,0l0,0l0,0l0,0l0,0C348.5,48.4,350,48.6,351.5,49 M346.9,55.3
				c-1.3,0-2.4,0.3-3.3,1c-0.2,0.1-0.3,0.2-0.4,0.4c-0.6,0.6-0.9,1.3-0.9,2.1l0,0v14.5c0,1,0.4,1.8,1.3,2.5c0.9,0.7,2,1,3.3,1
				s2.4-0.3,3.3-1s1.3-1.5,1.3-2.5v-3l0,0V58.8c0-1-0.5-1.8-1.4-2.5C349.2,55.7,348.1,55.3,346.9,55.3"/>
		</g>
		<g>
			<path class="st0" d="M230.4,75.2c-1.3,0-2.4,0.4-3.3,1.1c-0.9,0.7-1.3,1.6-1.3,2.7v15.3h6.8v7.7h-6.8v22.9h-9.2V79
				c0-1.6,0.4-3.1,1.1-4.5c0.7-1.4,1.7-2.6,2.9-3.6s2.7-1.8,4.4-2.4c1.7-0.6,3.5-0.9,5.4-0.9s3.7,0.3,5.4,0.9
				c1.7,0.6,3.1,1.4,4.4,2.4c1.2,1,2.2,2.2,2.9,3.6c0.7,1.4,1.1,2.9,1.1,4.5H235c0-1.1-0.4-2-1.3-2.7
				C232.8,75.6,231.7,75.2,230.4,75.2z"/>
			<path class="st0" d="M270.5,117.7c1.3,0,2.4-0.4,3.3-1.1c0.9-0.7,1.3-1.6,1.3-2.7h9.2c0,1.6-0.4,3.1-1.1,4.5s-1.7,2.6-2.9,3.6
				c-1.2,1-2.7,1.8-4.4,2.4c-1.7,0.6-3.5,0.9-5.4,0.9s-3.7-0.3-5.4-0.9c-1.7-0.6-3.1-1.4-4.4-2.4c-1.2-1-2.2-2.2-2.9-3.6
				c-0.7-1.4-1.1-2.9-1.1-4.5V97.8c0-1.6,0.4-3.1,1.1-4.5s1.7-2.6,2.9-3.6c1.2-1,2.7-1.8,4.4-2.5c1.7-0.6,3.5-0.9,5.4-0.9
				s3.7,0.3,5.4,0.9c1.7,0.6,3.1,1.4,4.4,2.5c1.2,1,2.2,2.2,2.9,3.6c0.7,1.4,1.1,2.9,1.1,4.5v9.6h-18.4v6.5c0,1.1,0.4,2,1.3,2.7
				C268.2,117.3,269.3,117.7,270.5,117.7z M265.9,101.6h9.2v-3.8c0-1.1-0.4-2-1.3-2.7s-2-1.1-3.3-1.1c-1.3,0-2.4,0.4-3.3,1.1
				s-1.3,1.6-1.3,2.7L265.9,101.6L265.9,101.6z"/>
			<path class="st0" d="M319.9,86.7h27.6v7.6l-16.1,22.9h16.1v7.7h-27.6v-7.7L336,94.3h-16.1V86.7z"/>
			<path class="st0" d="M379.1,94.8v34.3c0,1.6-0.4,3.1-1.1,4.5s-1.7,2.6-2.9,3.6c-1.2,1-2.7,1.8-4.4,2.4c-1.7,0.6-3.5,0.9-5.4,0.9
				s-3.7-0.3-5.4-0.9c-1.7-0.6-3.1-1.4-4.4-2.4c-1.2-1-2.2-2.2-2.9-3.6c-0.7-1.4-1.1-2.9-1.1-4.5h9.2c0,1.1,0.4,2,1.3,2.7
				s2,1.1,3.3,1.1s2.4-0.4,3.3-1.1s1.3-1.6,1.3-2.7v-4.9c-1.5,0.5-3,0.7-4.6,0.7c-1.9,0-3.7-0.3-5.4-0.9c-1.7-0.6-3.1-1.4-4.4-2.4
				c-1.2-1-2.2-2.2-2.9-3.6c-0.7-1.4-1.1-2.9-1.1-4.5V39.9h9.2v73.5c0,1.1,0.4,2,1.3,2.7s2,1.1,3.3,1.1s2.4-0.4,3.3-1.1
				s1.3-1.6,1.3-2.7V94.9L379.1,94.8z"/>
			<path class="st0" d="M244.5,87.2c0.5-0.2,1-0.3,1.5-0.4c1.2-0.3,2.4-0.4,3.7-0.4c2.8,0,5.3,0.6,7.6,1.9l-4.7,6.6
				c-0.7-0.6-1.7-0.9-2.9-0.9c-1.3,0-2.4,0.4-3.3,1.1c-0.1,0.1-0.3,0.2-0.4,0.4l0,0c-0.2,0.3-0.5,0.6-0.6,0.9
				c-0.1,0.2-0.1,0.3-0.2,0.5l0,0c-0.1,0.3-0.1,0.6-0.1,0.9v7.4l0,0V125h-9.2v-23.8l0,0v-3.4c0-1.6,0.4-3.1,1.1-4.5
				c0.7-1.4,1.7-2.6,2.9-3.6c1-0.8,2.2-1.5,3.5-2.1l0,0c0.2-0.1,0.3-0.1,0.5-0.2c0.1-0.1,0.3-0.1,0.4-0.2
				C244.4,87.2,244.4,87.2,244.5,87.2"/>
			<path class="st0" d="M298.4,86.7L298.4,86.7c1.2-0.3,2.4-0.4,3.7-0.4l0,0l0,0l0,0l0,0c2.7,0,5.2,0.7,7.5,1.9l0,0
				c0.8,0.4,1.5,0.9,2.1,1.4c1.2,1,2.2,2.2,2.9,3.6c0.7,1.4,1.1,2.9,1.1,4.5v27.2h-9.2V97.8c0-1.1-0.5-2-1.3-2.7
				c-0.1-0.1-0.2-0.2-0.3-0.2l0,0c-0.2-0.2-0.5-0.4-0.8-0.5c-0.6-0.3-1.4-0.4-2.2-0.4c-1.3,0-2.4,0.4-3.3,1.1l0,0
				c-0.1,0.1-0.3,0.2-0.4,0.4l0,0c-0.3,0.3-0.5,0.6-0.6,0.9c-0.1,0.2-0.1,0.3-0.2,0.5l0,0c-0.1,0.3-0.1,0.6-0.1,0.9l0,0l0,0l0,0v7.4
				l0,0V125h-5.1l0,0h-4.1v-23.8l0,0v-3.4c0-1.6,0.4-3.1,1.1-4.5s1.7-2.6,2.9-3.6c1-0.8,2.1-1.5,3.3-2l0,0
				C296.5,87.3,297.4,87,298.4,86.7"/>
		</g>
	</g>
	<g>
		<path class="st0" d="M394,127.6h-0.4c-3.3,0-4.9,1.2-4.9,3.6c0,1.4,0.6,2.4,1.9,3s3.1,0.9,5.6,0.9c2.4,0,4.3-0.4,5.5-1.2
			c1.2-0.8,1.8-1.9,1.8-3.4c0-0.8-0.2-1.6-0.5-2.6c-0.4-0.9-0.9-2-1.7-3.1c0.4-0.6,0.9-1.1,1.5-1.5c0.7-0.5,1.3-0.8,1.9-0.9
			c0.5,0.5,0.9,1.1,1.4,1.8c0.4,0.7,0.8,1.4,1.1,2.2c0.3,0.8,0.6,1.6,0.7,2.4c0.2,0.8,0.3,1.7,0.3,2.6c0,1.7-0.3,3.1-1,4.3
			c-0.6,1.2-1.5,2.1-2.6,2.8c-1.1,0.7-2.3,1.2-3.7,1.6c-1.4,0.3-2.9,0.5-4.4,0.5c-2,0-3.7-0.2-5.2-0.7s-2.7-1.2-3.7-2
			s-1.7-1.8-2.2-3s-0.7-2.4-0.7-3.7c0-1.3,0.2-2.5,0.5-3.6c0.4-1.1,0.8-2,1.5-2.8c0.6-0.8,1.3-1.3,2.2-1.8c0.8-0.4,1.7-0.6,2.7-0.6
			c2,0,2.9,1,2.9,3C394.3,126.2,394.2,126.8,394,127.6z"/>
		<path class="st0" d="M406,117.2c-2,2.4-5.2,3.5-9.7,3.5c-1.9,0-3.6-0.2-5.1-0.7s-2.7-1.1-3.7-2c-1-0.8-1.7-1.9-2.2-3.1
			s-0.8-2.6-0.8-4.1s0.3-2.9,0.8-4.1s1.3-2.3,2.3-3.1c1-0.8,2.2-1.5,3.7-2s3.2-0.7,5.1-0.7s3.6,0.2,5.1,0.7s2.7,1.1,3.7,2
			c1,0.8,1.7,1.9,2.2,3.1s0.8,2.6,0.8,4.1C408.1,113.4,407.4,115.5,406,117.2z M401.4,114.5c1.7-0.6,2.6-1.8,2.6-3.6
			c0-0.9-0.2-1.6-0.7-2.2s-1-1-1.7-1.3s-1.5-0.5-2.3-0.6c-0.9-0.1-1.7-0.2-2.5-0.2s-1.6,0-2.6,0.1c-0.9,0.1-1.8,0.2-2.7,0.5
			c-0.8,0.3-1.5,0.7-2.1,1.3c-0.6,0.6-0.8,1.4-0.8,2.5s0.3,1.9,0.8,2.4c0.5,0.6,1.2,1,2,1.3s1.6,0.4,2.5,0.5s1.7,0.1,2.4,0.1
			c1,0,1.9,0,2.7-0.1C399.8,115,400.6,114.8,401.4,114.5z"/>
		<path class="st0" d="M407.5,98L385,96.2c-0.2-1-0.3-2.1-0.3-3.4s0.1-2.5,0.3-3.5l8.1-2c3.7-0.8,5.7-1.2,6-1.2V86
			c-0.6-0.1-2.5-0.5-6-1.2l-8.1-2c-0.2-1-0.3-2.1-0.3-3.4s0.1-2.5,0.3-3.5l22.5-1.8c0.2,0.7,0.3,1.5,0.3,2.5s-0.1,1.8-0.2,2.5
			l-9.2,0.5c-3.7,0.2-6.2,0.2-7.6,0.3v0.2l13.5,3.3c0.1,0.8,0.2,1.7,0.2,2.7s-0.1,1.9-0.2,2.7L390.8,92v0.2c2,0,4.5,0.1,7.6,0.3
			l9.2,0.5c0.1,0.6,0.2,1.5,0.2,2.5C407.8,96.5,407.7,97.4,407.5,98z"/>
		<path class="st0" d="M407.6,69.7H385c-0.1-0.7-0.2-1.6-0.2-2.6c0-1.1,0.1-2,0.2-2.7h22.6c0.1,0.7,0.2,1.6,0.2,2.7
			C407.8,68.2,407.7,69,407.6,69.7z"/>
		<path class="st0" d="M394,47.5h-0.4c-3.3,0-4.9,1.2-4.9,3.6c0,1.4,0.6,2.4,1.9,3s3.1,0.9,5.6,0.9c2.4,0,4.3-0.4,5.5-1.2
			s1.8-1.9,1.8-3.4c0-0.8-0.2-1.6-0.5-2.6c-0.4-0.9-0.9-2-1.7-3.1c0.4-0.6,0.9-1.1,1.5-1.5c0.7-0.5,1.3-0.8,1.9-0.9
			c0.5,0.5,0.9,1.1,1.4,1.8c0.4,0.7,0.8,1.4,1.1,2.2c0.3,0.8,0.6,1.6,0.7,2.4c0.2,0.8,0.3,1.7,0.3,2.6c0,1.7-0.3,3.1-1,4.3
			c-0.6,1.2-1.5,2.1-2.6,2.8s-2.3,1.2-3.7,1.6c-1.4,0.3-2.9,0.5-4.4,0.5c-2,0-3.7-0.2-5.2-0.7s-2.7-1.2-3.7-2s-1.7-1.8-2.2-3
			s-0.7-2.4-0.7-3.7s0.2-2.5,0.5-3.6c0.4-1.1,0.8-2,1.5-2.8c0.6-0.8,1.3-1.3,2.2-1.8c0.8-0.4,1.7-0.6,2.7-0.6c2,0,2.9,1,2.9,3
			C394.3,46.1,394.2,46.8,394,47.5z"/>
		<path class="st0" d="M405.6,41c-0.7-0.1-1.5-0.3-2.2-0.7c-0.7-0.4-1.3-0.8-1.8-1.4c1.4-2.4,2.2-4.6,2.2-6.7c0-0.9-0.2-1.6-0.6-2
			s-0.9-0.6-1.6-0.6c-1,0-1.9,0.7-2.4,2.1l-1.7,3.9c-0.7,1.5-1.5,2.7-2.5,3.5c-1,0.8-2.2,1.2-3.7,1.2c-1,0-1.9-0.2-2.8-0.6
			c-0.8-0.4-1.6-1-2.2-1.7s-1.1-1.6-1.4-2.6s-0.5-2.1-0.5-3.4c0-2.5,0.6-5,1.9-7.5c1.7,0.1,3,0.7,4,1.8c-1.1,2.3-1.6,4.2-1.6,6
			c0,0.9,0.2,1.5,0.6,2c0.4,0.4,0.8,0.7,1.4,0.7c0.9,0,1.6-0.7,2.1-2l1.7-4c0.7-1.7,1.6-2.9,2.7-3.8c1.1-0.8,2.4-1.2,3.8-1.2
			c1,0,2,0.2,2.8,0.6c0.9,0.4,1.6,0.9,2.2,1.7c0.6,0.7,1.1,1.7,1.5,2.8s0.5,2.4,0.5,3.9C408.1,35.7,407.2,38.4,405.6,41z"/>
	</g>
	<g>
		<path class="st0" d="M235.3,31.8c-1,0.9-1.9,1.4-2.5,1.4c-0.4,0.1-1.1-0.1-2.1-0.4c-0.1-0.5-0.2-1.5-0.4-2.8
			c-0.2-1.2-0.3-2.1-0.4-2.8c-1.3-9-2.7-13.4-4.2-13.2c-1.1,0.2-1.8,1.7-2.1,4.5c-0.2,2.1-0.2,4,0,5.6l0.7,4.7c0,0.2,0.2,0.6,0.4,1
			c0.2,0.4,0.4,0.8,0.4,1c0.1,0.5-0.1,1.1-0.7,1.6c-0.5,0.5-1,0.8-1.6,0.9c-0.6,0.1-1.2-0.1-1.9-0.6c-0.7-0.5-1-1-1.1-1.5l-1.4-9.4
			c-0.6-3.8-1.3-5.7-2.1-5.5c-0.1,0-0.4,0.4-0.7,1.1c-2,3.6-2.7,7.3-2.2,11c0.1,0.5,0.3,1.3,0.6,2.3c0.3,1,0.5,1.8,0.6,2.3
			c0.1,0.7,0,1.3-0.4,1.8c-0.4,0.5-0.9,0.8-1.6,0.9c-0.8,0.1-1.4-0.1-2-0.5c-0.2-0.2-0.5-1-1-2.3c-0.4-1.2-0.6-2.1-0.7-2.5l-1.6-11
			c-0.1-0.8-0.1-1.9,0.1-3.3c0.3-1.7,0.7-2.6,1.3-2.7c0.7-0.1,1.3,0.1,1.9,0.5c0.6,0.4,0.9,1,1,1.7c0.7-1.8,1.9-2.8,3.5-3
			c1.9-0.3,3.7,0.8,5.3,3.2c0.4-1.6,0.8-2.7,1.3-3.4c0.7-1.1,1.7-1.7,2.9-1.9c1.3-0.2,2.6,0.3,4.1,1.4c2.6,1.9,4.2,5.7,5,11.1
			L235.3,31.8z"/>
		<path class="st0" d="M255.9,18.7c0.4,3,0.1,5.8-1.2,8.1c-1.4,2.7-3.6,4.3-6.5,4.7c-3,0.4-5.4-0.3-7.2-2.1c-1.6-1.6-2.7-3.9-3.1-7
			c-0.4-3-0.1-6,1-9c1.3-3.5,3.3-5.4,6.2-5.8c0.9-0.1,2,0.1,3.5,0.7C252.7,10.2,255.1,13.6,255.9,18.7z M251.4,19.3
			c-0.7-5.2-2.4-7.6-4.9-7.2c-1.8,0.3-3,1.6-3.6,3.9c-0.4,1.8-0.5,3.7-0.2,5.8c0.6,4.5,2.3,6.6,5,6.2c1.7-0.2,2.9-1.4,3.5-3.3
			C251.6,23,251.7,21.3,251.4,19.3z"/>
		<path class="st0" d="M271,8.9c0,0.2,0.1,0.6,0.1,1.1c-0.6,1.1-1.2,1.7-2,1.8c-0.6,0.1-1.3-0.2-1.9-0.9c-0.3-1.5-0.9-2.2-2-2
			c-0.6,0.1-1.1,1.8-1.5,5.1c-0.2,1.5-0.1,3.5,0.2,6c0.3,2.4,0.7,3.8,1,4.3c0.3,0.6,0.5,1,0.6,1.3c0.1,0.6-0.1,1.1-0.6,1.5
			c-0.5,0.4-1,0.7-1.7,0.8c-1.8,0.3-2.8-0.5-3.1-2.1c0-0.2,0-0.4,0-0.7c0-0.3,0.1-0.5,0-0.7c-0.2-1.7-0.7-4.3-1.4-7.7
			s-1.1-5.9-1.4-7.6c-0.2-1.5,0.6-2.4,2.4-2.7c1.1-0.2,1.9,0.1,2.4,0.6c0.8-1.2,1.8-1.9,3-2c0.8-0.1,1.6,0,2.4,0.3
			c0.5,0.2,1.2,0.7,2,1.5C270.5,7.8,271,8.4,271,8.9z"/>
		<path class="st0" d="M290.9,19.3c0.2,1.7-0.7,3.2-2.9,4.5c-1.7,1-3.5,1.6-5.5,1.9c-5.2,0.8-8.2-1.8-9.1-7.8
			c-0.4-2.4-0.2-5.2,0.6-8.4c0.9-3.9,2.4-5.9,4.5-6.2c1.9-0.3,4,0.3,6.4,1.6c2.4,1.3,3.7,2.9,4,4.7c0.3,2.2-0.4,4.2-2.2,5.8
			c-1.6,1.4-3.6,2.3-6,2.7c-0.5,0.1-1.3-0.1-2.4-0.5c0.6,3.2,1.8,4.7,3.5,4.4c1.5-0.2,2.9-0.8,4.2-1.9c1.3-1.1,2.2-1.6,2.6-1.7
			C290,18.2,290.8,18.5,290.9,19.3z M284,10.5c-0.1-0.8-0.5-1.6-1.1-2.3c-0.6-0.7-1.3-1-2.1-0.9c-1.1,0.2-1.9,0.8-2.4,1.8
			c-0.4,0.9-0.5,2-0.3,3.1c0.1,0.6,0.4,1.1,0.9,1.5c0.5,0.3,1.1,0.5,1.8,0.4C283.2,13.8,284.3,12.6,284,10.5z"/>
	</g>
	<path class="st0" d="M292,27.2c-13.9,3.2-27.9,5.1-42.1,6.5c-13,1.3-24.2,7.9-37.5,8.1c-2.6,0-2.7,4.1-0.1,4.1
		c6.6-0.1,13.2-1,19.5-3.2c6.7-2.3,12.6-4.4,19.8-5c14-1.3,27.8-3.3,41.5-6.5C295.6,30.5,294.6,26.6,292,27.2z"/>
	<circle class="st0" cx="29.9" cy="28.5" r="28.5"/>
	<path class="st0" d="M108.8,1C89.9,1,72.3,6.6,57.5,16.3c1.9,3.9,2.9,8.3,2.9,13c0,16.7-13.5,30.2-30.2,30.2c-2.7,0-5.3-0.4-7.8-1
		c-4.7,11.1-7.3,23.4-7.3,36.2c0,51.7,42,93.7,93.7,93.7s93.7-42,93.7-93.7S160.6,1,108.8,1z"/>
	<g>
		<defs>
			<path id="SVGID_1_" d="M22.5,29.6c-0.7,0.1-0.8,1-0.4,1.4c0,0.1,0,0.1,0,0.1c-0.6,1.5-1,3.1-1.3,4.7c0,0.5-0.2,1-0.2,1.4
				C17.6,34.4,6.4,25.5,8.4,22.9c3.5-4.9,9.5-6.7,14-10c0.1,0.2,0.1,0.5,0.1,0.6c0.1,1.1,0.2,2.2,0.3,3.3c-0.3,0.3-0.4,0.9,0,1.1
				l0.1,0c0.2,0.5,0.6,0.7,1,0.4c2.1,0.8,4.5,0.9,6.8,1.3c3.6,0.6,7.1,1.7,10.2,3.9c4.7,3.3,7.7,7.8,10.3,13
				C43.6,30.1,31.8,27.9,22.5,29.6z M6.2,24.3c1,4.3,2.1,8.3,5.3,11.5c3.6,3.6,7.8,6.3,11.3,9.9c0.5,0.5,1.1,0.3,1.4-0.3
				c1.2-3,2-6,2.6-9.2c0.1,0,0.1,0,0.2,0c5.9-0.7,13.4-0.6,18.4,3.5c0.3,0.3,0.8-0.1,0.8-0.5l0.1,0c1.6-0.3,3.3-1,4.8-1.7
				c0.3,0.2,0.5,0.4,0.8,0.6c0.2,0.2,0.4,0.1,0.6-0.1c0.4,0,0.8-0.4,0.7-0.9c-2.1-6-5.8-11.7-11.2-15.1c-5.4-3.4-11.3-4.4-17.5-5.3
				c0-1.1-0.1-2.3-0.1-3.4c-0.1-0.8,0.2-2.3-0.6-2.9c-0.3-0.2-0.7-0.1-1,0.1c-0.2,0.1-0.2,0.3-0.3,0.4c-3,0.2-6.6,3.4-9,5.1
				c-2.4,1.7-5.7,3.6-6.9,6.5c-0.2,0.4-0.2,0.8-0.2,1.2C6,23.9,5.9,24.2,6.2,24.3z"/>
		</defs>
		<use xlink:href="#SVGID_1_"  style="overflow:visible;fill:#333333;"/>
		<clipPath id="SVGID_2_">
			<use xlink:href="#SVGID_1_"  style="overflow:visible;"/>
		</clipPath>
		<polygon class="st1" points="6.5,8.5 3.9,45.3 52.8,48.7 55.4,11.9 		"/>
	</g>
	<path class="st2" d="M175.1,85.7c0.4,8.1,5,24.6,9.7,35.9c3.7-9.3,5.7-19.5,5.7-30.1c0-15.5-4.3-30-11.8-42.3
		c-31.9,4.2-45.1,30.9-60.8,8.3c-14.8-29-39.1-35.6-57.8-23.7c-1.6,10.6-8.8,19.5-18.4,23.4c-1.6,5.7-1.1,11.4,1.6,16.4
		c4.1,7.4,6.2,14.9,11,17.9c5,6.5,12.2,15.5,17.3,20.6c7.6,6.3,16.3,8.2,17,8.2c-12.2-0.7-18.4-4.3-18.4-4.3
		c-6.3,7-20.1,9.1-30,18.5c-0.2,0.3-0.6,0.3-1.1,0.9c14.5,23.1,40.2,38.2,69.5,38.2c33.6,0,62.4-20.3,75.1-49.2
		c-6.3-13.9-9.7-29.9-10.1-38.8c-0.2-6.4-5.2-8.7-5.2-8.7S174.6,78.1,175.1,85.7z M58.3,84.1c-3.9,0-7.1-3.2-7.1-7.1
		s3.2-7.1,7.1-7.1c3.9,0,7.1,3.2,7.1,7.1S62.2,84.1,58.3,84.1z M150.7,70.8c1.8,6,2.4,20.1,5.8,34.2c-3.5-8.1-5.6-25.4-6.4-29.9
		c-1.5-7.9-7.2-11.4-12.5-5.7C141.7,62.3,149.2,65.9,150.7,70.8z M139.4,69.2c8.7-2.2,8.6,9.3,8,13.2c-0.6,3.9-4.9,5.5-7.3,3.5
		C137.8,83.9,133.9,71.5,139.4,69.2z M143.6,98.5c-3.2,1.8-3.9-6.2-0.2-6C147.2,93,146.8,96.7,143.6,98.5z M122.5,90.9
		c4.6-2.1,7.1,7.8,4.1,7.8S119.3,92.6,122.5,90.9z M107.7,64.8c9.7-5.5,13.5,8.3,14,13.2c0.6,4.9-4.1,8.3-7.6,6.6
		C110.6,83,101.8,69.4,107.7,64.8z M107.6,116.6c-1.8-0.7-0.9-2.8,1.4-4.8C120,118,109.4,117.3,107.6,116.6z M76.1,56.4
		c0-4.6,3.8-8.4,8.4-8.4c4.6,0,8.4,3.8,8.4,8.4c0,4.7-3.8,8.4-8.4,8.4C79.9,64.8,76.1,61,76.1,56.4z M89.5,95.9
		c6.2-5.1,14.6,8.8,13.8,11.6c-0.7,2.8-8.6,3.9-14.1-1.8C83.8,100,89.5,95.9,89.5,95.9z M98.2,165.1c-9.2,1-9-7.3-9-7.3
		c-0.3-9.4,24.6-6.8,26.8-4.1C118.1,156.4,107.5,164.1,98.2,165.1z M173.5,124.6c-2,5.6-25.1,0.8-30.7,0.9c-5.6,0-5.7,8-10.2,10.7
		c-4.4,2.7-14.2,0.3-13.9-6.1c-0.2-9.5,18.6-8.2,28.7-8.6c10.1-0.5,18.8-7.1,22.6-5.6S175.5,118.9,173.5,124.6z M166.5,101.5
		c2.9,1.8,3.8,3.4,0.9,3.7C164.4,105.4,163,101.8,166.5,101.5z M170.4,92.3c-0.6,3.1-4.1,4.1-5.9,2.5c-1.7-1.7-4.2-11.6,0.2-13.2
		C171.6,80.3,171.1,89.3,170.4,92.3z"/>
</g>
</svg>
